<?xml version="1.0" encoding="utf-8" standalone="no"?>
<!DOCTYPE svg PUBLIC "-//W3C//DTD SVG 1.1//EN"
  "http://www.w3.org/Graphics/SVG/1.1/DTD/svg11.dtd">
<svg xmlns:xlink="http://www.w3.org/1999/xlink" width="864pt" height="504pt" viewBox="0 0 864 504" xmlns="http://www.w3.org/2000/svg" version="1.1">
 <metadata>
  <rdf:RDF xmlns:dc="http://purl.org/dc/elements/1.1/" xmlns:cc="http://creativecommons.org/ns#" xmlns:rdf="http://www.w3.org/1999/02/22-rdf-syntax-ns#">
   <cc:Work>
    <dc:type rdf:resource="http://purl.org/dc/dcmitype/StillImage"/>
    <dc:date>2025-08-12T21:54:12.564867</dc:date>
    <dc:format>image/svg+xml</dc:format>
    <dc:creator>
     <cc:Agent>
      <dc:title>Matplotlib v3.10.3, https://matplotlib.org/</dc:title>
     </cc:Agent>
    </dc:creator>
   </cc:Work>
  </rdf:RDF>
 </metadata>
 <defs>
  <style type="text/css">*{stroke-linejoin: round; stroke-linecap: butt}</style>
 </defs>
 <g id="figure_1">
  <g id="patch_1">
   <path d="M 0 504 
L 864 504 
L 864 0 
L 0 0 
z
" style="fill: #ffffff"/>
  </g>
  <g id="axes_1">
   <g id="patch_2">
    <path d="M 50.87 435.590864 
L 853.2 435.590864 
L 853.2 26.88 
L 50.87 26.88 
z
" style="fill: #ffffff"/>
   </g>
   <g id="patch_3">
    <path d="M 51.966079 435.590864 
L 54.158238 435.590864 
L 54.158238 435.590864 
L 51.966079 435.590864 
z
" clip-path="url(#pf1e04d2b70)" style="fill: #a6cee3"/>
   </g>
   <g id="patch_4">
    <path d="M 56.350396 435.590864 
L 58.542555 435.590864 
L 58.542555 435.590864 
L 56.350396 435.590864 
z
" clip-path="url(#pf1e04d2b70)" style="fill: #a6cee3"/>
   </g>
   <g id="patch_5">
    <path d="M 60.734713 435.590864 
L 62.926872 435.590864 
L 62.926872 433.428372 
L 60.734713 433.428372 
z
" clip-path="url(#pf1e04d2b70)" style="fill: #a6cee3"/>
   </g>
   <g id="patch_6">
    <path d="M 65.11903 435.590864 
L 67.311189 435.590864 
L 67.311189 435.590864 
L 65.11903 435.590864 
z
" clip-path="url(#pf1e04d2b70)" style="fill: #a6cee3"/>
   </g>
   <g id="patch_7">
    <path d="M 69.503347 435.590864 
L 71.695505 435.590864 
L 71.695505 435.590864 
L 69.503347 435.590864 
z
" clip-path="url(#pf1e04d2b70)" style="fill: #a6cee3"/>
   </g>
   <g id="patch_8">
    <path d="M 73.887664 435.590864 
L 76.079822 435.590864 
L 76.079822 435.590864 
L 73.887664 435.590864 
z
" clip-path="url(#pf1e04d2b70)" style="fill: #a6cee3"/>
   </g>
   <g id="patch_9">
    <path d="M 78.271981 435.590864 
L 80.464139 435.590864 
L 80.464139 435.590864 
L 78.271981 435.590864 
z
" clip-path="url(#pf1e04d2b70)" style="fill: #a6cee3"/>
   </g>
   <g id="patch_10">
    <path d="M 82.656298 435.590864 
L 84.848456 435.590864 
L 84.848456 435.590864 
L 82.656298 435.590864 
z
" clip-path="url(#pf1e04d2b70)" style="fill: #a6cee3"/>
   </g>
   <g id="patch_11">
    <path d="M 87.040615 435.590864 
L 89.232773 435.590864 
L 89.232773 435.590864 
L 87.040615 435.590864 
z
" clip-path="url(#pf1e04d2b70)" style="fill: #a6cee3"/>
   </g>
   <g id="patch_12">
    <path d="M 91.424932 435.590864 
L 93.61709 435.590864 
L 93.61709 435.590864 
L 91.424932 435.590864 
z
" clip-path="url(#pf1e04d2b70)" style="fill: #a6cee3"/>
   </g>
   <g id="patch_13">
    <path d="M 95.809249 435.590864 
L 98.001407 435.590864 
L 98.001407 435.590864 
L 95.809249 435.590864 
z
" clip-path="url(#pf1e04d2b70)" style="fill: #a6cee3"/>
   </g>
   <g id="patch_14">
    <path d="M 100.193566 435.590864 
L 102.385724 435.590864 
L 102.385724 435.590864 
L 100.193566 435.590864 
z
" clip-path="url(#pf1e04d2b70)" style="fill: #a6cee3"/>
   </g>
   <g id="patch_15">
    <path d="M 104.577883 435.590864 
L 106.770041 435.590864 
L 106.770041 435.590864 
L 104.577883 435.590864 
z
" clip-path="url(#pf1e04d2b70)" style="fill: #a6cee3"/>
   </g>
   <g id="patch_16">
    <path d="M 108.962199 435.590864 
L 111.154358 435.590864 
L 111.154358 433.428372 
L 108.962199 433.428372 
z
" clip-path="url(#pf1e04d2b70)" style="fill: #a6cee3"/>
   </g>
   <g id="patch_17">
    <path d="M 113.346516 435.590864 
L 115.538675 435.590864 
L 115.538675 431.265881 
L 113.346516 431.265881 
z
" clip-path="url(#pf1e04d2b70)" style="fill: #a6cee3"/>
   </g>
   <g id="patch_18">
    <path d="M 117.730833 435.590864 
L 119.922992 435.590864 
L 119.922992 435.590864 
L 117.730833 435.590864 
z
" clip-path="url(#pf1e04d2b70)" style="fill: #a6cee3"/>
   </g>
   <g id="patch_19">
    <path d="M 122.11515 435.590864 
L 124.307309 435.590864 
L 124.307309 435.590864 
L 122.11515 435.590864 
z
" clip-path="url(#pf1e04d2b70)" style="fill: #a6cee3"/>
   </g>
   <g id="patch_20">
    <path d="M 126.499467 435.590864 
L 128.691626 435.590864 
L 128.691626 435.590864 
L 126.499467 435.590864 
z
" clip-path="url(#pf1e04d2b70)" style="fill: #a6cee3"/>
   </g>
   <g id="patch_21">
    <path d="M 130.883784 435.590864 
L 133.075943 435.590864 
L 133.075943 433.428372 
L 130.883784 433.428372 
z
" clip-path="url(#pf1e04d2b70)" style="fill: #a6cee3"/>
   </g>
   <g id="patch_22">
    <path d="M 135.268101 435.590864 
L 137.46026 435.590864 
L 137.46026 433.428372 
L 135.268101 433.428372 
z
" clip-path="url(#pf1e04d2b70)" style="fill: #a6cee3"/>
   </g>
   <g id="patch_23">
    <path d="M 139.652418 435.590864 
L 141.844577 435.590864 
L 141.844577 431.265881 
L 139.652418 431.265881 
z
" clip-path="url(#pf1e04d2b70)" style="fill: #a6cee3"/>
   </g>
   <g id="patch_24">
    <path d="M 144.036735 435.590864 
L 146.228893 435.590864 
L 146.228893 435.590864 
L 144.036735 435.590864 
z
" clip-path="url(#pf1e04d2b70)" style="fill: #a6cee3"/>
   </g>
   <g id="patch_25">
    <path d="M 148.421052 435.590864 
L 150.61321 435.590864 
L 150.61321 435.590864 
L 148.421052 435.590864 
z
" clip-path="url(#pf1e04d2b70)" style="fill: #a6cee3"/>
   </g>
   <g id="patch_26">
    <path d="M 152.805369 435.590864 
L 154.997527 435.590864 
L 154.997527 435.590864 
L 152.805369 435.590864 
z
" clip-path="url(#pf1e04d2b70)" style="fill: #a6cee3"/>
   </g>
   <g id="patch_27">
    <path d="M 157.189686 435.590864 
L 159.381844 435.590864 
L 159.381844 435.590864 
L 157.189686 435.590864 
z
" clip-path="url(#pf1e04d2b70)" style="fill: #a6cee3"/>
   </g>
   <g id="patch_28">
    <path d="M 161.574003 435.590864 
L 163.766161 435.590864 
L 163.766161 435.590864 
L 161.574003 435.590864 
z
" clip-path="url(#pf1e04d2b70)" style="fill: #a6cee3"/>
   </g>
   <g id="patch_29">
    <path d="M 165.95832 435.590864 
L 168.150478 435.590864 
L 168.150478 435.590864 
L 165.95832 435.590864 
z
" clip-path="url(#pf1e04d2b70)" style="fill: #a6cee3"/>
   </g>
   <g id="patch_30">
    <path d="M 170.342637 435.590864 
L 172.534795 435.590864 
L 172.534795 435.590864 
L 170.342637 435.590864 
z
" clip-path="url(#pf1e04d2b70)" style="fill: #a6cee3"/>
   </g>
   <g id="patch_31">
    <path d="M 174.726954 435.590864 
L 176.919112 435.590864 
L 176.919112 435.590864 
L 174.726954 435.590864 
z
" clip-path="url(#pf1e04d2b70)" style="fill: #a6cee3"/>
   </g>
   <g id="patch_32">
    <path d="M 179.11127 435.590864 
L 181.303429 435.590864 
L 181.303429 435.590864 
L 179.11127 435.590864 
z
" clip-path="url(#pf1e04d2b70)" style="fill: #a6cee3"/>
   </g>
   <g id="patch_33">
    <path d="M 183.495587 435.590864 
L 185.687746 435.590864 
L 185.687746 435.590864 
L 183.495587 435.590864 
z
" clip-path="url(#pf1e04d2b70)" style="fill: #a6cee3"/>
   </g>
   <g id="patch_34">
    <path d="M 187.879904 435.590864 
L 190.072063 435.590864 
L 190.072063 435.590864 
L 187.879904 435.590864 
z
" clip-path="url(#pf1e04d2b70)" style="fill: #a6cee3"/>
   </g>
   <g id="patch_35">
    <path d="M 192.264221 435.590864 
L 194.45638 435.590864 
L 194.45638 435.590864 
L 192.264221 435.590864 
z
" clip-path="url(#pf1e04d2b70)" style="fill: #a6cee3"/>
   </g>
   <g id="patch_36">
    <path d="M 196.648538 435.590864 
L 198.840697 435.590864 
L 198.840697 435.590864 
L 196.648538 435.590864 
z
" clip-path="url(#pf1e04d2b70)" style="fill: #a6cee3"/>
   </g>
   <g id="patch_37">
    <path d="M 201.032855 435.590864 
L 203.225014 435.590864 
L 203.225014 435.590864 
L 201.032855 435.590864 
z
" clip-path="url(#pf1e04d2b70)" style="fill: #a6cee3"/>
   </g>
   <g id="patch_38">
    <path d="M 205.417172 435.590864 
L 207.609331 435.590864 
L 207.609331 435.590864 
L 205.417172 435.590864 
z
" clip-path="url(#pf1e04d2b70)" style="fill: #a6cee3"/>
   </g>
   <g id="patch_39">
    <path d="M 209.801489 435.590864 
L 211.993648 435.590864 
L 211.993648 435.590864 
L 209.801489 435.590864 
z
" clip-path="url(#pf1e04d2b70)" style="fill: #a6cee3"/>
   </g>
   <g id="patch_40">
    <path d="M 214.185806 435.590864 
L 216.377964 435.590864 
L 216.377964 435.590864 
L 214.185806 435.590864 
z
" clip-path="url(#pf1e04d2b70)" style="fill: #a6cee3"/>
   </g>
   <g id="patch_41">
    <path d="M 218.570123 435.590864 
L 220.762281 435.590864 
L 220.762281 435.590864 
L 218.570123 435.590864 
z
" clip-path="url(#pf1e04d2b70)" style="fill: #a6cee3"/>
   </g>
   <g id="patch_42">
    <path d="M 222.95444 435.590864 
L 225.146598 435.590864 
L 225.146598 435.590864 
L 222.95444 435.590864 
z
" clip-path="url(#pf1e04d2b70)" style="fill: #a6cee3"/>
   </g>
   <g id="patch_43">
    <path d="M 227.338757 435.590864 
L 229.530915 435.590864 
L 229.530915 435.590864 
L 227.338757 435.590864 
z
" clip-path="url(#pf1e04d2b70)" style="fill: #a6cee3"/>
   </g>
   <g id="patch_44">
    <path d="M 231.723074 435.590864 
L 233.915232 435.590864 
L 233.915232 435.590864 
L 231.723074 435.590864 
z
" clip-path="url(#pf1e04d2b70)" style="fill: #a6cee3"/>
   </g>
   <g id="patch_45">
    <path d="M 236.107391 435.590864 
L 238.299549 435.590864 
L 238.299549 435.590864 
L 236.107391 435.590864 
z
" clip-path="url(#pf1e04d2b70)" style="fill: #a6cee3"/>
   </g>
   <g id="patch_46">
    <path d="M 240.491708 435.590864 
L 242.683866 435.590864 
L 242.683866 435.590864 
L 240.491708 435.590864 
z
" clip-path="url(#pf1e04d2b70)" style="fill: #a6cee3"/>
   </g>
   <g id="patch_47">
    <path d="M 244.876025 435.590864 
L 247.068183 435.590864 
L 247.068183 435.590864 
L 244.876025 435.590864 
z
" clip-path="url(#pf1e04d2b70)" style="fill: #a6cee3"/>
   </g>
   <g id="patch_48">
    <path d="M 249.260342 435.590864 
L 251.4525 435.590864 
L 251.4525 435.590864 
L 249.260342 435.590864 
z
" clip-path="url(#pf1e04d2b70)" style="fill: #a6cee3"/>
   </g>
   <g id="patch_49">
    <path d="M 253.644658 435.590864 
L 255.836817 435.590864 
L 255.836817 435.590864 
L 253.644658 435.590864 
z
" clip-path="url(#pf1e04d2b70)" style="fill: #a6cee3"/>
   </g>
   <g id="patch_50">
    <path d="M 258.028975 435.590864 
L 260.221134 435.590864 
L 260.221134 435.590864 
L 258.028975 435.590864 
z
" clip-path="url(#pf1e04d2b70)" style="fill: #a6cee3"/>
   </g>
   <g id="patch_51">
    <path d="M 262.413292 435.590864 
L 264.605451 435.590864 
L 264.605451 435.590864 
L 262.413292 435.590864 
z
" clip-path="url(#pf1e04d2b70)" style="fill: #a6cee3"/>
   </g>
   <g id="patch_52">
    <path d="M 266.797609 435.590864 
L 268.989768 435.590864 
L 268.989768 435.590864 
L 266.797609 435.590864 
z
" clip-path="url(#pf1e04d2b70)" style="fill: #a6cee3"/>
   </g>
   <g id="patch_53">
    <path d="M 271.181926 435.590864 
L 273.374085 435.590864 
L 273.374085 435.590864 
L 271.181926 435.590864 
z
" clip-path="url(#pf1e04d2b70)" style="fill: #a6cee3"/>
   </g>
   <g id="patch_54">
    <path d="M 275.566243 435.590864 
L 277.758402 435.590864 
L 277.758402 435.590864 
L 275.566243 435.590864 
z
" clip-path="url(#pf1e04d2b70)" style="fill: #a6cee3"/>
   </g>
   <g id="patch_55">
    <path d="M 279.95056 435.590864 
L 282.142719 435.590864 
L 282.142719 435.590864 
L 279.95056 435.590864 
z
" clip-path="url(#pf1e04d2b70)" style="fill: #a6cee3"/>
   </g>
   <g id="patch_56">
    <path d="M 284.334877 435.590864 
L 286.527036 435.590864 
L 286.527036 435.590864 
L 284.334877 435.590864 
z
" clip-path="url(#pf1e04d2b70)" style="fill: #a6cee3"/>
   </g>
   <g id="patch_57">
    <path d="M 288.719194 435.590864 
L 290.911352 435.590864 
L 290.911352 435.590864 
L 288.719194 435.590864 
z
" clip-path="url(#pf1e04d2b70)" style="fill: #a6cee3"/>
   </g>
   <g id="patch_58">
    <path d="M 293.103511 435.590864 
L 295.295669 435.590864 
L 295.295669 435.590864 
L 293.103511 435.590864 
z
" clip-path="url(#pf1e04d2b70)" style="fill: #a6cee3"/>
   </g>
   <g id="patch_59">
    <path d="M 297.487828 435.590864 
L 299.679986 435.590864 
L 299.679986 435.590864 
L 297.487828 435.590864 
z
" clip-path="url(#pf1e04d2b70)" style="fill: #a6cee3"/>
   </g>
   <g id="patch_60">
    <path d="M 301.872145 435.590864 
L 304.064303 435.590864 
L 304.064303 435.590864 
L 301.872145 435.590864 
z
" clip-path="url(#pf1e04d2b70)" style="fill: #a6cee3"/>
   </g>
   <g id="patch_61">
    <path d="M 306.256462 435.590864 
L 308.44862 435.590864 
L 308.44862 435.590864 
L 306.256462 435.590864 
z
" clip-path="url(#pf1e04d2b70)" style="fill: #a6cee3"/>
   </g>
   <g id="patch_62">
    <path d="M 310.640779 435.590864 
L 312.832937 435.590864 
L 312.832937 435.590864 
L 310.640779 435.590864 
z
" clip-path="url(#pf1e04d2b70)" style="fill: #a6cee3"/>
   </g>
   <g id="patch_63">
    <path d="M 315.025096 435.590864 
L 317.217254 435.590864 
L 317.217254 435.590864 
L 315.025096 435.590864 
z
" clip-path="url(#pf1e04d2b70)" style="fill: #a6cee3"/>
   </g>
   <g id="patch_64">
    <path d="M 319.409413 435.590864 
L 321.601571 435.590864 
L 321.601571 435.590864 
L 319.409413 435.590864 
z
" clip-path="url(#pf1e04d2b70)" style="fill: #a6cee3"/>
   </g>
   <g id="patch_65">
    <path d="M 323.79373 435.590864 
L 325.985888 435.590864 
L 325.985888 435.590864 
L 323.79373 435.590864 
z
" clip-path="url(#pf1e04d2b70)" style="fill: #a6cee3"/>
   </g>
   <g id="patch_66">
    <path d="M 328.178046 435.590864 
L 330.370205 435.590864 
L 330.370205 435.590864 
L 328.178046 435.590864 
z
" clip-path="url(#pf1e04d2b70)" style="fill: #a6cee3"/>
   </g>
   <g id="patch_67">
    <path d="M 332.562363 435.590864 
L 334.754522 435.590864 
L 334.754522 435.590864 
L 332.562363 435.590864 
z
" clip-path="url(#pf1e04d2b70)" style="fill: #a6cee3"/>
   </g>
   <g id="patch_68">
    <path d="M 336.94668 435.590864 
L 339.138839 435.590864 
L 339.138839 435.590864 
L 336.94668 435.590864 
z
" clip-path="url(#pf1e04d2b70)" style="fill: #a6cee3"/>
   </g>
   <g id="patch_69">
    <path d="M 341.330997 435.590864 
L 343.523156 435.590864 
L 343.523156 435.590864 
L 341.330997 435.590864 
z
" clip-path="url(#pf1e04d2b70)" style="fill: #a6cee3"/>
   </g>
   <g id="patch_70">
    <path d="M 345.715314 435.590864 
L 347.907473 435.590864 
L 347.907473 435.590864 
L 345.715314 435.590864 
z
" clip-path="url(#pf1e04d2b70)" style="fill: #a6cee3"/>
   </g>
   <g id="patch_71">
    <path d="M 350.099631 435.590864 
L 352.29179 435.590864 
L 352.29179 435.590864 
L 350.099631 435.590864 
z
" clip-path="url(#pf1e04d2b70)" style="fill: #a6cee3"/>
   </g>
   <g id="patch_72">
    <path d="M 354.483948 435.590864 
L 356.676107 435.590864 
L 356.676107 435.590864 
L 354.483948 435.590864 
z
" clip-path="url(#pf1e04d2b70)" style="fill: #a6cee3"/>
   </g>
   <g id="patch_73">
    <path d="M 358.868265 435.590864 
L 361.060423 435.590864 
L 361.060423 435.590864 
L 358.868265 435.590864 
z
" clip-path="url(#pf1e04d2b70)" style="fill: #a6cee3"/>
   </g>
   <g id="patch_74">
    <path d="M 363.252582 435.590864 
L 365.44474 435.590864 
L 365.44474 435.590864 
L 363.252582 435.590864 
z
" clip-path="url(#pf1e04d2b70)" style="fill: #a6cee3"/>
   </g>
   <g id="patch_75">
    <path d="M 367.636899 435.590864 
L 369.829057 435.590864 
L 369.829057 435.590864 
L 367.636899 435.590864 
z
" clip-path="url(#pf1e04d2b70)" style="fill: #a6cee3"/>
   </g>
   <g id="patch_76">
    <path d="M 372.021216 435.590864 
L 374.213374 435.590864 
L 374.213374 435.590864 
L 372.021216 435.590864 
z
" clip-path="url(#pf1e04d2b70)" style="fill: #a6cee3"/>
   </g>
   <g id="patch_77">
    <path d="M 376.405533 435.590864 
L 378.597691 435.590864 
L 378.597691 435.590864 
L 376.405533 435.590864 
z
" clip-path="url(#pf1e04d2b70)" style="fill: #a6cee3"/>
   </g>
   <g id="patch_78">
    <path d="M 380.78985 435.590864 
L 382.982008 435.590864 
L 382.982008 435.590864 
L 380.78985 435.590864 
z
" clip-path="url(#pf1e04d2b70)" style="fill: #a6cee3"/>
   </g>
   <g id="patch_79">
    <path d="M 385.174167 435.590864 
L 387.366325 435.590864 
L 387.366325 435.590864 
L 385.174167 435.590864 
z
" clip-path="url(#pf1e04d2b70)" style="fill: #a6cee3"/>
   </g>
   <g id="patch_80">
    <path d="M 389.558484 435.590864 
L 391.750642 435.590864 
L 391.750642 435.590864 
L 389.558484 435.590864 
z
" clip-path="url(#pf1e04d2b70)" style="fill: #a6cee3"/>
   </g>
   <g id="patch_81">
    <path d="M 393.942801 435.590864 
L 396.134959 435.590864 
L 396.134959 435.590864 
L 393.942801 435.590864 
z
" clip-path="url(#pf1e04d2b70)" style="fill: #a6cee3"/>
   </g>
   <g id="patch_82">
    <path d="M 398.327117 435.590864 
L 400.519276 435.590864 
L 400.519276 435.590864 
L 398.327117 435.590864 
z
" clip-path="url(#pf1e04d2b70)" style="fill: #a6cee3"/>
   </g>
   <g id="patch_83">
    <path d="M 402.711434 435.590864 
L 404.903593 435.590864 
L 404.903593 435.590864 
L 402.711434 435.590864 
z
" clip-path="url(#pf1e04d2b70)" style="fill: #a6cee3"/>
   </g>
   <g id="patch_84">
    <path d="M 407.095751 435.590864 
L 409.28791 435.590864 
L 409.28791 435.590864 
L 407.095751 435.590864 
z
" clip-path="url(#pf1e04d2b70)" style="fill: #a6cee3"/>
   </g>
   <g id="patch_85">
    <path d="M 411.480068 435.590864 
L 413.672227 435.590864 
L 413.672227 435.590864 
L 411.480068 435.590864 
z
" clip-path="url(#pf1e04d2b70)" style="fill: #a6cee3"/>
   </g>
   <g id="patch_86">
    <path d="M 415.864385 435.590864 
L 418.056544 435.590864 
L 418.056544 435.590864 
L 415.864385 435.590864 
z
" clip-path="url(#pf1e04d2b70)" style="fill: #a6cee3"/>
   </g>
   <g id="patch_87">
    <path d="M 420.248702 435.590864 
L 422.440861 435.590864 
L 422.440861 435.590864 
L 420.248702 435.590864 
z
" clip-path="url(#pf1e04d2b70)" style="fill: #a6cee3"/>
   </g>
   <g id="patch_88">
    <path d="M 424.633019 435.590864 
L 426.825178 435.590864 
L 426.825178 435.590864 
L 424.633019 435.590864 
z
" clip-path="url(#pf1e04d2b70)" style="fill: #a6cee3"/>
   </g>
   <g id="patch_89">
    <path d="M 429.017336 435.590864 
L 431.209495 435.590864 
L 431.209495 435.590864 
L 429.017336 435.590864 
z
" clip-path="url(#pf1e04d2b70)" style="fill: #a6cee3"/>
   </g>
   <g id="patch_90">
    <path d="M 433.401653 435.590864 
L 435.593811 435.590864 
L 435.593811 435.590864 
L 433.401653 435.590864 
z
" clip-path="url(#pf1e04d2b70)" style="fill: #a6cee3"/>
   </g>
   <g id="patch_91">
    <path d="M 437.78597 435.590864 
L 439.978128 435.590864 
L 439.978128 435.590864 
L 437.78597 435.590864 
z
" clip-path="url(#pf1e04d2b70)" style="fill: #a6cee3"/>
   </g>
   <g id="patch_92">
    <path d="M 442.170287 435.590864 
L 444.362445 435.590864 
L 444.362445 435.590864 
L 442.170287 435.590864 
z
" clip-path="url(#pf1e04d2b70)" style="fill: #a6cee3"/>
   </g>
   <g id="patch_93">
    <path d="M 446.554604 435.590864 
L 448.746762 435.590864 
L 448.746762 435.590864 
L 446.554604 435.590864 
z
" clip-path="url(#pf1e04d2b70)" style="fill: #a6cee3"/>
   </g>
   <g id="patch_94">
    <path d="M 450.938921 435.590864 
L 453.131079 435.590864 
L 453.131079 435.590864 
L 450.938921 435.590864 
z
" clip-path="url(#pf1e04d2b70)" style="fill: #a6cee3"/>
   </g>
   <g id="patch_95">
    <path d="M 455.323238 435.590864 
L 457.515396 435.590864 
L 457.515396 435.590864 
L 455.323238 435.590864 
z
" clip-path="url(#pf1e04d2b70)" style="fill: #a6cee3"/>
   </g>
   <g id="patch_96">
    <path d="M 459.707555 435.590864 
L 461.899713 435.590864 
L 461.899713 435.590864 
L 459.707555 435.590864 
z
" clip-path="url(#pf1e04d2b70)" style="fill: #a6cee3"/>
   </g>
   <g id="patch_97">
    <path d="M 464.091872 435.590864 
L 466.28403 435.590864 
L 466.28403 435.590864 
L 464.091872 435.590864 
z
" clip-path="url(#pf1e04d2b70)" style="fill: #a6cee3"/>
   </g>
   <g id="patch_98">
    <path d="M 468.476189 435.590864 
L 470.668347 435.590864 
L 470.668347 435.590864 
L 468.476189 435.590864 
z
" clip-path="url(#pf1e04d2b70)" style="fill: #a6cee3"/>
   </g>
   <g id="patch_99">
    <path d="M 472.860505 435.590864 
L 475.052664 435.590864 
L 475.052664 435.590864 
L 472.860505 435.590864 
z
" clip-path="url(#pf1e04d2b70)" style="fill: #a6cee3"/>
   </g>
   <g id="patch_100">
    <path d="M 477.244822 435.590864 
L 479.436981 435.590864 
L 479.436981 435.590864 
L 477.244822 435.590864 
z
" clip-path="url(#pf1e04d2b70)" style="fill: #a6cee3"/>
   </g>
   <g id="patch_101">
    <path d="M 481.629139 435.590864 
L 483.821298 435.590864 
L 483.821298 435.590864 
L 481.629139 435.590864 
z
" clip-path="url(#pf1e04d2b70)" style="fill: #a6cee3"/>
   </g>
   <g id="patch_102">
    <path d="M 486.013456 435.590864 
L 488.205615 435.590864 
L 488.205615 435.590864 
L 486.013456 435.590864 
z
" clip-path="url(#pf1e04d2b70)" style="fill: #a6cee3"/>
   </g>
   <g id="patch_103">
    <path d="M 490.397773 435.590864 
L 492.589932 435.590864 
L 492.589932 435.590864 
L 490.397773 435.590864 
z
" clip-path="url(#pf1e04d2b70)" style="fill: #a6cee3"/>
   </g>
   <g id="patch_104">
    <path d="M 494.78209 435.590864 
L 496.974249 435.590864 
L 496.974249 435.590864 
L 494.78209 435.590864 
z
" clip-path="url(#pf1e04d2b70)" style="fill: #a6cee3"/>
   </g>
   <g id="patch_105">
    <path d="M 499.166407 435.590864 
L 501.358566 435.590864 
L 501.358566 435.590864 
L 499.166407 435.590864 
z
" clip-path="url(#pf1e04d2b70)" style="fill: #a6cee3"/>
   </g>
   <g id="patch_106">
    <path d="M 503.550724 435.590864 
L 505.742883 435.590864 
L 505.742883 435.590864 
L 503.550724 435.590864 
z
" clip-path="url(#pf1e04d2b70)" style="fill: #a6cee3"/>
   </g>
   <g id="patch_107">
    <path d="M 507.935041 435.590864 
L 510.127199 435.590864 
L 510.127199 435.590864 
L 507.935041 435.590864 
z
" clip-path="url(#pf1e04d2b70)" style="fill: #a6cee3"/>
   </g>
   <g id="patch_108">
    <path d="M 512.319358 435.590864 
L 514.511516 435.590864 
L 514.511516 435.590864 
L 512.319358 435.590864 
z
" clip-path="url(#pf1e04d2b70)" style="fill: #a6cee3"/>
   </g>
   <g id="patch_109">
    <path d="M 516.703675 435.590864 
L 518.895833 435.590864 
L 518.895833 435.590864 
L 516.703675 435.590864 
z
" clip-path="url(#pf1e04d2b70)" style="fill: #a6cee3"/>
   </g>
   <g id="patch_110">
    <path d="M 521.087992 435.590864 
L 523.28015 435.590864 
L 523.28015 435.590864 
L 521.087992 435.590864 
z
" clip-path="url(#pf1e04d2b70)" style="fill: #a6cee3"/>
   </g>
   <g id="patch_111">
    <path d="M 525.472309 435.590864 
L 527.664467 435.590864 
L 527.664467 435.590864 
L 525.472309 435.590864 
z
" clip-path="url(#pf1e04d2b70)" style="fill: #a6cee3"/>
   </g>
   <g id="patch_112">
    <path d="M 529.856626 435.590864 
L 532.048784 435.590864 
L 532.048784 435.590864 
L 529.856626 435.590864 
z
" clip-path="url(#pf1e04d2b70)" style="fill: #a6cee3"/>
   </g>
   <g id="patch_113">
    <path d="M 534.240943 435.590864 
L 536.433101 435.590864 
L 536.433101 435.590864 
L 534.240943 435.590864 
z
" clip-path="url(#pf1e04d2b70)" style="fill: #a6cee3"/>
   </g>
   <g id="patch_114">
    <path d="M 538.62526 435.590864 
L 540.817418 435.590864 
L 540.817418 435.590864 
L 538.62526 435.590864 
z
" clip-path="url(#pf1e04d2b70)" style="fill: #a6cee3"/>
   </g>
   <g id="patch_115">
    <path d="M 543.009577 435.590864 
L 545.201735 435.590864 
L 545.201735 435.590864 
L 543.009577 435.590864 
z
" clip-path="url(#pf1e04d2b70)" style="fill: #a6cee3"/>
   </g>
   <g id="patch_116">
    <path d="M 547.393893 435.590864 
L 549.586052 435.590864 
L 549.586052 435.590864 
L 547.393893 435.590864 
z
" clip-path="url(#pf1e04d2b70)" style="fill: #a6cee3"/>
   </g>
   <g id="patch_117">
    <path d="M 551.77821 435.590864 
L 553.970369 435.590864 
L 553.970369 435.590864 
L 551.77821 435.590864 
z
" clip-path="url(#pf1e04d2b70)" style="fill: #a6cee3"/>
   </g>
   <g id="patch_118">
    <path d="M 556.162527 435.590864 
L 558.354686 435.590864 
L 558.354686 435.590864 
L 556.162527 435.590864 
z
" clip-path="url(#pf1e04d2b70)" style="fill: #a6cee3"/>
   </g>
   <g id="patch_119">
    <path d="M 560.546844 435.590864 
L 562.739003 435.590864 
L 562.739003 435.590864 
L 560.546844 435.590864 
z
" clip-path="url(#pf1e04d2b70)" style="fill: #a6cee3"/>
   </g>
   <g id="patch_120">
    <path d="M 564.931161 435.590864 
L 567.12332 435.590864 
L 567.12332 435.590864 
L 564.931161 435.590864 
z
" clip-path="url(#pf1e04d2b70)" style="fill: #a6cee3"/>
   </g>
   <g id="patch_121">
    <path d="M 569.315478 435.590864 
L 571.507637 435.590864 
L 571.507637 435.590864 
L 569.315478 435.590864 
z
" clip-path="url(#pf1e04d2b70)" style="fill: #a6cee3"/>
   </g>
   <g id="patch_122">
    <path d="M 573.699795 435.590864 
L 575.891954 435.590864 
L 575.891954 435.590864 
L 573.699795 435.590864 
z
" clip-path="url(#pf1e04d2b70)" style="fill: #a6cee3"/>
   </g>
   <g id="patch_123">
    <path d="M 578.084112 435.590864 
L 580.27627 435.590864 
L 580.27627 435.590864 
L 578.084112 435.590864 
z
" clip-path="url(#pf1e04d2b70)" style="fill: #a6cee3"/>
   </g>
   <g id="patch_124">
    <path d="M 582.468429 435.590864 
L 584.660587 435.590864 
L 584.660587 435.590864 
L 582.468429 435.590864 
z
" clip-path="url(#pf1e04d2b70)" style="fill: #a6cee3"/>
   </g>
   <g id="patch_125">
    <path d="M 586.852746 435.590864 
L 589.044904 435.590864 
L 589.044904 435.590864 
L 586.852746 435.590864 
z
" clip-path="url(#pf1e04d2b70)" style="fill: #a6cee3"/>
   </g>
   <g id="patch_126">
    <path d="M 591.237063 435.590864 
L 593.429221 435.590864 
L 593.429221 435.590864 
L 591.237063 435.590864 
z
" clip-path="url(#pf1e04d2b70)" style="fill: #a6cee3"/>
   </g>
   <g id="patch_127">
    <path d="M 595.62138 435.590864 
L 597.813538 435.590864 
L 597.813538 435.590864 
L 595.62138 435.590864 
z
" clip-path="url(#pf1e04d2b70)" style="fill: #a6cee3"/>
   </g>
   <g id="patch_128">
    <path d="M 600.005697 435.590864 
L 602.197855 435.590864 
L 602.197855 435.590864 
L 600.005697 435.590864 
z
" clip-path="url(#pf1e04d2b70)" style="fill: #a6cee3"/>
   </g>
   <g id="patch_129">
    <path d="M 604.390014 435.590864 
L 606.582172 435.590864 
L 606.582172 435.590864 
L 604.390014 435.590864 
z
" clip-path="url(#pf1e04d2b70)" style="fill: #a6cee3"/>
   </g>
   <g id="patch_130">
    <path d="M 608.774331 435.590864 
L 610.966489 435.590864 
L 610.966489 435.590864 
L 608.774331 435.590864 
z
" clip-path="url(#pf1e04d2b70)" style="fill: #a6cee3"/>
   </g>
   <g id="patch_131">
    <path d="M 613.158648 435.590864 
L 615.350806 435.590864 
L 615.350806 435.590864 
L 613.158648 435.590864 
z
" clip-path="url(#pf1e04d2b70)" style="fill: #a6cee3"/>
   </g>
   <g id="patch_132">
    <path d="M 617.542964 435.590864 
L 619.735123 435.590864 
L 619.735123 435.590864 
L 617.542964 435.590864 
z
" clip-path="url(#pf1e04d2b70)" style="fill: #a6cee3"/>
   </g>
   <g id="patch_133">
    <path d="M 621.927281 435.590864 
L 624.11944 435.590864 
L 624.11944 435.590864 
L 621.927281 435.590864 
z
" clip-path="url(#pf1e04d2b70)" style="fill: #a6cee3"/>
   </g>
   <g id="patch_134">
    <path d="M 626.311598 435.590864 
L 628.503757 435.590864 
L 628.503757 435.590864 
L 626.311598 435.590864 
z
" clip-path="url(#pf1e04d2b70)" style="fill: #a6cee3"/>
   </g>
   <g id="patch_135">
    <path d="M 630.695915 435.590864 
L 632.888074 435.590864 
L 632.888074 435.590864 
L 630.695915 435.590864 
z
" clip-path="url(#pf1e04d2b70)" style="fill: #a6cee3"/>
   </g>
   <g id="patch_136">
    <path d="M 635.080232 435.590864 
L 637.272391 435.590864 
L 637.272391 435.590864 
L 635.080232 435.590864 
z
" clip-path="url(#pf1e04d2b70)" style="fill: #a6cee3"/>
   </g>
   <g id="patch_137">
    <path d="M 639.464549 435.590864 
L 641.656708 435.590864 
L 641.656708 435.590864 
L 639.464549 435.590864 
z
" clip-path="url(#pf1e04d2b70)" style="fill: #a6cee3"/>
   </g>
   <g id="patch_138">
    <path d="M 643.848866 435.590864 
L 646.041025 435.590864 
L 646.041025 435.590864 
L 643.848866 435.590864 
z
" clip-path="url(#pf1e04d2b70)" style="fill: #a6cee3"/>
   </g>
   <g id="patch_139">
    <path d="M 648.233183 435.590864 
L 650.425342 435.590864 
L 650.425342 435.590864 
L 648.233183 435.590864 
z
" clip-path="url(#pf1e04d2b70)" style="fill: #a6cee3"/>
   </g>
   <g id="patch_140">
    <path d="M 652.6175 435.590864 
L 654.809658 435.590864 
L 654.809658 435.590864 
L 652.6175 435.590864 
z
" clip-path="url(#pf1e04d2b70)" style="fill: #a6cee3"/>
   </g>
   <g id="patch_141">
    <path d="M 657.001817 435.590864 
L 659.193975 435.590864 
L 659.193975 435.590864 
L 657.001817 435.590864 
z
" clip-path="url(#pf1e04d2b70)" style="fill: #a6cee3"/>
   </g>
   <g id="patch_142">
    <path d="M 661.386134 435.590864 
L 663.578292 435.590864 
L 663.578292 435.590864 
L 661.386134 435.590864 
z
" clip-path="url(#pf1e04d2b70)" style="fill: #a6cee3"/>
   </g>
   <g id="patch_143">
    <path d="M 665.770451 435.590864 
L 667.962609 435.590864 
L 667.962609 372.878615 
L 665.770451 372.878615 
z
" clip-path="url(#pf1e04d2b70)" style="fill: #a6cee3"/>
   </g>
   <g id="patch_144">
    <path d="M 670.154768 435.590864 
L 672.346926 435.590864 
L 672.346926 407.478476 
L 670.154768 407.478476 
z
" clip-path="url(#pf1e04d2b70)" style="fill: #a6cee3"/>
   </g>
   <g id="patch_145">
    <path d="M 674.539085 435.590864 
L 676.731243 435.590864 
L 676.731243 366.391141 
L 674.539085 366.391141 
z
" clip-path="url(#pf1e04d2b70)" style="fill: #a6cee3"/>
   </g>
   <g id="patch_146">
    <path d="M 678.923402 435.590864 
L 681.11556 435.590864 
L 681.11556 392.341037 
L 678.923402 392.341037 
z
" clip-path="url(#pf1e04d2b70)" style="fill: #a6cee3"/>
   </g>
   <g id="patch_147">
    <path d="M 683.307719 435.590864 
L 685.499877 435.590864 
L 685.499877 329.628788 
L 683.307719 329.628788 
z
" clip-path="url(#pf1e04d2b70)" style="fill: #a6cee3"/>
   </g>
   <g id="patch_148">
    <path d="M 687.692036 435.590864 
L 689.884194 435.590864 
L 689.884194 340.441245 
L 687.692036 340.441245 
z
" clip-path="url(#pf1e04d2b70)" style="fill: #a6cee3"/>
   </g>
   <g id="patch_149">
    <path d="M 692.076352 435.590864 
L 694.268511 435.590864 
L 694.268511 405.315985 
L 692.076352 405.315985 
z
" clip-path="url(#pf1e04d2b70)" style="fill: #a6cee3"/>
   </g>
   <g id="patch_150">
    <path d="M 696.460669 435.590864 
L 698.652828 435.590864 
L 698.652828 416.128442 
L 696.460669 416.128442 
z
" clip-path="url(#pf1e04d2b70)" style="fill: #a6cee3"/>
   </g>
   <g id="patch_151">
    <path d="M 700.844986 435.590864 
L 703.037145 435.590864 
L 703.037145 431.265881 
L 700.844986 431.265881 
z
" clip-path="url(#pf1e04d2b70)" style="fill: #a6cee3"/>
   </g>
   <g id="patch_152">
    <path d="M 705.229303 435.590864 
L 707.421462 435.590864 
L 707.421462 431.265881 
L 705.229303 431.265881 
z
" clip-path="url(#pf1e04d2b70)" style="fill: #a6cee3"/>
   </g>
   <g id="patch_153">
    <path d="M 709.61362 435.590864 
L 711.805779 435.590864 
L 711.805779 409.640968 
L 709.61362 409.640968 
z
" clip-path="url(#pf1e04d2b70)" style="fill: #a6cee3"/>
   </g>
   <g id="patch_154">
    <path d="M 713.997937 435.590864 
L 716.190096 435.590864 
L 716.190096 362.066158 
L 713.997937 362.066158 
z
" clip-path="url(#pf1e04d2b70)" style="fill: #a6cee3"/>
   </g>
   <g id="patch_155">
    <path d="M 718.382254 435.590864 
L 720.574413 435.590864 
L 720.574413 269.07903 
L 718.382254 269.07903 
z
" clip-path="url(#pf1e04d2b70)" style="fill: #a6cee3"/>
   </g>
   <g id="patch_156">
    <path d="M 722.766571 435.590864 
L 724.95873 435.590864 
L 724.95873 191.229342 
L 722.766571 191.229342 
z
" clip-path="url(#pf1e04d2b70)" style="fill: #a6cee3"/>
   </g>
   <g id="patch_157">
    <path d="M 727.150888 435.590864 
L 729.343046 435.590864 
L 729.343046 189.066851 
L 727.150888 189.066851 
z
" clip-path="url(#pf1e04d2b70)" style="fill: #a6cee3"/>
   </g>
   <g id="patch_158">
    <path d="M 731.535205 435.590864 
L 733.727363 435.590864 
L 733.727363 139.32955 
L 731.535205 139.32955 
z
" clip-path="url(#pf1e04d2b70)" style="fill: #a6cee3"/>
   </g>
   <g id="patch_159">
    <path d="M 735.919522 435.590864 
L 738.11168 435.590864 
L 738.11168 169.604429 
L 735.919522 169.604429 
z
" clip-path="url(#pf1e04d2b70)" style="fill: #a6cee3"/>
   </g>
   <g id="patch_160">
    <path d="M 740.303839 435.590864 
L 742.495997 435.590864 
L 742.495997 152.304498 
L 740.303839 152.304498 
z
" clip-path="url(#pf1e04d2b70)" style="fill: #a6cee3"/>
   </g>
   <g id="patch_161">
    <path d="M 744.688156 435.590864 
L 746.880314 435.590864 
L 746.880314 314.491349 
L 744.688156 314.491349 
z
" clip-path="url(#pf1e04d2b70)" style="fill: #a6cee3"/>
   </g>
   <g id="patch_162">
    <path d="M 749.072473 435.590864 
L 751.264631 435.590864 
L 751.264631 390.178545 
L 749.072473 390.178545 
z
" clip-path="url(#pf1e04d2b70)" style="fill: #a6cee3"/>
   </g>
   <g id="patch_163">
    <path d="M 753.45679 435.590864 
L 755.648948 435.590864 
L 755.648948 396.66602 
L 753.45679 396.66602 
z
" clip-path="url(#pf1e04d2b70)" style="fill: #a6cee3"/>
   </g>
   <g id="patch_164">
    <path d="M 757.841107 435.590864 
L 760.033265 435.590864 
L 760.033265 338.278753 
L 757.841107 338.278753 
z
" clip-path="url(#pf1e04d2b70)" style="fill: #a6cee3"/>
   </g>
   <g id="patch_165">
    <path d="M 762.225423 435.590864 
L 764.417582 435.590864 
L 764.417582 243.129134 
L 762.225423 243.129134 
z
" clip-path="url(#pf1e04d2b70)" style="fill: #a6cee3"/>
   </g>
   <g id="patch_166">
    <path d="M 766.60974 435.590864 
L 768.801899 435.590864 
L 768.801899 150.142007 
L 766.60974 150.142007 
z
" clip-path="url(#pf1e04d2b70)" style="fill: #a6cee3"/>
   </g>
   <g id="patch_167">
    <path d="M 770.994057 435.590864 
L 773.186216 435.590864 
L 773.186216 119.867128 
L 770.994057 119.867128 
z
" clip-path="url(#pf1e04d2b70)" style="fill: #a6cee3"/>
   </g>
   <g id="patch_168">
    <path d="M 775.378374 435.590864 
L 777.570533 435.590864 
L 777.570533 130.679584 
L 775.378374 130.679584 
z
" clip-path="url(#pf1e04d2b70)" style="fill: #a6cee3"/>
   </g>
   <g id="patch_169">
    <path d="M 779.762691 435.590864 
L 781.95485 435.590864 
L 781.95485 46.342422 
L 779.762691 46.342422 
z
" clip-path="url(#pf1e04d2b70)" style="fill: #a6cee3"/>
   </g>
   <g id="patch_170">
    <path d="M 784.147008 435.590864 
L 786.339167 435.590864 
L 786.339167 72.292318 
L 784.147008 72.292318 
z
" clip-path="url(#pf1e04d2b70)" style="fill: #a6cee3"/>
   </g>
   <g id="patch_171">
    <path d="M 788.531325 435.590864 
L 790.723484 435.590864 
L 790.723484 52.829896 
L 788.531325 52.829896 
z
" clip-path="url(#pf1e04d2b70)" style="fill: #a6cee3"/>
   </g>
   <g id="patch_172">
    <path d="M 792.915642 435.590864 
L 795.107801 435.590864 
L 795.107801 128.517093 
L 792.915642 128.517093 
z
" clip-path="url(#pf1e04d2b70)" style="fill: #a6cee3"/>
   </g>
   <g id="patch_173">
    <path d="M 797.299959 435.590864 
L 799.492117 435.590864 
L 799.492117 243.129134 
L 797.299959 243.129134 
z
" clip-path="url(#pf1e04d2b70)" style="fill: #a6cee3"/>
   </g>
   <g id="patch_174">
    <path d="M 801.684276 435.590864 
L 803.876434 435.590864 
L 803.876434 357.741175 
L 801.684276 357.741175 
z
" clip-path="url(#pf1e04d2b70)" style="fill: #a6cee3"/>
   </g>
   <g id="patch_175">
    <path d="M 806.068593 435.590864 
L 808.260751 435.590864 
L 808.260751 424.778407 
L 806.068593 424.778407 
z
" clip-path="url(#pf1e04d2b70)" style="fill: #a6cee3"/>
   </g>
   <g id="patch_176">
    <path d="M 810.45291 435.590864 
L 812.645068 435.590864 
L 812.645068 411.803459 
L 810.45291 411.803459 
z
" clip-path="url(#pf1e04d2b70)" style="fill: #a6cee3"/>
   </g>
   <g id="patch_177">
    <path d="M 814.837227 435.590864 
L 817.029385 435.590864 
L 817.029385 392.341037 
L 814.837227 392.341037 
z
" clip-path="url(#pf1e04d2b70)" style="fill: #a6cee3"/>
   </g>
   <g id="patch_178">
    <path d="M 819.221544 435.590864 
L 821.413702 435.590864 
L 821.413702 346.928719 
L 819.221544 346.928719 
z
" clip-path="url(#pf1e04d2b70)" style="fill: #a6cee3"/>
   </g>
   <g id="patch_179">
    <path d="M 823.605861 435.590864 
L 825.798019 435.590864 
L 825.798019 282.053978 
L 823.605861 282.053978 
z
" clip-path="url(#pf1e04d2b70)" style="fill: #a6cee3"/>
   </g>
   <g id="patch_180">
    <path d="M 827.990178 435.590864 
L 830.182336 435.590864 
L 830.182336 258.266574 
L 827.990178 258.266574 
z
" clip-path="url(#pf1e04d2b70)" style="fill: #a6cee3"/>
   </g>
   <g id="patch_181">
    <path d="M 832.374495 435.590864 
L 834.566653 435.590864 
L 834.566653 145.817024 
L 832.374495 145.817024 
z
" clip-path="url(#pf1e04d2b70)" style="fill: #a6cee3"/>
   </g>
   <g id="patch_182">
    <path d="M 836.758811 435.590864 
L 838.95097 435.590864 
L 838.95097 269.07903 
L 836.758811 269.07903 
z
" clip-path="url(#pf1e04d2b70)" style="fill: #a6cee3"/>
   </g>
   <g id="patch_183">
    <path d="M 841.143128 435.590864 
L 843.335287 435.590864 
L 843.335287 346.928719 
L 841.143128 346.928719 
z
" clip-path="url(#pf1e04d2b70)" style="fill: #a6cee3"/>
   </g>
   <g id="patch_184">
    <path d="M 845.527445 435.590864 
L 847.719604 435.590864 
L 847.719604 366.391141 
L 845.527445 366.391141 
z
" clip-path="url(#pf1e04d2b70)" style="fill: #a6cee3"/>
   </g>
   <g id="patch_185">
    <path d="M 849.911762 435.590864 
L 852.103921 435.590864 
L 852.103921 388.016054 
L 849.911762 388.016054 
z
" clip-path="url(#pf1e04d2b70)" style="fill: #a6cee3"/>
   </g>
   <g id="matplotlib.axis_1">
    <g id="xtick_1">
     <g id="line2d_1">
      <defs>
       <path id="mf1020af2fa" d="M 0 0 
L 0 3.5 
" style="stroke: #000000; stroke-width: 0.8"/>
      </defs>
      <g>
       <use xlink:href="#mf1020af2fa" x="53.062158" y="435.590864" style="stroke: #000000; stroke-width: 0.8"/>
      </g>
     </g>
     <g id="text_1">
      <!-- 2010-05 -->
      <g transform="translate(22.046687 477.50868) rotate(-45) scale(0.1 -0.1)">
       <defs>
        <path id="DejaVuSans-32" d="M 1228 531 
L 3431 531 
L 3431 0 
L 469 0 
L 469 531 
Q 828 903 1448 1529 
Q 2069 2156 2228 2338 
Q 2531 2678 2651 2914 
Q 2772 3150 2772 3378 
Q 2772 3750 2511 3984 
Q 2250 4219 1831 4219 
Q 1534 4219 1204 4116 
Q 875 4013 500 3803 
L 500 4441 
Q 881 4594 1212 4672 
Q 1544 4750 1819 4750 
Q 2544 4750 2975 4387 
Q 3406 4025 3406 3419 
Q 3406 3131 3298 2873 
Q 3191 2616 2906 2266 
Q 2828 2175 2409 1742 
Q 1991 1309 1228 531 
z
" transform="scale(0.015625)"/>
        <path id="DejaVuSans-30" d="M 2034 4250 
Q 1547 4250 1301 3770 
Q 1056 3291 1056 2328 
Q 1056 1369 1301 889 
Q 1547 409 2034 409 
Q 2525 409 2770 889 
Q 3016 1369 3016 2328 
Q 3016 3291 2770 3770 
Q 2525 4250 2034 4250 
z
M 2034 4750 
Q 2819 4750 3233 4129 
Q 3647 3509 3647 2328 
Q 3647 1150 3233 529 
Q 2819 -91 2034 -91 
Q 1250 -91 836 529 
Q 422 1150 422 2328 
Q 422 3509 836 4129 
Q 1250 4750 2034 4750 
z
" transform="scale(0.015625)"/>
        <path id="DejaVuSans-31" d="M 794 531 
L 1825 531 
L 1825 4091 
L 703 3866 
L 703 4441 
L 1819 4666 
L 2450 4666 
L 2450 531 
L 3481 531 
L 3481 0 
L 794 0 
L 794 531 
z
" transform="scale(0.015625)"/>
        <path id="DejaVuSans-2d" d="M 313 2009 
L 1997 2009 
L 1997 1497 
L 313 1497 
L 313 2009 
z
" transform="scale(0.015625)"/>
        <path id="DejaVuSans-35" d="M 691 4666 
L 3169 4666 
L 3169 4134 
L 1269 4134 
L 1269 2991 
Q 1406 3038 1543 3061 
Q 1681 3084 1819 3084 
Q 2600 3084 3056 2656 
Q 3513 2228 3513 1497 
Q 3513 744 3044 326 
Q 2575 -91 1722 -91 
Q 1428 -91 1123 -41 
Q 819 9 494 109 
L 494 744 
Q 775 591 1075 516 
Q 1375 441 1709 441 
Q 2250 441 2565 725 
Q 2881 1009 2881 1497 
Q 2881 1984 2565 2268 
Q 2250 2553 1709 2553 
Q 1456 2553 1204 2497 
Q 953 2441 691 2322 
L 691 4666 
z
" transform="scale(0.015625)"/>
       </defs>
       <use xlink:href="#DejaVuSans-32"/>
       <use xlink:href="#DejaVuSans-30" transform="translate(63.623047 0)"/>
       <use xlink:href="#DejaVuSans-31" transform="translate(127.246094 0)"/>
       <use xlink:href="#DejaVuSans-30" transform="translate(190.869141 0)"/>
       <use xlink:href="#DejaVuSans-2d" transform="translate(254.492188 0)"/>
       <use xlink:href="#DejaVuSans-30" transform="translate(290.576172 0)"/>
       <use xlink:href="#DejaVuSans-35" transform="translate(354.199219 0)"/>
      </g>
     </g>
    </g>
    <g id="xtick_2">
     <g id="line2d_2">
      <g>
       <use xlink:href="#mf1020af2fa" x="83.752377" y="435.590864" style="stroke: #000000; stroke-width: 0.8"/>
      </g>
     </g>
     <g id="text_2">
      <!-- 2010-12 -->
      <g transform="translate(52.736906 477.50868) rotate(-45) scale(0.1 -0.1)">
       <use xlink:href="#DejaVuSans-32"/>
       <use xlink:href="#DejaVuSans-30" transform="translate(63.623047 0)"/>
       <use xlink:href="#DejaVuSans-31" transform="translate(127.246094 0)"/>
       <use xlink:href="#DejaVuSans-30" transform="translate(190.869141 0)"/>
       <use xlink:href="#DejaVuSans-2d" transform="translate(254.492188 0)"/>
       <use xlink:href="#DejaVuSans-31" transform="translate(290.576172 0)"/>
       <use xlink:href="#DejaVuSans-32" transform="translate(354.199219 0)"/>
      </g>
     </g>
    </g>
    <g id="xtick_3">
     <g id="line2d_3">
      <g>
       <use xlink:href="#mf1020af2fa" x="114.442596" y="435.590864" style="stroke: #000000; stroke-width: 0.8"/>
      </g>
     </g>
     <g id="text_3">
      <!-- 2011-07 -->
      <g transform="translate(83.427124 477.50868) rotate(-45) scale(0.1 -0.1)">
       <defs>
        <path id="DejaVuSans-37" d="M 525 4666 
L 3525 4666 
L 3525 4397 
L 1831 0 
L 1172 0 
L 2766 4134 
L 525 4134 
L 525 4666 
z
" transform="scale(0.015625)"/>
       </defs>
       <use xlink:href="#DejaVuSans-32"/>
       <use xlink:href="#DejaVuSans-30" transform="translate(63.623047 0)"/>
       <use xlink:href="#DejaVuSans-31" transform="translate(127.246094 0)"/>
       <use xlink:href="#DejaVuSans-31" transform="translate(190.869141 0)"/>
       <use xlink:href="#DejaVuSans-2d" transform="translate(254.492188 0)"/>
       <use xlink:href="#DejaVuSans-30" transform="translate(290.576172 0)"/>
       <use xlink:href="#DejaVuSans-37" transform="translate(354.199219 0)"/>
      </g>
     </g>
    </g>
    <g id="xtick_4">
     <g id="line2d_4">
      <g>
       <use xlink:href="#mf1020af2fa" x="145.132814" y="435.590864" style="stroke: #000000; stroke-width: 0.8"/>
      </g>
     </g>
     <g id="text_4">
      <!-- 2012-02 -->
      <g transform="translate(114.117343 477.50868) rotate(-45) scale(0.1 -0.1)">
       <use xlink:href="#DejaVuSans-32"/>
       <use xlink:href="#DejaVuSans-30" transform="translate(63.623047 0)"/>
       <use xlink:href="#DejaVuSans-31" transform="translate(127.246094 0)"/>
       <use xlink:href="#DejaVuSans-32" transform="translate(190.869141 0)"/>
       <use xlink:href="#DejaVuSans-2d" transform="translate(254.492188 0)"/>
       <use xlink:href="#DejaVuSans-30" transform="translate(290.576172 0)"/>
       <use xlink:href="#DejaVuSans-32" transform="translate(354.199219 0)"/>
      </g>
     </g>
    </g>
    <g id="xtick_5">
     <g id="line2d_5">
      <g>
       <use xlink:href="#mf1020af2fa" x="175.823033" y="435.590864" style="stroke: #000000; stroke-width: 0.8"/>
      </g>
     </g>
     <g id="text_5">
      <!-- 2012-09 -->
      <g transform="translate(144.807562 477.50868) rotate(-45) scale(0.1 -0.1)">
       <defs>
        <path id="DejaVuSans-39" d="M 703 97 
L 703 672 
Q 941 559 1184 500 
Q 1428 441 1663 441 
Q 2288 441 2617 861 
Q 2947 1281 2994 2138 
Q 2813 1869 2534 1725 
Q 2256 1581 1919 1581 
Q 1219 1581 811 2004 
Q 403 2428 403 3163 
Q 403 3881 828 4315 
Q 1253 4750 1959 4750 
Q 2769 4750 3195 4129 
Q 3622 3509 3622 2328 
Q 3622 1225 3098 567 
Q 2575 -91 1691 -91 
Q 1453 -91 1209 -44 
Q 966 3 703 97 
z
M 1959 2075 
Q 2384 2075 2632 2365 
Q 2881 2656 2881 3163 
Q 2881 3666 2632 3958 
Q 2384 4250 1959 4250 
Q 1534 4250 1286 3958 
Q 1038 3666 1038 3163 
Q 1038 2656 1286 2365 
Q 1534 2075 1959 2075 
z
" transform="scale(0.015625)"/>
       </defs>
       <use xlink:href="#DejaVuSans-32"/>
       <use xlink:href="#DejaVuSans-30" transform="translate(63.623047 0)"/>
       <use xlink:href="#DejaVuSans-31" transform="translate(127.246094 0)"/>
       <use xlink:href="#DejaVuSans-32" transform="translate(190.869141 0)"/>
       <use xlink:href="#DejaVuSans-2d" transform="translate(254.492188 0)"/>
       <use xlink:href="#DejaVuSans-30" transform="translate(290.576172 0)"/>
       <use xlink:href="#DejaVuSans-39" transform="translate(354.199219 0)"/>
      </g>
     </g>
    </g>
    <g id="xtick_6">
     <g id="line2d_6">
      <g>
       <use xlink:href="#mf1020af2fa" x="206.513251" y="435.590864" style="stroke: #000000; stroke-width: 0.8"/>
      </g>
     </g>
     <g id="text_6">
      <!-- 2013-04 -->
      <g transform="translate(175.49778 477.50868) rotate(-45) scale(0.1 -0.1)">
       <defs>
        <path id="DejaVuSans-33" d="M 2597 2516 
Q 3050 2419 3304 2112 
Q 3559 1806 3559 1356 
Q 3559 666 3084 287 
Q 2609 -91 1734 -91 
Q 1441 -91 1130 -33 
Q 819 25 488 141 
L 488 750 
Q 750 597 1062 519 
Q 1375 441 1716 441 
Q 2309 441 2620 675 
Q 2931 909 2931 1356 
Q 2931 1769 2642 2001 
Q 2353 2234 1838 2234 
L 1294 2234 
L 1294 2753 
L 1863 2753 
Q 2328 2753 2575 2939 
Q 2822 3125 2822 3475 
Q 2822 3834 2567 4026 
Q 2313 4219 1838 4219 
Q 1578 4219 1281 4162 
Q 984 4106 628 3988 
L 628 4550 
Q 988 4650 1302 4700 
Q 1616 4750 1894 4750 
Q 2613 4750 3031 4423 
Q 3450 4097 3450 3541 
Q 3450 3153 3228 2886 
Q 3006 2619 2597 2516 
z
" transform="scale(0.015625)"/>
        <path id="DejaVuSans-34" d="M 2419 4116 
L 825 1625 
L 2419 1625 
L 2419 4116 
z
M 2253 4666 
L 3047 4666 
L 3047 1625 
L 3713 1625 
L 3713 1100 
L 3047 1100 
L 3047 0 
L 2419 0 
L 2419 1100 
L 313 1100 
L 313 1709 
L 2253 4666 
z
" transform="scale(0.015625)"/>
       </defs>
       <use xlink:href="#DejaVuSans-32"/>
       <use xlink:href="#DejaVuSans-30" transform="translate(63.623047 0)"/>
       <use xlink:href="#DejaVuSans-31" transform="translate(127.246094 0)"/>
       <use xlink:href="#DejaVuSans-33" transform="translate(190.869141 0)"/>
       <use xlink:href="#DejaVuSans-2d" transform="translate(254.492188 0)"/>
       <use xlink:href="#DejaVuSans-30" transform="translate(290.576172 0)"/>
       <use xlink:href="#DejaVuSans-34" transform="translate(354.199219 0)"/>
      </g>
     </g>
    </g>
    <g id="xtick_7">
     <g id="line2d_7">
      <g>
       <use xlink:href="#mf1020af2fa" x="237.20347" y="435.590864" style="stroke: #000000; stroke-width: 0.8"/>
      </g>
     </g>
     <g id="text_7">
      <!-- 2013-11 -->
      <g transform="translate(206.187999 477.50868) rotate(-45) scale(0.1 -0.1)">
       <use xlink:href="#DejaVuSans-32"/>
       <use xlink:href="#DejaVuSans-30" transform="translate(63.623047 0)"/>
       <use xlink:href="#DejaVuSans-31" transform="translate(127.246094 0)"/>
       <use xlink:href="#DejaVuSans-33" transform="translate(190.869141 0)"/>
       <use xlink:href="#DejaVuSans-2d" transform="translate(254.492188 0)"/>
       <use xlink:href="#DejaVuSans-31" transform="translate(290.576172 0)"/>
       <use xlink:href="#DejaVuSans-31" transform="translate(354.199219 0)"/>
      </g>
     </g>
    </g>
    <g id="xtick_8">
     <g id="line2d_8">
      <g>
       <use xlink:href="#mf1020af2fa" x="267.893689" y="435.590864" style="stroke: #000000; stroke-width: 0.8"/>
      </g>
     </g>
     <g id="text_8">
      <!-- 2014-06 -->
      <g transform="translate(236.878217 477.50868) rotate(-45) scale(0.1 -0.1)">
       <defs>
        <path id="DejaVuSans-36" d="M 2113 2584 
Q 1688 2584 1439 2293 
Q 1191 2003 1191 1497 
Q 1191 994 1439 701 
Q 1688 409 2113 409 
Q 2538 409 2786 701 
Q 3034 994 3034 1497 
Q 3034 2003 2786 2293 
Q 2538 2584 2113 2584 
z
M 3366 4563 
L 3366 3988 
Q 3128 4100 2886 4159 
Q 2644 4219 2406 4219 
Q 1781 4219 1451 3797 
Q 1122 3375 1075 2522 
Q 1259 2794 1537 2939 
Q 1816 3084 2150 3084 
Q 2853 3084 3261 2657 
Q 3669 2231 3669 1497 
Q 3669 778 3244 343 
Q 2819 -91 2113 -91 
Q 1303 -91 875 529 
Q 447 1150 447 2328 
Q 447 3434 972 4092 
Q 1497 4750 2381 4750 
Q 2619 4750 2861 4703 
Q 3103 4656 3366 4563 
z
" transform="scale(0.015625)"/>
       </defs>
       <use xlink:href="#DejaVuSans-32"/>
       <use xlink:href="#DejaVuSans-30" transform="translate(63.623047 0)"/>
       <use xlink:href="#DejaVuSans-31" transform="translate(127.246094 0)"/>
       <use xlink:href="#DejaVuSans-34" transform="translate(190.869141 0)"/>
       <use xlink:href="#DejaVuSans-2d" transform="translate(254.492188 0)"/>
       <use xlink:href="#DejaVuSans-30" transform="translate(290.576172 0)"/>
       <use xlink:href="#DejaVuSans-36" transform="translate(354.199219 0)"/>
      </g>
     </g>
    </g>
    <g id="xtick_9">
     <g id="line2d_9">
      <g>
       <use xlink:href="#mf1020af2fa" x="298.583907" y="435.590864" style="stroke: #000000; stroke-width: 0.8"/>
      </g>
     </g>
     <g id="text_9">
      <!-- 2015-01 -->
      <g transform="translate(267.568436 477.50868) rotate(-45) scale(0.1 -0.1)">
       <use xlink:href="#DejaVuSans-32"/>
       <use xlink:href="#DejaVuSans-30" transform="translate(63.623047 0)"/>
       <use xlink:href="#DejaVuSans-31" transform="translate(127.246094 0)"/>
       <use xlink:href="#DejaVuSans-35" transform="translate(190.869141 0)"/>
       <use xlink:href="#DejaVuSans-2d" transform="translate(254.492188 0)"/>
       <use xlink:href="#DejaVuSans-30" transform="translate(290.576172 0)"/>
       <use xlink:href="#DejaVuSans-31" transform="translate(354.199219 0)"/>
      </g>
     </g>
    </g>
    <g id="xtick_10">
     <g id="line2d_10">
      <g>
       <use xlink:href="#mf1020af2fa" x="329.274126" y="435.590864" style="stroke: #000000; stroke-width: 0.8"/>
      </g>
     </g>
     <g id="text_10">
      <!-- 2015-08 -->
      <g transform="translate(298.258654 477.50868) rotate(-45) scale(0.1 -0.1)">
       <defs>
        <path id="DejaVuSans-38" d="M 2034 2216 
Q 1584 2216 1326 1975 
Q 1069 1734 1069 1313 
Q 1069 891 1326 650 
Q 1584 409 2034 409 
Q 2484 409 2743 651 
Q 3003 894 3003 1313 
Q 3003 1734 2745 1975 
Q 2488 2216 2034 2216 
z
M 1403 2484 
Q 997 2584 770 2862 
Q 544 3141 544 3541 
Q 544 4100 942 4425 
Q 1341 4750 2034 4750 
Q 2731 4750 3128 4425 
Q 3525 4100 3525 3541 
Q 3525 3141 3298 2862 
Q 3072 2584 2669 2484 
Q 3125 2378 3379 2068 
Q 3634 1759 3634 1313 
Q 3634 634 3220 271 
Q 2806 -91 2034 -91 
Q 1263 -91 848 271 
Q 434 634 434 1313 
Q 434 1759 690 2068 
Q 947 2378 1403 2484 
z
M 1172 3481 
Q 1172 3119 1398 2916 
Q 1625 2713 2034 2713 
Q 2441 2713 2670 2916 
Q 2900 3119 2900 3481 
Q 2900 3844 2670 4047 
Q 2441 4250 2034 4250 
Q 1625 4250 1398 4047 
Q 1172 3844 1172 3481 
z
" transform="scale(0.015625)"/>
       </defs>
       <use xlink:href="#DejaVuSans-32"/>
       <use xlink:href="#DejaVuSans-30" transform="translate(63.623047 0)"/>
       <use xlink:href="#DejaVuSans-31" transform="translate(127.246094 0)"/>
       <use xlink:href="#DejaVuSans-35" transform="translate(190.869141 0)"/>
       <use xlink:href="#DejaVuSans-2d" transform="translate(254.492188 0)"/>
       <use xlink:href="#DejaVuSans-30" transform="translate(290.576172 0)"/>
       <use xlink:href="#DejaVuSans-38" transform="translate(354.199219 0)"/>
      </g>
     </g>
    </g>
    <g id="xtick_11">
     <g id="line2d_11">
      <g>
       <use xlink:href="#mf1020af2fa" x="359.964344" y="435.590864" style="stroke: #000000; stroke-width: 0.8"/>
      </g>
     </g>
     <g id="text_11">
      <!-- 2016-03 -->
      <g transform="translate(328.948873 477.50868) rotate(-45) scale(0.1 -0.1)">
       <use xlink:href="#DejaVuSans-32"/>
       <use xlink:href="#DejaVuSans-30" transform="translate(63.623047 0)"/>
       <use xlink:href="#DejaVuSans-31" transform="translate(127.246094 0)"/>
       <use xlink:href="#DejaVuSans-36" transform="translate(190.869141 0)"/>
       <use xlink:href="#DejaVuSans-2d" transform="translate(254.492188 0)"/>
       <use xlink:href="#DejaVuSans-30" transform="translate(290.576172 0)"/>
       <use xlink:href="#DejaVuSans-33" transform="translate(354.199219 0)"/>
      </g>
     </g>
    </g>
    <g id="xtick_12">
     <g id="line2d_12">
      <g>
       <use xlink:href="#mf1020af2fa" x="390.654563" y="435.590864" style="stroke: #000000; stroke-width: 0.8"/>
      </g>
     </g>
     <g id="text_12">
      <!-- 2016-10 -->
      <g transform="translate(359.639092 477.50868) rotate(-45) scale(0.1 -0.1)">
       <use xlink:href="#DejaVuSans-32"/>
       <use xlink:href="#DejaVuSans-30" transform="translate(63.623047 0)"/>
       <use xlink:href="#DejaVuSans-31" transform="translate(127.246094 0)"/>
       <use xlink:href="#DejaVuSans-36" transform="translate(190.869141 0)"/>
       <use xlink:href="#DejaVuSans-2d" transform="translate(254.492188 0)"/>
       <use xlink:href="#DejaVuSans-31" transform="translate(290.576172 0)"/>
       <use xlink:href="#DejaVuSans-30" transform="translate(354.199219 0)"/>
      </g>
     </g>
    </g>
    <g id="xtick_13">
     <g id="line2d_13">
      <g>
       <use xlink:href="#mf1020af2fa" x="421.344781" y="435.590864" style="stroke: #000000; stroke-width: 0.8"/>
      </g>
     </g>
     <g id="text_13">
      <!-- 2017-05 -->
      <g transform="translate(390.32931 477.50868) rotate(-45) scale(0.1 -0.1)">
       <use xlink:href="#DejaVuSans-32"/>
       <use xlink:href="#DejaVuSans-30" transform="translate(63.623047 0)"/>
       <use xlink:href="#DejaVuSans-31" transform="translate(127.246094 0)"/>
       <use xlink:href="#DejaVuSans-37" transform="translate(190.869141 0)"/>
       <use xlink:href="#DejaVuSans-2d" transform="translate(254.492188 0)"/>
       <use xlink:href="#DejaVuSans-30" transform="translate(290.576172 0)"/>
       <use xlink:href="#DejaVuSans-35" transform="translate(354.199219 0)"/>
      </g>
     </g>
    </g>
    <g id="xtick_14">
     <g id="line2d_14">
      <g>
       <use xlink:href="#mf1020af2fa" x="452.035" y="435.590864" style="stroke: #000000; stroke-width: 0.8"/>
      </g>
     </g>
     <g id="text_14">
      <!-- 2017-12 -->
      <g transform="translate(421.019529 477.50868) rotate(-45) scale(0.1 -0.1)">
       <use xlink:href="#DejaVuSans-32"/>
       <use xlink:href="#DejaVuSans-30" transform="translate(63.623047 0)"/>
       <use xlink:href="#DejaVuSans-31" transform="translate(127.246094 0)"/>
       <use xlink:href="#DejaVuSans-37" transform="translate(190.869141 0)"/>
       <use xlink:href="#DejaVuSans-2d" transform="translate(254.492188 0)"/>
       <use xlink:href="#DejaVuSans-31" transform="translate(290.576172 0)"/>
       <use xlink:href="#DejaVuSans-32" transform="translate(354.199219 0)"/>
      </g>
     </g>
    </g>
    <g id="xtick_15">
     <g id="line2d_15">
      <g>
       <use xlink:href="#mf1020af2fa" x="482.725219" y="435.590864" style="stroke: #000000; stroke-width: 0.8"/>
      </g>
     </g>
     <g id="text_15">
      <!-- 2018-07 -->
      <g transform="translate(451.709747 477.50868) rotate(-45) scale(0.1 -0.1)">
       <use xlink:href="#DejaVuSans-32"/>
       <use xlink:href="#DejaVuSans-30" transform="translate(63.623047 0)"/>
       <use xlink:href="#DejaVuSans-31" transform="translate(127.246094 0)"/>
       <use xlink:href="#DejaVuSans-38" transform="translate(190.869141 0)"/>
       <use xlink:href="#DejaVuSans-2d" transform="translate(254.492188 0)"/>
       <use xlink:href="#DejaVuSans-30" transform="translate(290.576172 0)"/>
       <use xlink:href="#DejaVuSans-37" transform="translate(354.199219 0)"/>
      </g>
     </g>
    </g>
    <g id="xtick_16">
     <g id="line2d_16">
      <g>
       <use xlink:href="#mf1020af2fa" x="513.415437" y="435.590864" style="stroke: #000000; stroke-width: 0.8"/>
      </g>
     </g>
     <g id="text_16">
      <!-- 2019-02 -->
      <g transform="translate(482.399966 477.50868) rotate(-45) scale(0.1 -0.1)">
       <use xlink:href="#DejaVuSans-32"/>
       <use xlink:href="#DejaVuSans-30" transform="translate(63.623047 0)"/>
       <use xlink:href="#DejaVuSans-31" transform="translate(127.246094 0)"/>
       <use xlink:href="#DejaVuSans-39" transform="translate(190.869141 0)"/>
       <use xlink:href="#DejaVuSans-2d" transform="translate(254.492188 0)"/>
       <use xlink:href="#DejaVuSans-30" transform="translate(290.576172 0)"/>
       <use xlink:href="#DejaVuSans-32" transform="translate(354.199219 0)"/>
      </g>
     </g>
    </g>
    <g id="xtick_17">
     <g id="line2d_17">
      <g>
       <use xlink:href="#mf1020af2fa" x="544.105656" y="435.590864" style="stroke: #000000; stroke-width: 0.8"/>
      </g>
     </g>
     <g id="text_17">
      <!-- 2019-09 -->
      <g transform="translate(513.090185 477.50868) rotate(-45) scale(0.1 -0.1)">
       <use xlink:href="#DejaVuSans-32"/>
       <use xlink:href="#DejaVuSans-30" transform="translate(63.623047 0)"/>
       <use xlink:href="#DejaVuSans-31" transform="translate(127.246094 0)"/>
       <use xlink:href="#DejaVuSans-39" transform="translate(190.869141 0)"/>
       <use xlink:href="#DejaVuSans-2d" transform="translate(254.492188 0)"/>
       <use xlink:href="#DejaVuSans-30" transform="translate(290.576172 0)"/>
       <use xlink:href="#DejaVuSans-39" transform="translate(354.199219 0)"/>
      </g>
     </g>
    </g>
    <g id="xtick_18">
     <g id="line2d_18">
      <g>
       <use xlink:href="#mf1020af2fa" x="574.795874" y="435.590864" style="stroke: #000000; stroke-width: 0.8"/>
      </g>
     </g>
     <g id="text_18">
      <!-- 2020-04 -->
      <g transform="translate(543.780403 477.50868) rotate(-45) scale(0.1 -0.1)">
       <use xlink:href="#DejaVuSans-32"/>
       <use xlink:href="#DejaVuSans-30" transform="translate(63.623047 0)"/>
       <use xlink:href="#DejaVuSans-32" transform="translate(127.246094 0)"/>
       <use xlink:href="#DejaVuSans-30" transform="translate(190.869141 0)"/>
       <use xlink:href="#DejaVuSans-2d" transform="translate(254.492188 0)"/>
       <use xlink:href="#DejaVuSans-30" transform="translate(290.576172 0)"/>
       <use xlink:href="#DejaVuSans-34" transform="translate(354.199219 0)"/>
      </g>
     </g>
    </g>
    <g id="xtick_19">
     <g id="line2d_19">
      <g>
       <use xlink:href="#mf1020af2fa" x="605.486093" y="435.590864" style="stroke: #000000; stroke-width: 0.8"/>
      </g>
     </g>
     <g id="text_19">
      <!-- 2020-11 -->
      <g transform="translate(574.470622 477.50868) rotate(-45) scale(0.1 -0.1)">
       <use xlink:href="#DejaVuSans-32"/>
       <use xlink:href="#DejaVuSans-30" transform="translate(63.623047 0)"/>
       <use xlink:href="#DejaVuSans-32" transform="translate(127.246094 0)"/>
       <use xlink:href="#DejaVuSans-30" transform="translate(190.869141 0)"/>
       <use xlink:href="#DejaVuSans-2d" transform="translate(254.492188 0)"/>
       <use xlink:href="#DejaVuSans-31" transform="translate(290.576172 0)"/>
       <use xlink:href="#DejaVuSans-31" transform="translate(354.199219 0)"/>
      </g>
     </g>
    </g>
    <g id="xtick_20">
     <g id="line2d_20">
      <g>
       <use xlink:href="#mf1020af2fa" x="636.176311" y="435.590864" style="stroke: #000000; stroke-width: 0.8"/>
      </g>
     </g>
     <g id="text_20">
      <!-- 2021-06 -->
      <g transform="translate(605.16084 477.50868) rotate(-45) scale(0.1 -0.1)">
       <use xlink:href="#DejaVuSans-32"/>
       <use xlink:href="#DejaVuSans-30" transform="translate(63.623047 0)"/>
       <use xlink:href="#DejaVuSans-32" transform="translate(127.246094 0)"/>
       <use xlink:href="#DejaVuSans-31" transform="translate(190.869141 0)"/>
       <use xlink:href="#DejaVuSans-2d" transform="translate(254.492188 0)"/>
       <use xlink:href="#DejaVuSans-30" transform="translate(290.576172 0)"/>
       <use xlink:href="#DejaVuSans-36" transform="translate(354.199219 0)"/>
      </g>
     </g>
    </g>
    <g id="xtick_21">
     <g id="line2d_21">
      <g>
       <use xlink:href="#mf1020af2fa" x="666.86653" y="435.590864" style="stroke: #000000; stroke-width: 0.8"/>
      </g>
     </g>
     <g id="text_21">
      <!-- 2022-01 -->
      <g transform="translate(635.851059 477.50868) rotate(-45) scale(0.1 -0.1)">
       <use xlink:href="#DejaVuSans-32"/>
       <use xlink:href="#DejaVuSans-30" transform="translate(63.623047 0)"/>
       <use xlink:href="#DejaVuSans-32" transform="translate(127.246094 0)"/>
       <use xlink:href="#DejaVuSans-32" transform="translate(190.869141 0)"/>
       <use xlink:href="#DejaVuSans-2d" transform="translate(254.492188 0)"/>
       <use xlink:href="#DejaVuSans-30" transform="translate(290.576172 0)"/>
       <use xlink:href="#DejaVuSans-31" transform="translate(354.199219 0)"/>
      </g>
     </g>
    </g>
    <g id="xtick_22">
     <g id="line2d_22">
      <g>
       <use xlink:href="#mf1020af2fa" x="697.556749" y="435.590864" style="stroke: #000000; stroke-width: 0.8"/>
      </g>
     </g>
     <g id="text_22">
      <!-- 2022-08 -->
      <g transform="translate(666.541277 477.50868) rotate(-45) scale(0.1 -0.1)">
       <use xlink:href="#DejaVuSans-32"/>
       <use xlink:href="#DejaVuSans-30" transform="translate(63.623047 0)"/>
       <use xlink:href="#DejaVuSans-32" transform="translate(127.246094 0)"/>
       <use xlink:href="#DejaVuSans-32" transform="translate(190.869141 0)"/>
       <use xlink:href="#DejaVuSans-2d" transform="translate(254.492188 0)"/>
       <use xlink:href="#DejaVuSans-30" transform="translate(290.576172 0)"/>
       <use xlink:href="#DejaVuSans-38" transform="translate(354.199219 0)"/>
      </g>
     </g>
    </g>
    <g id="xtick_23">
     <g id="line2d_23">
      <g>
       <use xlink:href="#mf1020af2fa" x="728.246967" y="435.590864" style="stroke: #000000; stroke-width: 0.8"/>
      </g>
     </g>
     <g id="text_23">
      <!-- 2023-03 -->
      <g transform="translate(697.231496 477.50868) rotate(-45) scale(0.1 -0.1)">
       <use xlink:href="#DejaVuSans-32"/>
       <use xlink:href="#DejaVuSans-30" transform="translate(63.623047 0)"/>
       <use xlink:href="#DejaVuSans-32" transform="translate(127.246094 0)"/>
       <use xlink:href="#DejaVuSans-33" transform="translate(190.869141 0)"/>
       <use xlink:href="#DejaVuSans-2d" transform="translate(254.492188 0)"/>
       <use xlink:href="#DejaVuSans-30" transform="translate(290.576172 0)"/>
       <use xlink:href="#DejaVuSans-33" transform="translate(354.199219 0)"/>
      </g>
     </g>
    </g>
    <g id="xtick_24">
     <g id="line2d_24">
      <g>
       <use xlink:href="#mf1020af2fa" x="758.937186" y="435.590864" style="stroke: #000000; stroke-width: 0.8"/>
      </g>
     </g>
     <g id="text_24">
      <!-- 2023-10 -->
      <g transform="translate(727.921715 477.50868) rotate(-45) scale(0.1 -0.1)">
       <use xlink:href="#DejaVuSans-32"/>
       <use xlink:href="#DejaVuSans-30" transform="translate(63.623047 0)"/>
       <use xlink:href="#DejaVuSans-32" transform="translate(127.246094 0)"/>
       <use xlink:href="#DejaVuSans-33" transform="translate(190.869141 0)"/>
       <use xlink:href="#DejaVuSans-2d" transform="translate(254.492188 0)"/>
       <use xlink:href="#DejaVuSans-31" transform="translate(290.576172 0)"/>
       <use xlink:href="#DejaVuSans-30" transform="translate(354.199219 0)"/>
      </g>
     </g>
    </g>
    <g id="xtick_25">
     <g id="line2d_25">
      <g>
       <use xlink:href="#mf1020af2fa" x="789.627404" y="435.590864" style="stroke: #000000; stroke-width: 0.8"/>
      </g>
     </g>
     <g id="text_25">
      <!-- 2024-05 -->
      <g transform="translate(758.611933 477.50868) rotate(-45) scale(0.1 -0.1)">
       <use xlink:href="#DejaVuSans-32"/>
       <use xlink:href="#DejaVuSans-30" transform="translate(63.623047 0)"/>
       <use xlink:href="#DejaVuSans-32" transform="translate(127.246094 0)"/>
       <use xlink:href="#DejaVuSans-34" transform="translate(190.869141 0)"/>
       <use xlink:href="#DejaVuSans-2d" transform="translate(254.492188 0)"/>
       <use xlink:href="#DejaVuSans-30" transform="translate(290.576172 0)"/>
       <use xlink:href="#DejaVuSans-35" transform="translate(354.199219 0)"/>
      </g>
     </g>
    </g>
    <g id="xtick_26">
     <g id="line2d_26">
      <g>
       <use xlink:href="#mf1020af2fa" x="820.317623" y="435.590864" style="stroke: #000000; stroke-width: 0.8"/>
      </g>
     </g>
     <g id="text_26">
      <!-- 2024-12 -->
      <g transform="translate(789.302152 477.50868) rotate(-45) scale(0.1 -0.1)">
       <use xlink:href="#DejaVuSans-32"/>
       <use xlink:href="#DejaVuSans-30" transform="translate(63.623047 0)"/>
       <use xlink:href="#DejaVuSans-32" transform="translate(127.246094 0)"/>
       <use xlink:href="#DejaVuSans-34" transform="translate(190.869141 0)"/>
       <use xlink:href="#DejaVuSans-2d" transform="translate(254.492188 0)"/>
       <use xlink:href="#DejaVuSans-31" transform="translate(290.576172 0)"/>
       <use xlink:href="#DejaVuSans-32" transform="translate(354.199219 0)"/>
      </g>
     </g>
    </g>
    <g id="xtick_27">
     <g id="line2d_27">
      <g>
       <use xlink:href="#mf1020af2fa" x="851.007842" y="435.590864" style="stroke: #000000; stroke-width: 0.8"/>
      </g>
     </g>
     <g id="text_27">
      <!-- 2025-07 -->
      <g transform="translate(819.99237 477.50868) rotate(-45) scale(0.1 -0.1)">
       <use xlink:href="#DejaVuSans-32"/>
       <use xlink:href="#DejaVuSans-30" transform="translate(63.623047 0)"/>
       <use xlink:href="#DejaVuSans-32" transform="translate(127.246094 0)"/>
       <use xlink:href="#DejaVuSans-35" transform="translate(190.869141 0)"/>
       <use xlink:href="#DejaVuSans-2d" transform="translate(254.492188 0)"/>
       <use xlink:href="#DejaVuSans-30" transform="translate(290.576172 0)"/>
       <use xlink:href="#DejaVuSans-37" transform="translate(354.199219 0)"/>
      </g>
     </g>
    </g>
    <g id="text_28">
     <!-- Year and Month -->
     <g transform="translate(413.19125 490.577679) scale(0.1 -0.1)">
      <defs>
       <path id="DejaVuSans-59" d="M -13 4666 
L 666 4666 
L 1959 2747 
L 3244 4666 
L 3922 4666 
L 2272 2222 
L 2272 0 
L 1638 0 
L 1638 2222 
L -13 4666 
z
" transform="scale(0.015625)"/>
       <path id="DejaVuSans-65" d="M 3597 1894 
L 3597 1613 
L 953 1613 
Q 991 1019 1311 708 
Q 1631 397 2203 397 
Q 2534 397 2845 478 
Q 3156 559 3463 722 
L 3463 178 
Q 3153 47 2828 -22 
Q 2503 -91 2169 -91 
Q 1331 -91 842 396 
Q 353 884 353 1716 
Q 353 2575 817 3079 
Q 1281 3584 2069 3584 
Q 2775 3584 3186 3129 
Q 3597 2675 3597 1894 
z
M 3022 2063 
Q 3016 2534 2758 2815 
Q 2500 3097 2075 3097 
Q 1594 3097 1305 2825 
Q 1016 2553 972 2059 
L 3022 2063 
z
" transform="scale(0.015625)"/>
       <path id="DejaVuSans-61" d="M 2194 1759 
Q 1497 1759 1228 1600 
Q 959 1441 959 1056 
Q 959 750 1161 570 
Q 1363 391 1709 391 
Q 2188 391 2477 730 
Q 2766 1069 2766 1631 
L 2766 1759 
L 2194 1759 
z
M 3341 1997 
L 3341 0 
L 2766 0 
L 2766 531 
Q 2569 213 2275 61 
Q 1981 -91 1556 -91 
Q 1019 -91 701 211 
Q 384 513 384 1019 
Q 384 1609 779 1909 
Q 1175 2209 1959 2209 
L 2766 2209 
L 2766 2266 
Q 2766 2663 2505 2880 
Q 2244 3097 1772 3097 
Q 1472 3097 1187 3025 
Q 903 2953 641 2809 
L 641 3341 
Q 956 3463 1253 3523 
Q 1550 3584 1831 3584 
Q 2591 3584 2966 3190 
Q 3341 2797 3341 1997 
z
" transform="scale(0.015625)"/>
       <path id="DejaVuSans-72" d="M 2631 2963 
Q 2534 3019 2420 3045 
Q 2306 3072 2169 3072 
Q 1681 3072 1420 2755 
Q 1159 2438 1159 1844 
L 1159 0 
L 581 0 
L 581 3500 
L 1159 3500 
L 1159 2956 
Q 1341 3275 1631 3429 
Q 1922 3584 2338 3584 
Q 2397 3584 2469 3576 
Q 2541 3569 2628 3553 
L 2631 2963 
z
" transform="scale(0.015625)"/>
       <path id="DejaVuSans-20" transform="scale(0.015625)"/>
       <path id="DejaVuSans-6e" d="M 3513 2113 
L 3513 0 
L 2938 0 
L 2938 2094 
Q 2938 2591 2744 2837 
Q 2550 3084 2163 3084 
Q 1697 3084 1428 2787 
Q 1159 2491 1159 1978 
L 1159 0 
L 581 0 
L 581 3500 
L 1159 3500 
L 1159 2956 
Q 1366 3272 1645 3428 
Q 1925 3584 2291 3584 
Q 2894 3584 3203 3211 
Q 3513 2838 3513 2113 
z
" transform="scale(0.015625)"/>
       <path id="DejaVuSans-64" d="M 2906 2969 
L 2906 4863 
L 3481 4863 
L 3481 0 
L 2906 0 
L 2906 525 
Q 2725 213 2448 61 
Q 2172 -91 1784 -91 
Q 1150 -91 751 415 
Q 353 922 353 1747 
Q 353 2572 751 3078 
Q 1150 3584 1784 3584 
Q 2172 3584 2448 3432 
Q 2725 3281 2906 2969 
z
M 947 1747 
Q 947 1113 1208 752 
Q 1469 391 1925 391 
Q 2381 391 2643 752 
Q 2906 1113 2906 1747 
Q 2906 2381 2643 2742 
Q 2381 3103 1925 3103 
Q 1469 3103 1208 2742 
Q 947 2381 947 1747 
z
" transform="scale(0.015625)"/>
       <path id="DejaVuSans-4d" d="M 628 4666 
L 1569 4666 
L 2759 1491 
L 3956 4666 
L 4897 4666 
L 4897 0 
L 4281 0 
L 4281 4097 
L 3078 897 
L 2444 897 
L 1241 4097 
L 1241 0 
L 628 0 
L 628 4666 
z
" transform="scale(0.015625)"/>
       <path id="DejaVuSans-6f" d="M 1959 3097 
Q 1497 3097 1228 2736 
Q 959 2375 959 1747 
Q 959 1119 1226 758 
Q 1494 397 1959 397 
Q 2419 397 2687 759 
Q 2956 1122 2956 1747 
Q 2956 2369 2687 2733 
Q 2419 3097 1959 3097 
z
M 1959 3584 
Q 2709 3584 3137 3096 
Q 3566 2609 3566 1747 
Q 3566 888 3137 398 
Q 2709 -91 1959 -91 
Q 1206 -91 779 398 
Q 353 888 353 1747 
Q 353 2609 779 3096 
Q 1206 3584 1959 3584 
z
" transform="scale(0.015625)"/>
       <path id="DejaVuSans-74" d="M 1172 4494 
L 1172 3500 
L 2356 3500 
L 2356 3053 
L 1172 3053 
L 1172 1153 
Q 1172 725 1289 603 
Q 1406 481 1766 481 
L 2356 481 
L 2356 0 
L 1766 0 
Q 1100 0 847 248 
Q 594 497 594 1153 
L 594 3053 
L 172 3053 
L 172 3500 
L 594 3500 
L 594 4494 
L 1172 4494 
z
" transform="scale(0.015625)"/>
       <path id="DejaVuSans-68" d="M 3513 2113 
L 3513 0 
L 2938 0 
L 2938 2094 
Q 2938 2591 2744 2837 
Q 2550 3084 2163 3084 
Q 1697 3084 1428 2787 
Q 1159 2491 1159 1978 
L 1159 0 
L 581 0 
L 581 4863 
L 1159 4863 
L 1159 2956 
Q 1366 3272 1645 3428 
Q 1925 3584 2291 3584 
Q 2894 3584 3203 3211 
Q 3513 2838 3513 2113 
z
" transform="scale(0.015625)"/>
      </defs>
      <use xlink:href="#DejaVuSans-59"/>
      <use xlink:href="#DejaVuSans-65" transform="translate(47.833984 0)"/>
      <use xlink:href="#DejaVuSans-61" transform="translate(109.357422 0)"/>
      <use xlink:href="#DejaVuSans-72" transform="translate(170.636719 0)"/>
      <use xlink:href="#DejaVuSans-20" transform="translate(211.75 0)"/>
      <use xlink:href="#DejaVuSans-61" transform="translate(243.537109 0)"/>
      <use xlink:href="#DejaVuSans-6e" transform="translate(304.816406 0)"/>
      <use xlink:href="#DejaVuSans-64" transform="translate(368.195312 0)"/>
      <use xlink:href="#DejaVuSans-20" transform="translate(431.671875 0)"/>
      <use xlink:href="#DejaVuSans-4d" transform="translate(463.458984 0)"/>
      <use xlink:href="#DejaVuSans-6f" transform="translate(549.738281 0)"/>
      <use xlink:href="#DejaVuSans-6e" transform="translate(610.919922 0)"/>
      <use xlink:href="#DejaVuSans-74" transform="translate(674.298828 0)"/>
      <use xlink:href="#DejaVuSans-68" transform="translate(713.507812 0)"/>
     </g>
    </g>
   </g>
   <g id="matplotlib.axis_2">
    <g id="ytick_1">
     <g id="line2d_28">
      <defs>
       <path id="mb1a3bb4433" d="M 0 0 
L -3.5 0 
" style="stroke: #000000; stroke-width: 0.8"/>
      </defs>
      <g>
       <use xlink:href="#mb1a3bb4433" x="50.87" y="435.590864" style="stroke: #000000; stroke-width: 0.8"/>
      </g>
     </g>
     <g id="text_29">
      <!-- 0 -->
      <g transform="translate(37.5075 439.390082) scale(0.1 -0.1)">
       <use xlink:href="#DejaVuSans-30"/>
      </g>
     </g>
    </g>
    <g id="ytick_2">
     <g id="line2d_29">
      <g>
       <use xlink:href="#mb1a3bb4433" x="50.87" y="381.52858" style="stroke: #000000; stroke-width: 0.8"/>
      </g>
     </g>
     <g id="text_30">
      <!-- 25 -->
      <g transform="translate(31.145 385.327799) scale(0.1 -0.1)">
       <use xlink:href="#DejaVuSans-32"/>
       <use xlink:href="#DejaVuSans-35" transform="translate(63.623047 0)"/>
      </g>
     </g>
    </g>
    <g id="ytick_3">
     <g id="line2d_30">
      <g>
       <use xlink:href="#mb1a3bb4433" x="50.87" y="327.466297" style="stroke: #000000; stroke-width: 0.8"/>
      </g>
     </g>
     <g id="text_31">
      <!-- 50 -->
      <g transform="translate(31.145 331.265515) scale(0.1 -0.1)">
       <use xlink:href="#DejaVuSans-35"/>
       <use xlink:href="#DejaVuSans-30" transform="translate(63.623047 0)"/>
      </g>
     </g>
    </g>
    <g id="ytick_4">
     <g id="line2d_31">
      <g>
       <use xlink:href="#mb1a3bb4433" x="50.87" y="273.404013" style="stroke: #000000; stroke-width: 0.8"/>
      </g>
     </g>
     <g id="text_32">
      <!-- 75 -->
      <g transform="translate(31.145 277.203232) scale(0.1 -0.1)">
       <use xlink:href="#DejaVuSans-37"/>
       <use xlink:href="#DejaVuSans-35" transform="translate(63.623047 0)"/>
      </g>
     </g>
    </g>
    <g id="ytick_5">
     <g id="line2d_32">
      <g>
       <use xlink:href="#mb1a3bb4433" x="50.87" y="219.341729" style="stroke: #000000; stroke-width: 0.8"/>
      </g>
     </g>
     <g id="text_33">
      <!-- 100 -->
      <g transform="translate(24.7825 223.140948) scale(0.1 -0.1)">
       <use xlink:href="#DejaVuSans-31"/>
       <use xlink:href="#DejaVuSans-30" transform="translate(63.623047 0)"/>
       <use xlink:href="#DejaVuSans-30" transform="translate(127.246094 0)"/>
      </g>
     </g>
    </g>
    <g id="ytick_6">
     <g id="line2d_33">
      <g>
       <use xlink:href="#mb1a3bb4433" x="50.87" y="165.279446" style="stroke: #000000; stroke-width: 0.8"/>
      </g>
     </g>
     <g id="text_34">
      <!-- 125 -->
      <g transform="translate(24.7825 169.078665) scale(0.1 -0.1)">
       <use xlink:href="#DejaVuSans-31"/>
       <use xlink:href="#DejaVuSans-32" transform="translate(63.623047 0)"/>
       <use xlink:href="#DejaVuSans-35" transform="translate(127.246094 0)"/>
      </g>
     </g>
    </g>
    <g id="ytick_7">
     <g id="line2d_34">
      <g>
       <use xlink:href="#mb1a3bb4433" x="50.87" y="111.217162" style="stroke: #000000; stroke-width: 0.8"/>
      </g>
     </g>
     <g id="text_35">
      <!-- 150 -->
      <g transform="translate(24.7825 115.016381) scale(0.1 -0.1)">
       <use xlink:href="#DejaVuSans-31"/>
       <use xlink:href="#DejaVuSans-35" transform="translate(63.623047 0)"/>
       <use xlink:href="#DejaVuSans-30" transform="translate(127.246094 0)"/>
      </g>
     </g>
    </g>
    <g id="ytick_8">
     <g id="line2d_35">
      <g>
       <use xlink:href="#mb1a3bb4433" x="50.87" y="57.154879" style="stroke: #000000; stroke-width: 0.8"/>
      </g>
     </g>
     <g id="text_36">
      <!-- 175 -->
      <g transform="translate(24.7825 60.954098) scale(0.1 -0.1)">
       <use xlink:href="#DejaVuSans-31"/>
       <use xlink:href="#DejaVuSans-37" transform="translate(63.623047 0)"/>
       <use xlink:href="#DejaVuSans-35" transform="translate(127.246094 0)"/>
      </g>
     </g>
    </g>
    <g id="text_37">
     <!-- Number of Instances Reported -->
     <g transform="translate(18.702813 307.605744) rotate(-90) scale(0.1 -0.1)">
      <defs>
       <path id="DejaVuSans-4e" d="M 628 4666 
L 1478 4666 
L 3547 763 
L 3547 4666 
L 4159 4666 
L 4159 0 
L 3309 0 
L 1241 3903 
L 1241 0 
L 628 0 
L 628 4666 
z
" transform="scale(0.015625)"/>
       <path id="DejaVuSans-75" d="M 544 1381 
L 544 3500 
L 1119 3500 
L 1119 1403 
Q 1119 906 1312 657 
Q 1506 409 1894 409 
Q 2359 409 2629 706 
Q 2900 1003 2900 1516 
L 2900 3500 
L 3475 3500 
L 3475 0 
L 2900 0 
L 2900 538 
Q 2691 219 2414 64 
Q 2138 -91 1772 -91 
Q 1169 -91 856 284 
Q 544 659 544 1381 
z
M 1991 3584 
L 1991 3584 
z
" transform="scale(0.015625)"/>
       <path id="DejaVuSans-6d" d="M 3328 2828 
Q 3544 3216 3844 3400 
Q 4144 3584 4550 3584 
Q 5097 3584 5394 3201 
Q 5691 2819 5691 2113 
L 5691 0 
L 5113 0 
L 5113 2094 
Q 5113 2597 4934 2840 
Q 4756 3084 4391 3084 
Q 3944 3084 3684 2787 
Q 3425 2491 3425 1978 
L 3425 0 
L 2847 0 
L 2847 2094 
Q 2847 2600 2669 2842 
Q 2491 3084 2119 3084 
Q 1678 3084 1418 2786 
Q 1159 2488 1159 1978 
L 1159 0 
L 581 0 
L 581 3500 
L 1159 3500 
L 1159 2956 
Q 1356 3278 1631 3431 
Q 1906 3584 2284 3584 
Q 2666 3584 2933 3390 
Q 3200 3197 3328 2828 
z
" transform="scale(0.015625)"/>
       <path id="DejaVuSans-62" d="M 3116 1747 
Q 3116 2381 2855 2742 
Q 2594 3103 2138 3103 
Q 1681 3103 1420 2742 
Q 1159 2381 1159 1747 
Q 1159 1113 1420 752 
Q 1681 391 2138 391 
Q 2594 391 2855 752 
Q 3116 1113 3116 1747 
z
M 1159 2969 
Q 1341 3281 1617 3432 
Q 1894 3584 2278 3584 
Q 2916 3584 3314 3078 
Q 3713 2572 3713 1747 
Q 3713 922 3314 415 
Q 2916 -91 2278 -91 
Q 1894 -91 1617 61 
Q 1341 213 1159 525 
L 1159 0 
L 581 0 
L 581 4863 
L 1159 4863 
L 1159 2969 
z
" transform="scale(0.015625)"/>
       <path id="DejaVuSans-66" d="M 2375 4863 
L 2375 4384 
L 1825 4384 
Q 1516 4384 1395 4259 
Q 1275 4134 1275 3809 
L 1275 3500 
L 2222 3500 
L 2222 3053 
L 1275 3053 
L 1275 0 
L 697 0 
L 697 3053 
L 147 3053 
L 147 3500 
L 697 3500 
L 697 3744 
Q 697 4328 969 4595 
Q 1241 4863 1831 4863 
L 2375 4863 
z
" transform="scale(0.015625)"/>
       <path id="DejaVuSans-49" d="M 628 4666 
L 1259 4666 
L 1259 0 
L 628 0 
L 628 4666 
z
" transform="scale(0.015625)"/>
       <path id="DejaVuSans-73" d="M 2834 3397 
L 2834 2853 
Q 2591 2978 2328 3040 
Q 2066 3103 1784 3103 
Q 1356 3103 1142 2972 
Q 928 2841 928 2578 
Q 928 2378 1081 2264 
Q 1234 2150 1697 2047 
L 1894 2003 
Q 2506 1872 2764 1633 
Q 3022 1394 3022 966 
Q 3022 478 2636 193 
Q 2250 -91 1575 -91 
Q 1294 -91 989 -36 
Q 684 19 347 128 
L 347 722 
Q 666 556 975 473 
Q 1284 391 1588 391 
Q 1994 391 2212 530 
Q 2431 669 2431 922 
Q 2431 1156 2273 1281 
Q 2116 1406 1581 1522 
L 1381 1569 
Q 847 1681 609 1914 
Q 372 2147 372 2553 
Q 372 3047 722 3315 
Q 1072 3584 1716 3584 
Q 2034 3584 2315 3537 
Q 2597 3491 2834 3397 
z
" transform="scale(0.015625)"/>
       <path id="DejaVuSans-63" d="M 3122 3366 
L 3122 2828 
Q 2878 2963 2633 3030 
Q 2388 3097 2138 3097 
Q 1578 3097 1268 2742 
Q 959 2388 959 1747 
Q 959 1106 1268 751 
Q 1578 397 2138 397 
Q 2388 397 2633 464 
Q 2878 531 3122 666 
L 3122 134 
Q 2881 22 2623 -34 
Q 2366 -91 2075 -91 
Q 1284 -91 818 406 
Q 353 903 353 1747 
Q 353 2603 823 3093 
Q 1294 3584 2113 3584 
Q 2378 3584 2631 3529 
Q 2884 3475 3122 3366 
z
" transform="scale(0.015625)"/>
       <path id="DejaVuSans-52" d="M 2841 2188 
Q 3044 2119 3236 1894 
Q 3428 1669 3622 1275 
L 4263 0 
L 3584 0 
L 2988 1197 
Q 2756 1666 2539 1819 
Q 2322 1972 1947 1972 
L 1259 1972 
L 1259 0 
L 628 0 
L 628 4666 
L 2053 4666 
Q 2853 4666 3247 4331 
Q 3641 3997 3641 3322 
Q 3641 2881 3436 2590 
Q 3231 2300 2841 2188 
z
M 1259 4147 
L 1259 2491 
L 2053 2491 
Q 2509 2491 2742 2702 
Q 2975 2913 2975 3322 
Q 2975 3731 2742 3939 
Q 2509 4147 2053 4147 
L 1259 4147 
z
" transform="scale(0.015625)"/>
       <path id="DejaVuSans-70" d="M 1159 525 
L 1159 -1331 
L 581 -1331 
L 581 3500 
L 1159 3500 
L 1159 2969 
Q 1341 3281 1617 3432 
Q 1894 3584 2278 3584 
Q 2916 3584 3314 3078 
Q 3713 2572 3713 1747 
Q 3713 922 3314 415 
Q 2916 -91 2278 -91 
Q 1894 -91 1617 61 
Q 1341 213 1159 525 
z
M 3116 1747 
Q 3116 2381 2855 2742 
Q 2594 3103 2138 3103 
Q 1681 3103 1420 2742 
Q 1159 2381 1159 1747 
Q 1159 1113 1420 752 
Q 1681 391 2138 391 
Q 2594 391 2855 752 
Q 3116 1113 3116 1747 
z
" transform="scale(0.015625)"/>
      </defs>
      <use xlink:href="#DejaVuSans-4e"/>
      <use xlink:href="#DejaVuSans-75" transform="translate(74.804688 0)"/>
      <use xlink:href="#DejaVuSans-6d" transform="translate(138.183594 0)"/>
      <use xlink:href="#DejaVuSans-62" transform="translate(235.595703 0)"/>
      <use xlink:href="#DejaVuSans-65" transform="translate(299.072266 0)"/>
      <use xlink:href="#DejaVuSans-72" transform="translate(360.595703 0)"/>
      <use xlink:href="#DejaVuSans-20" transform="translate(401.708984 0)"/>
      <use xlink:href="#DejaVuSans-6f" transform="translate(433.496094 0)"/>
      <use xlink:href="#DejaVuSans-66" transform="translate(494.677734 0)"/>
      <use xlink:href="#DejaVuSans-20" transform="translate(529.882812 0)"/>
      <use xlink:href="#DejaVuSans-49" transform="translate(561.669922 0)"/>
      <use xlink:href="#DejaVuSans-6e" transform="translate(591.162109 0)"/>
      <use xlink:href="#DejaVuSans-73" transform="translate(654.541016 0)"/>
      <use xlink:href="#DejaVuSans-74" transform="translate(706.640625 0)"/>
      <use xlink:href="#DejaVuSans-61" transform="translate(745.849609 0)"/>
      <use xlink:href="#DejaVuSans-6e" transform="translate(807.128906 0)"/>
      <use xlink:href="#DejaVuSans-63" transform="translate(870.507812 0)"/>
      <use xlink:href="#DejaVuSans-65" transform="translate(925.488281 0)"/>
      <use xlink:href="#DejaVuSans-73" transform="translate(987.011719 0)"/>
      <use xlink:href="#DejaVuSans-20" transform="translate(1039.111328 0)"/>
      <use xlink:href="#DejaVuSans-52" transform="translate(1070.898438 0)"/>
      <use xlink:href="#DejaVuSans-65" transform="translate(1135.880859 0)"/>
      <use xlink:href="#DejaVuSans-70" transform="translate(1197.404297 0)"/>
      <use xlink:href="#DejaVuSans-6f" transform="translate(1260.880859 0)"/>
      <use xlink:href="#DejaVuSans-72" transform="translate(1322.0625 0)"/>
      <use xlink:href="#DejaVuSans-74" transform="translate(1363.175781 0)"/>
      <use xlink:href="#DejaVuSans-65" transform="translate(1402.384766 0)"/>
      <use xlink:href="#DejaVuSans-64" transform="translate(1463.908203 0)"/>
     </g>
    </g>
   </g>
   <g id="patch_186">
    <path d="M 50.87 435.590864 
L 50.87 26.88 
" style="fill: none; stroke: #000000; stroke-width: 0.8; stroke-linejoin: miter; stroke-linecap: square"/>
   </g>
   <g id="patch_187">
    <path d="M 853.2 435.590864 
L 853.2 26.88 
" style="fill: none; stroke: #000000; stroke-width: 0.8; stroke-linejoin: miter; stroke-linecap: square"/>
   </g>
   <g id="patch_188">
    <path d="M 50.87 435.590864 
L 853.2 435.590864 
" style="fill: none; stroke: #000000; stroke-width: 0.8; stroke-linejoin: miter; stroke-linecap: square"/>
   </g>
   <g id="patch_189">
    <path d="M 50.87 26.88 
L 853.2 26.88 
" style="fill: none; stroke: #000000; stroke-width: 0.8; stroke-linejoin: miter; stroke-linecap: square"/>
   </g>
   <g id="text_38">
    <!-- Number of Reported Instances in Italy (including zero-count months) -->
    <g transform="translate(245.715625 20.88) scale(0.12 -0.12)">
     <defs>
      <path id="DejaVuSans-69" d="M 603 3500 
L 1178 3500 
L 1178 0 
L 603 0 
L 603 3500 
z
M 603 4863 
L 1178 4863 
L 1178 4134 
L 603 4134 
L 603 4863 
z
" transform="scale(0.015625)"/>
      <path id="DejaVuSans-6c" d="M 603 4863 
L 1178 4863 
L 1178 0 
L 603 0 
L 603 4863 
z
" transform="scale(0.015625)"/>
      <path id="DejaVuSans-79" d="M 2059 -325 
Q 1816 -950 1584 -1140 
Q 1353 -1331 966 -1331 
L 506 -1331 
L 506 -850 
L 844 -850 
Q 1081 -850 1212 -737 
Q 1344 -625 1503 -206 
L 1606 56 
L 191 3500 
L 800 3500 
L 1894 763 
L 2988 3500 
L 3597 3500 
L 2059 -325 
z
" transform="scale(0.015625)"/>
      <path id="DejaVuSans-28" d="M 1984 4856 
Q 1566 4138 1362 3434 
Q 1159 2731 1159 2009 
Q 1159 1288 1364 580 
Q 1569 -128 1984 -844 
L 1484 -844 
Q 1016 -109 783 600 
Q 550 1309 550 2009 
Q 550 2706 781 3412 
Q 1013 4119 1484 4856 
L 1984 4856 
z
" transform="scale(0.015625)"/>
      <path id="DejaVuSans-67" d="M 2906 1791 
Q 2906 2416 2648 2759 
Q 2391 3103 1925 3103 
Q 1463 3103 1205 2759 
Q 947 2416 947 1791 
Q 947 1169 1205 825 
Q 1463 481 1925 481 
Q 2391 481 2648 825 
Q 2906 1169 2906 1791 
z
M 3481 434 
Q 3481 -459 3084 -895 
Q 2688 -1331 1869 -1331 
Q 1566 -1331 1297 -1286 
Q 1028 -1241 775 -1147 
L 775 -588 
Q 1028 -725 1275 -790 
Q 1522 -856 1778 -856 
Q 2344 -856 2625 -561 
Q 2906 -266 2906 331 
L 2906 616 
Q 2728 306 2450 153 
Q 2172 0 1784 0 
Q 1141 0 747 490 
Q 353 981 353 1791 
Q 353 2603 747 3093 
Q 1141 3584 1784 3584 
Q 2172 3584 2450 3431 
Q 2728 3278 2906 2969 
L 2906 3500 
L 3481 3500 
L 3481 434 
z
" transform="scale(0.015625)"/>
      <path id="DejaVuSans-7a" d="M 353 3500 
L 3084 3500 
L 3084 2975 
L 922 459 
L 3084 459 
L 3084 0 
L 275 0 
L 275 525 
L 2438 3041 
L 353 3041 
L 353 3500 
z
" transform="scale(0.015625)"/>
      <path id="DejaVuSans-29" d="M 513 4856 
L 1013 4856 
Q 1481 4119 1714 3412 
Q 1947 2706 1947 2009 
Q 1947 1309 1714 600 
Q 1481 -109 1013 -844 
L 513 -844 
Q 928 -128 1133 580 
Q 1338 1288 1338 2009 
Q 1338 2731 1133 3434 
Q 928 4138 513 4856 
z
" transform="scale(0.015625)"/>
     </defs>
     <use xlink:href="#DejaVuSans-4e"/>
     <use xlink:href="#DejaVuSans-75" transform="translate(74.804688 0)"/>
     <use xlink:href="#DejaVuSans-6d" transform="translate(138.183594 0)"/>
     <use xlink:href="#DejaVuSans-62" transform="translate(235.595703 0)"/>
     <use xlink:href="#DejaVuSans-65" transform="translate(299.072266 0)"/>
     <use xlink:href="#DejaVuSans-72" transform="translate(360.595703 0)"/>
     <use xlink:href="#DejaVuSans-20" transform="translate(401.708984 0)"/>
     <use xlink:href="#DejaVuSans-6f" transform="translate(433.496094 0)"/>
     <use xlink:href="#DejaVuSans-66" transform="translate(494.677734 0)"/>
     <use xlink:href="#DejaVuSans-20" transform="translate(529.882812 0)"/>
     <use xlink:href="#DejaVuSans-52" transform="translate(561.669922 0)"/>
     <use xlink:href="#DejaVuSans-65" transform="translate(626.652344 0)"/>
     <use xlink:href="#DejaVuSans-70" transform="translate(688.175781 0)"/>
     <use xlink:href="#DejaVuSans-6f" transform="translate(751.652344 0)"/>
     <use xlink:href="#DejaVuSans-72" transform="translate(812.833984 0)"/>
     <use xlink:href="#DejaVuSans-74" transform="translate(853.947266 0)"/>
     <use xlink:href="#DejaVuSans-65" transform="translate(893.15625 0)"/>
     <use xlink:href="#DejaVuSans-64" transform="translate(954.679688 0)"/>
     <use xlink:href="#DejaVuSans-20" transform="translate(1018.15625 0)"/>
     <use xlink:href="#DejaVuSans-49" transform="translate(1049.943359 0)"/>
     <use xlink:href="#DejaVuSans-6e" transform="translate(1079.435547 0)"/>
     <use xlink:href="#DejaVuSans-73" transform="translate(1142.814453 0)"/>
     <use xlink:href="#DejaVuSans-74" transform="translate(1194.914062 0)"/>
     <use xlink:href="#DejaVuSans-61" transform="translate(1234.123047 0)"/>
     <use xlink:href="#DejaVuSans-6e" transform="translate(1295.402344 0)"/>
     <use xlink:href="#DejaVuSans-63" transform="translate(1358.78125 0)"/>
     <use xlink:href="#DejaVuSans-65" transform="translate(1413.761719 0)"/>
     <use xlink:href="#DejaVuSans-73" transform="translate(1475.285156 0)"/>
     <use xlink:href="#DejaVuSans-20" transform="translate(1527.384766 0)"/>
     <use xlink:href="#DejaVuSans-69" transform="translate(1559.171875 0)"/>
     <use xlink:href="#DejaVuSans-6e" transform="translate(1586.955078 0)"/>
     <use xlink:href="#DejaVuSans-20" transform="translate(1650.333984 0)"/>
     <use xlink:href="#DejaVuSans-49" transform="translate(1682.121094 0)"/>
     <use xlink:href="#DejaVuSans-74" transform="translate(1711.613281 0)"/>
     <use xlink:href="#DejaVuSans-61" transform="translate(1750.822266 0)"/>
     <use xlink:href="#DejaVuSans-6c" transform="translate(1812.101562 0)"/>
     <use xlink:href="#DejaVuSans-79" transform="translate(1839.884766 0)"/>
     <use xlink:href="#DejaVuSans-20" transform="translate(1899.064453 0)"/>
     <use xlink:href="#DejaVuSans-28" transform="translate(1930.851562 0)"/>
     <use xlink:href="#DejaVuSans-69" transform="translate(1969.865234 0)"/>
     <use xlink:href="#DejaVuSans-6e" transform="translate(1997.648438 0)"/>
     <use xlink:href="#DejaVuSans-63" transform="translate(2061.027344 0)"/>
     <use xlink:href="#DejaVuSans-6c" transform="translate(2116.007812 0)"/>
     <use xlink:href="#DejaVuSans-75" transform="translate(2143.791016 0)"/>
     <use xlink:href="#DejaVuSans-64" transform="translate(2207.169922 0)"/>
     <use xlink:href="#DejaVuSans-69" transform="translate(2270.646484 0)"/>
     <use xlink:href="#DejaVuSans-6e" transform="translate(2298.429688 0)"/>
     <use xlink:href="#DejaVuSans-67" transform="translate(2361.808594 0)"/>
     <use xlink:href="#DejaVuSans-20" transform="translate(2425.285156 0)"/>
     <use xlink:href="#DejaVuSans-7a" transform="translate(2457.072266 0)"/>
     <use xlink:href="#DejaVuSans-65" transform="translate(2509.5625 0)"/>
     <use xlink:href="#DejaVuSans-72" transform="translate(2571.085938 0)"/>
     <use xlink:href="#DejaVuSans-6f" transform="translate(2609.949219 0)"/>
     <use xlink:href="#DejaVuSans-2d" transform="translate(2673.005859 0)"/>
     <use xlink:href="#DejaVuSans-63" transform="translate(2709.089844 0)"/>
     <use xlink:href="#DejaVuSans-6f" transform="translate(2764.070312 0)"/>
     <use xlink:href="#DejaVuSans-75" transform="translate(2825.251953 0)"/>
     <use xlink:href="#DejaVuSans-6e" transform="translate(2888.630859 0)"/>
     <use xlink:href="#DejaVuSans-74" transform="translate(2952.009766 0)"/>
     <use xlink:href="#DejaVuSans-20" transform="translate(2991.21875 0)"/>
     <use xlink:href="#DejaVuSans-6d" transform="translate(3023.005859 0)"/>
     <use xlink:href="#DejaVuSans-6f" transform="translate(3120.417969 0)"/>
     <use xlink:href="#DejaVuSans-6e" transform="translate(3181.599609 0)"/>
     <use xlink:href="#DejaVuSans-74" transform="translate(3244.978516 0)"/>
     <use xlink:href="#DejaVuSans-68" transform="translate(3284.1875 0)"/>
     <use xlink:href="#DejaVuSans-73" transform="translate(3347.566406 0)"/>
     <use xlink:href="#DejaVuSans-29" transform="translate(3399.666016 0)"/>
    </g>
   </g>
   <g id="legend_1">
    <g id="patch_190">
     <path d="M 57.87 64.23625 
L 111.565313 64.23625 
Q 113.565313 64.23625 113.565313 62.23625 
L 113.565313 33.88 
Q 113.565313 31.88 111.565313 31.88 
L 57.87 31.88 
Q 55.87 31.88 55.87 33.88 
L 55.87 62.23625 
Q 55.87 64.23625 57.87 64.23625 
z
" style="fill: #ffffff; opacity: 0.8; stroke: #cccccc; stroke-linejoin: miter"/>
    </g>
    <g id="text_39">
     <!-- country -->
     <g transform="translate(65.596563 43.478437) scale(0.1 -0.1)">
      <use xlink:href="#DejaVuSans-63"/>
      <use xlink:href="#DejaVuSans-6f" transform="translate(54.980469 0)"/>
      <use xlink:href="#DejaVuSans-75" transform="translate(116.162109 0)"/>
      <use xlink:href="#DejaVuSans-6e" transform="translate(179.541016 0)"/>
      <use xlink:href="#DejaVuSans-74" transform="translate(242.919922 0)"/>
      <use xlink:href="#DejaVuSans-72" transform="translate(282.128906 0)"/>
      <use xlink:href="#DejaVuSans-79" transform="translate(323.242188 0)"/>
     </g>
    </g>
    <g id="patch_191">
     <path d="M 59.87 58.156562 
L 79.87 58.156562 
L 79.87 51.156562 
L 59.87 51.156562 
z
" style="fill: #a6cee3"/>
    </g>
    <g id="text_40">
     <!-- Italy -->
     <g transform="translate(87.87 58.156562) scale(0.1 -0.1)">
      <use xlink:href="#DejaVuSans-49"/>
      <use xlink:href="#DejaVuSans-74" transform="translate(29.492188 0)"/>
      <use xlink:href="#DejaVuSans-61" transform="translate(68.701172 0)"/>
      <use xlink:href="#DejaVuSans-6c" transform="translate(129.980469 0)"/>
      <use xlink:href="#DejaVuSans-79" transform="translate(157.763672 0)"/>
     </g>
    </g>
   </g>
  </g>
 </g>
 <defs>
  <clipPath id="pf1e04d2b70">
   <rect x="50.87" y="26.88" width="802.33" height="408.710864"/>
  </clipPath>
 </defs>
</svg>
