<?xml version="1.0" encoding="utf-8" standalone="no"?>
<!DOCTYPE svg PUBLIC "-//W3C//DTD SVG 1.1//EN"
  "http://www.w3.org/Graphics/SVG/1.1/DTD/svg11.dtd">
<svg xmlns:xlink="http://www.w3.org/1999/xlink" width="864pt" height="504pt" viewBox="0 0 864 504" xmlns="http://www.w3.org/2000/svg" version="1.1">
 <metadata>
  <rdf:RDF xmlns:dc="http://purl.org/dc/elements/1.1/" xmlns:cc="http://creativecommons.org/ns#" xmlns:rdf="http://www.w3.org/1999/02/22-rdf-syntax-ns#">
   <cc:Work>
    <dc:type rdf:resource="http://purl.org/dc/dcmitype/StillImage"/>
    <dc:date>2025-08-12T22:24:03.369017</dc:date>
    <dc:format>image/svg+xml</dc:format>
    <dc:creator>
     <cc:Agent>
      <dc:title>Matplotlib v3.10.3, https://matplotlib.org/</dc:title>
     </cc:Agent>
    </dc:creator>
   </cc:Work>
  </rdf:RDF>
 </metadata>
 <defs>
  <style type="text/css">*{stroke-linejoin: round; stroke-linecap: butt}</style>
 </defs>
 <g id="figure_1">
  <g id="patch_1">
   <path d="M 0 504 
L 864 504 
L 864 0 
L 0 0 
z
" style="fill: #ffffff"/>
  </g>
  <g id="axes_1">
   <g id="patch_2">
    <path d="M 50.87 462.04 
L 800.53 462.04 
L 800.53 26.88 
L 50.87 26.88 
z
" style="fill: #ffffff"/>
   </g>
   <g id="matplotlib.axis_1">
    <g id="xtick_1">
     <g id="line2d_1">
      <defs>
       <path id="mafeb73afae" d="M 0 0 
L 0 3.5 
" style="stroke: #000000; stroke-width: 0.8"/>
      </defs>
      <g>
       <use xlink:href="#mafeb73afae" x="79.91407" y="462.04" style="stroke: #000000; stroke-width: 0.8"/>
      </g>
     </g>
     <g id="text_1">
      <!-- 2014 -->
      <g transform="translate(67.18907 476.638438) scale(0.1 -0.1)">
       <defs>
        <path id="DejaVuSans-32" d="M 1228 531 
L 3431 531 
L 3431 0 
L 469 0 
L 469 531 
Q 828 903 1448 1529 
Q 2069 2156 2228 2338 
Q 2531 2678 2651 2914 
Q 2772 3150 2772 3378 
Q 2772 3750 2511 3984 
Q 2250 4219 1831 4219 
Q 1534 4219 1204 4116 
Q 875 4013 500 3803 
L 500 4441 
Q 881 4594 1212 4672 
Q 1544 4750 1819 4750 
Q 2544 4750 2975 4387 
Q 3406 4025 3406 3419 
Q 3406 3131 3298 2873 
Q 3191 2616 2906 2266 
Q 2828 2175 2409 1742 
Q 1991 1309 1228 531 
z
" transform="scale(0.015625)"/>
        <path id="DejaVuSans-30" d="M 2034 4250 
Q 1547 4250 1301 3770 
Q 1056 3291 1056 2328 
Q 1056 1369 1301 889 
Q 1547 409 2034 409 
Q 2525 409 2770 889 
Q 3016 1369 3016 2328 
Q 3016 3291 2770 3770 
Q 2525 4250 2034 4250 
z
M 2034 4750 
Q 2819 4750 3233 4129 
Q 3647 3509 3647 2328 
Q 3647 1150 3233 529 
Q 2819 -91 2034 -91 
Q 1250 -91 836 529 
Q 422 1150 422 2328 
Q 422 3509 836 4129 
Q 1250 4750 2034 4750 
z
" transform="scale(0.015625)"/>
        <path id="DejaVuSans-31" d="M 794 531 
L 1825 531 
L 1825 4091 
L 703 3866 
L 703 4441 
L 1819 4666 
L 2450 4666 
L 2450 531 
L 3481 531 
L 3481 0 
L 794 0 
L 794 531 
z
" transform="scale(0.015625)"/>
        <path id="DejaVuSans-34" d="M 2419 4116 
L 825 1625 
L 2419 1625 
L 2419 4116 
z
M 2253 4666 
L 3047 4666 
L 3047 1625 
L 3713 1625 
L 3713 1100 
L 3047 1100 
L 3047 0 
L 2419 0 
L 2419 1100 
L 313 1100 
L 313 1709 
L 2253 4666 
z
" transform="scale(0.015625)"/>
       </defs>
       <use xlink:href="#DejaVuSans-32"/>
       <use xlink:href="#DejaVuSans-30" transform="translate(63.623047 0)"/>
       <use xlink:href="#DejaVuSans-31" transform="translate(127.246094 0)"/>
       <use xlink:href="#DejaVuSans-34" transform="translate(190.869141 0)"/>
      </g>
     </g>
    </g>
    <g id="xtick_2">
     <g id="line2d_2">
      <g>
       <use xlink:href="#mafeb73afae" x="198.395051" y="462.04" style="stroke: #000000; stroke-width: 0.8"/>
      </g>
     </g>
     <g id="text_2">
      <!-- 2016 -->
      <g transform="translate(185.670051 476.638438) scale(0.1 -0.1)">
       <defs>
        <path id="DejaVuSans-36" d="M 2113 2584 
Q 1688 2584 1439 2293 
Q 1191 2003 1191 1497 
Q 1191 994 1439 701 
Q 1688 409 2113 409 
Q 2538 409 2786 701 
Q 3034 994 3034 1497 
Q 3034 2003 2786 2293 
Q 2538 2584 2113 2584 
z
M 3366 4563 
L 3366 3988 
Q 3128 4100 2886 4159 
Q 2644 4219 2406 4219 
Q 1781 4219 1451 3797 
Q 1122 3375 1075 2522 
Q 1259 2794 1537 2939 
Q 1816 3084 2150 3084 
Q 2853 3084 3261 2657 
Q 3669 2231 3669 1497 
Q 3669 778 3244 343 
Q 2819 -91 2113 -91 
Q 1303 -91 875 529 
Q 447 1150 447 2328 
Q 447 3434 972 4092 
Q 1497 4750 2381 4750 
Q 2619 4750 2861 4703 
Q 3103 4656 3366 4563 
z
" transform="scale(0.015625)"/>
       </defs>
       <use xlink:href="#DejaVuSans-32"/>
       <use xlink:href="#DejaVuSans-30" transform="translate(63.623047 0)"/>
       <use xlink:href="#DejaVuSans-31" transform="translate(127.246094 0)"/>
       <use xlink:href="#DejaVuSans-36" transform="translate(190.869141 0)"/>
      </g>
     </g>
    </g>
    <g id="xtick_3">
     <g id="line2d_3">
      <g>
       <use xlink:href="#mafeb73afae" x="317.038334" y="462.04" style="stroke: #000000; stroke-width: 0.8"/>
      </g>
     </g>
     <g id="text_3">
      <!-- 2018 -->
      <g transform="translate(304.313334 476.638438) scale(0.1 -0.1)">
       <defs>
        <path id="DejaVuSans-38" d="M 2034 2216 
Q 1584 2216 1326 1975 
Q 1069 1734 1069 1313 
Q 1069 891 1326 650 
Q 1584 409 2034 409 
Q 2484 409 2743 651 
Q 3003 894 3003 1313 
Q 3003 1734 2745 1975 
Q 2488 2216 2034 2216 
z
M 1403 2484 
Q 997 2584 770 2862 
Q 544 3141 544 3541 
Q 544 4100 942 4425 
Q 1341 4750 2034 4750 
Q 2731 4750 3128 4425 
Q 3525 4100 3525 3541 
Q 3525 3141 3298 2862 
Q 3072 2584 2669 2484 
Q 3125 2378 3379 2068 
Q 3634 1759 3634 1313 
Q 3634 634 3220 271 
Q 2806 -91 2034 -91 
Q 1263 -91 848 271 
Q 434 634 434 1313 
Q 434 1759 690 2068 
Q 947 2378 1403 2484 
z
M 1172 3481 
Q 1172 3119 1398 2916 
Q 1625 2713 2034 2713 
Q 2441 2713 2670 2916 
Q 2900 3119 2900 3481 
Q 2900 3844 2670 4047 
Q 2441 4250 2034 4250 
Q 1625 4250 1398 4047 
Q 1172 3844 1172 3481 
z
" transform="scale(0.015625)"/>
       </defs>
       <use xlink:href="#DejaVuSans-32"/>
       <use xlink:href="#DejaVuSans-30" transform="translate(63.623047 0)"/>
       <use xlink:href="#DejaVuSans-31" transform="translate(127.246094 0)"/>
       <use xlink:href="#DejaVuSans-38" transform="translate(190.869141 0)"/>
      </g>
     </g>
    </g>
    <g id="xtick_4">
     <g id="line2d_4">
      <g>
       <use xlink:href="#mafeb73afae" x="435.519314" y="462.04" style="stroke: #000000; stroke-width: 0.8"/>
      </g>
     </g>
     <g id="text_4">
      <!-- 2020 -->
      <g transform="translate(422.794314 476.638438) scale(0.1 -0.1)">
       <use xlink:href="#DejaVuSans-32"/>
       <use xlink:href="#DejaVuSans-30" transform="translate(63.623047 0)"/>
       <use xlink:href="#DejaVuSans-32" transform="translate(127.246094 0)"/>
       <use xlink:href="#DejaVuSans-30" transform="translate(190.869141 0)"/>
      </g>
     </g>
    </g>
    <g id="xtick_5">
     <g id="line2d_5">
      <g>
       <use xlink:href="#mafeb73afae" x="554.162597" y="462.04" style="stroke: #000000; stroke-width: 0.8"/>
      </g>
     </g>
     <g id="text_5">
      <!-- 2022 -->
      <g transform="translate(541.437597 476.638438) scale(0.1 -0.1)">
       <use xlink:href="#DejaVuSans-32"/>
       <use xlink:href="#DejaVuSans-30" transform="translate(63.623047 0)"/>
       <use xlink:href="#DejaVuSans-32" transform="translate(127.246094 0)"/>
       <use xlink:href="#DejaVuSans-32" transform="translate(190.869141 0)"/>
      </g>
     </g>
    </g>
    <g id="xtick_6">
     <g id="line2d_6">
      <g>
       <use xlink:href="#mafeb73afae" x="672.643577" y="462.04" style="stroke: #000000; stroke-width: 0.8"/>
      </g>
     </g>
     <g id="text_6">
      <!-- 2024 -->
      <g transform="translate(659.918577 476.638438) scale(0.1 -0.1)">
       <use xlink:href="#DejaVuSans-32"/>
       <use xlink:href="#DejaVuSans-30" transform="translate(63.623047 0)"/>
       <use xlink:href="#DejaVuSans-32" transform="translate(127.246094 0)"/>
       <use xlink:href="#DejaVuSans-34" transform="translate(190.869141 0)"/>
      </g>
     </g>
    </g>
    <g id="xtick_7">
     <g id="line2d_7">
      <g>
       <use xlink:href="#mafeb73afae" x="791.286861" y="462.04" style="stroke: #000000; stroke-width: 0.8"/>
      </g>
     </g>
     <g id="text_7">
      <!-- 2026 -->
      <g transform="translate(778.561861 476.638438) scale(0.1 -0.1)">
       <use xlink:href="#DejaVuSans-32"/>
       <use xlink:href="#DejaVuSans-30" transform="translate(63.623047 0)"/>
       <use xlink:href="#DejaVuSans-32" transform="translate(127.246094 0)"/>
       <use xlink:href="#DejaVuSans-36" transform="translate(190.869141 0)"/>
      </g>
     </g>
    </g>
    <g id="text_8">
     <!-- Year and Month -->
     <g transform="translate(386.85625 490.316563) scale(0.1 -0.1)">
      <defs>
       <path id="DejaVuSans-59" d="M -13 4666 
L 666 4666 
L 1959 2747 
L 3244 4666 
L 3922 4666 
L 2272 2222 
L 2272 0 
L 1638 0 
L 1638 2222 
L -13 4666 
z
" transform="scale(0.015625)"/>
       <path id="DejaVuSans-65" d="M 3597 1894 
L 3597 1613 
L 953 1613 
Q 991 1019 1311 708 
Q 1631 397 2203 397 
Q 2534 397 2845 478 
Q 3156 559 3463 722 
L 3463 178 
Q 3153 47 2828 -22 
Q 2503 -91 2169 -91 
Q 1331 -91 842 396 
Q 353 884 353 1716 
Q 353 2575 817 3079 
Q 1281 3584 2069 3584 
Q 2775 3584 3186 3129 
Q 3597 2675 3597 1894 
z
M 3022 2063 
Q 3016 2534 2758 2815 
Q 2500 3097 2075 3097 
Q 1594 3097 1305 2825 
Q 1016 2553 972 2059 
L 3022 2063 
z
" transform="scale(0.015625)"/>
       <path id="DejaVuSans-61" d="M 2194 1759 
Q 1497 1759 1228 1600 
Q 959 1441 959 1056 
Q 959 750 1161 570 
Q 1363 391 1709 391 
Q 2188 391 2477 730 
Q 2766 1069 2766 1631 
L 2766 1759 
L 2194 1759 
z
M 3341 1997 
L 3341 0 
L 2766 0 
L 2766 531 
Q 2569 213 2275 61 
Q 1981 -91 1556 -91 
Q 1019 -91 701 211 
Q 384 513 384 1019 
Q 384 1609 779 1909 
Q 1175 2209 1959 2209 
L 2766 2209 
L 2766 2266 
Q 2766 2663 2505 2880 
Q 2244 3097 1772 3097 
Q 1472 3097 1187 3025 
Q 903 2953 641 2809 
L 641 3341 
Q 956 3463 1253 3523 
Q 1550 3584 1831 3584 
Q 2591 3584 2966 3190 
Q 3341 2797 3341 1997 
z
" transform="scale(0.015625)"/>
       <path id="DejaVuSans-72" d="M 2631 2963 
Q 2534 3019 2420 3045 
Q 2306 3072 2169 3072 
Q 1681 3072 1420 2755 
Q 1159 2438 1159 1844 
L 1159 0 
L 581 0 
L 581 3500 
L 1159 3500 
L 1159 2956 
Q 1341 3275 1631 3429 
Q 1922 3584 2338 3584 
Q 2397 3584 2469 3576 
Q 2541 3569 2628 3553 
L 2631 2963 
z
" transform="scale(0.015625)"/>
       <path id="DejaVuSans-20" transform="scale(0.015625)"/>
       <path id="DejaVuSans-6e" d="M 3513 2113 
L 3513 0 
L 2938 0 
L 2938 2094 
Q 2938 2591 2744 2837 
Q 2550 3084 2163 3084 
Q 1697 3084 1428 2787 
Q 1159 2491 1159 1978 
L 1159 0 
L 581 0 
L 581 3500 
L 1159 3500 
L 1159 2956 
Q 1366 3272 1645 3428 
Q 1925 3584 2291 3584 
Q 2894 3584 3203 3211 
Q 3513 2838 3513 2113 
z
" transform="scale(0.015625)"/>
       <path id="DejaVuSans-64" d="M 2906 2969 
L 2906 4863 
L 3481 4863 
L 3481 0 
L 2906 0 
L 2906 525 
Q 2725 213 2448 61 
Q 2172 -91 1784 -91 
Q 1150 -91 751 415 
Q 353 922 353 1747 
Q 353 2572 751 3078 
Q 1150 3584 1784 3584 
Q 2172 3584 2448 3432 
Q 2725 3281 2906 2969 
z
M 947 1747 
Q 947 1113 1208 752 
Q 1469 391 1925 391 
Q 2381 391 2643 752 
Q 2906 1113 2906 1747 
Q 2906 2381 2643 2742 
Q 2381 3103 1925 3103 
Q 1469 3103 1208 2742 
Q 947 2381 947 1747 
z
" transform="scale(0.015625)"/>
       <path id="DejaVuSans-4d" d="M 628 4666 
L 1569 4666 
L 2759 1491 
L 3956 4666 
L 4897 4666 
L 4897 0 
L 4281 0 
L 4281 4097 
L 3078 897 
L 2444 897 
L 1241 4097 
L 1241 0 
L 628 0 
L 628 4666 
z
" transform="scale(0.015625)"/>
       <path id="DejaVuSans-6f" d="M 1959 3097 
Q 1497 3097 1228 2736 
Q 959 2375 959 1747 
Q 959 1119 1226 758 
Q 1494 397 1959 397 
Q 2419 397 2687 759 
Q 2956 1122 2956 1747 
Q 2956 2369 2687 2733 
Q 2419 3097 1959 3097 
z
M 1959 3584 
Q 2709 3584 3137 3096 
Q 3566 2609 3566 1747 
Q 3566 888 3137 398 
Q 2709 -91 1959 -91 
Q 1206 -91 779 398 
Q 353 888 353 1747 
Q 353 2609 779 3096 
Q 1206 3584 1959 3584 
z
" transform="scale(0.015625)"/>
       <path id="DejaVuSans-74" d="M 1172 4494 
L 1172 3500 
L 2356 3500 
L 2356 3053 
L 1172 3053 
L 1172 1153 
Q 1172 725 1289 603 
Q 1406 481 1766 481 
L 2356 481 
L 2356 0 
L 1766 0 
Q 1100 0 847 248 
Q 594 497 594 1153 
L 594 3053 
L 172 3053 
L 172 3500 
L 594 3500 
L 594 4494 
L 1172 4494 
z
" transform="scale(0.015625)"/>
       <path id="DejaVuSans-68" d="M 3513 2113 
L 3513 0 
L 2938 0 
L 2938 2094 
Q 2938 2591 2744 2837 
Q 2550 3084 2163 3084 
Q 1697 3084 1428 2787 
Q 1159 2491 1159 1978 
L 1159 0 
L 581 0 
L 581 4863 
L 1159 4863 
L 1159 2956 
Q 1366 3272 1645 3428 
Q 1925 3584 2291 3584 
Q 2894 3584 3203 3211 
Q 3513 2838 3513 2113 
z
" transform="scale(0.015625)"/>
      </defs>
      <use xlink:href="#DejaVuSans-59"/>
      <use xlink:href="#DejaVuSans-65" transform="translate(47.833984 0)"/>
      <use xlink:href="#DejaVuSans-61" transform="translate(109.357422 0)"/>
      <use xlink:href="#DejaVuSans-72" transform="translate(170.636719 0)"/>
      <use xlink:href="#DejaVuSans-20" transform="translate(211.75 0)"/>
      <use xlink:href="#DejaVuSans-61" transform="translate(243.537109 0)"/>
      <use xlink:href="#DejaVuSans-6e" transform="translate(304.816406 0)"/>
      <use xlink:href="#DejaVuSans-64" transform="translate(368.195312 0)"/>
      <use xlink:href="#DejaVuSans-20" transform="translate(431.671875 0)"/>
      <use xlink:href="#DejaVuSans-4d" transform="translate(463.458984 0)"/>
      <use xlink:href="#DejaVuSans-6f" transform="translate(549.738281 0)"/>
      <use xlink:href="#DejaVuSans-6e" transform="translate(610.919922 0)"/>
      <use xlink:href="#DejaVuSans-74" transform="translate(674.298828 0)"/>
      <use xlink:href="#DejaVuSans-68" transform="translate(713.507812 0)"/>
     </g>
    </g>
   </g>
   <g id="matplotlib.axis_2">
    <g id="ytick_1">
     <g id="line2d_8">
      <path d="M 50.87 462.04 
L 800.53 462.04 
" clip-path="url(#p53b3ecd421)" style="fill: none; stroke-dasharray: 2.96,1.28; stroke-dashoffset: 0; stroke: #b0b0b0; stroke-width: 0.8"/>
     </g>
     <g id="line2d_9">
      <defs>
       <path id="m98753d7eb0" d="M 0 0 
L -3.5 0 
" style="stroke: #000000; stroke-width: 0.8"/>
      </defs>
      <g>
       <use xlink:href="#m98753d7eb0" x="50.87" y="462.04" style="stroke: #000000; stroke-width: 0.8"/>
      </g>
     </g>
     <g id="text_9">
      <!-- 0 -->
      <g transform="translate(37.5075 465.839219) scale(0.1 -0.1)">
       <use xlink:href="#DejaVuSans-30"/>
      </g>
     </g>
    </g>
    <g id="ytick_2">
     <g id="line2d_10">
      <path d="M 50.87 374.416542 
L 800.53 374.416542 
" clip-path="url(#p53b3ecd421)" style="fill: none; stroke-dasharray: 2.96,1.28; stroke-dashoffset: 0; stroke: #b0b0b0; stroke-width: 0.8"/>
     </g>
     <g id="line2d_11">
      <g>
       <use xlink:href="#m98753d7eb0" x="50.87" y="374.416542" style="stroke: #000000; stroke-width: 0.8"/>
      </g>
     </g>
     <g id="text_10">
      <!-- 200 -->
      <g transform="translate(24.7825 378.21576) scale(0.1 -0.1)">
       <use xlink:href="#DejaVuSans-32"/>
       <use xlink:href="#DejaVuSans-30" transform="translate(63.623047 0)"/>
       <use xlink:href="#DejaVuSans-30" transform="translate(127.246094 0)"/>
      </g>
     </g>
    </g>
    <g id="ytick_3">
     <g id="line2d_12">
      <path d="M 50.87 286.793083 
L 800.53 286.793083 
" clip-path="url(#p53b3ecd421)" style="fill: none; stroke-dasharray: 2.96,1.28; stroke-dashoffset: 0; stroke: #b0b0b0; stroke-width: 0.8"/>
     </g>
     <g id="line2d_13">
      <g>
       <use xlink:href="#m98753d7eb0" x="50.87" y="286.793083" style="stroke: #000000; stroke-width: 0.8"/>
      </g>
     </g>
     <g id="text_11">
      <!-- 400 -->
      <g transform="translate(24.7825 290.592302) scale(0.1 -0.1)">
       <use xlink:href="#DejaVuSans-34"/>
       <use xlink:href="#DejaVuSans-30" transform="translate(63.623047 0)"/>
       <use xlink:href="#DejaVuSans-30" transform="translate(127.246094 0)"/>
      </g>
     </g>
    </g>
    <g id="ytick_4">
     <g id="line2d_14">
      <path d="M 50.87 199.169625 
L 800.53 199.169625 
" clip-path="url(#p53b3ecd421)" style="fill: none; stroke-dasharray: 2.96,1.28; stroke-dashoffset: 0; stroke: #b0b0b0; stroke-width: 0.8"/>
     </g>
     <g id="line2d_15">
      <g>
       <use xlink:href="#m98753d7eb0" x="50.87" y="199.169625" style="stroke: #000000; stroke-width: 0.8"/>
      </g>
     </g>
     <g id="text_12">
      <!-- 600 -->
      <g transform="translate(24.7825 202.968844) scale(0.1 -0.1)">
       <use xlink:href="#DejaVuSans-36"/>
       <use xlink:href="#DejaVuSans-30" transform="translate(63.623047 0)"/>
       <use xlink:href="#DejaVuSans-30" transform="translate(127.246094 0)"/>
      </g>
     </g>
    </g>
    <g id="ytick_5">
     <g id="line2d_16">
      <path d="M 50.87 111.546167 
L 800.53 111.546167 
" clip-path="url(#p53b3ecd421)" style="fill: none; stroke-dasharray: 2.96,1.28; stroke-dashoffset: 0; stroke: #b0b0b0; stroke-width: 0.8"/>
     </g>
     <g id="line2d_17">
      <g>
       <use xlink:href="#m98753d7eb0" x="50.87" y="111.546167" style="stroke: #000000; stroke-width: 0.8"/>
      </g>
     </g>
     <g id="text_13">
      <!-- 800 -->
      <g transform="translate(24.7825 115.345385) scale(0.1 -0.1)">
       <use xlink:href="#DejaVuSans-38"/>
       <use xlink:href="#DejaVuSans-30" transform="translate(63.623047 0)"/>
       <use xlink:href="#DejaVuSans-30" transform="translate(127.246094 0)"/>
      </g>
     </g>
    </g>
    <g id="text_14">
     <!-- Number of reported ASF Cases in Poland -->
     <g transform="translate(18.702813 345.977969) rotate(-90) scale(0.1 -0.1)">
      <defs>
       <path id="DejaVuSans-4e" d="M 628 4666 
L 1478 4666 
L 3547 763 
L 3547 4666 
L 4159 4666 
L 4159 0 
L 3309 0 
L 1241 3903 
L 1241 0 
L 628 0 
L 628 4666 
z
" transform="scale(0.015625)"/>
       <path id="DejaVuSans-75" d="M 544 1381 
L 544 3500 
L 1119 3500 
L 1119 1403 
Q 1119 906 1312 657 
Q 1506 409 1894 409 
Q 2359 409 2629 706 
Q 2900 1003 2900 1516 
L 2900 3500 
L 3475 3500 
L 3475 0 
L 2900 0 
L 2900 538 
Q 2691 219 2414 64 
Q 2138 -91 1772 -91 
Q 1169 -91 856 284 
Q 544 659 544 1381 
z
M 1991 3584 
L 1991 3584 
z
" transform="scale(0.015625)"/>
       <path id="DejaVuSans-6d" d="M 3328 2828 
Q 3544 3216 3844 3400 
Q 4144 3584 4550 3584 
Q 5097 3584 5394 3201 
Q 5691 2819 5691 2113 
L 5691 0 
L 5113 0 
L 5113 2094 
Q 5113 2597 4934 2840 
Q 4756 3084 4391 3084 
Q 3944 3084 3684 2787 
Q 3425 2491 3425 1978 
L 3425 0 
L 2847 0 
L 2847 2094 
Q 2847 2600 2669 2842 
Q 2491 3084 2119 3084 
Q 1678 3084 1418 2786 
Q 1159 2488 1159 1978 
L 1159 0 
L 581 0 
L 581 3500 
L 1159 3500 
L 1159 2956 
Q 1356 3278 1631 3431 
Q 1906 3584 2284 3584 
Q 2666 3584 2933 3390 
Q 3200 3197 3328 2828 
z
" transform="scale(0.015625)"/>
       <path id="DejaVuSans-62" d="M 3116 1747 
Q 3116 2381 2855 2742 
Q 2594 3103 2138 3103 
Q 1681 3103 1420 2742 
Q 1159 2381 1159 1747 
Q 1159 1113 1420 752 
Q 1681 391 2138 391 
Q 2594 391 2855 752 
Q 3116 1113 3116 1747 
z
M 1159 2969 
Q 1341 3281 1617 3432 
Q 1894 3584 2278 3584 
Q 2916 3584 3314 3078 
Q 3713 2572 3713 1747 
Q 3713 922 3314 415 
Q 2916 -91 2278 -91 
Q 1894 -91 1617 61 
Q 1341 213 1159 525 
L 1159 0 
L 581 0 
L 581 4863 
L 1159 4863 
L 1159 2969 
z
" transform="scale(0.015625)"/>
       <path id="DejaVuSans-66" d="M 2375 4863 
L 2375 4384 
L 1825 4384 
Q 1516 4384 1395 4259 
Q 1275 4134 1275 3809 
L 1275 3500 
L 2222 3500 
L 2222 3053 
L 1275 3053 
L 1275 0 
L 697 0 
L 697 3053 
L 147 3053 
L 147 3500 
L 697 3500 
L 697 3744 
Q 697 4328 969 4595 
Q 1241 4863 1831 4863 
L 2375 4863 
z
" transform="scale(0.015625)"/>
       <path id="DejaVuSans-70" d="M 1159 525 
L 1159 -1331 
L 581 -1331 
L 581 3500 
L 1159 3500 
L 1159 2969 
Q 1341 3281 1617 3432 
Q 1894 3584 2278 3584 
Q 2916 3584 3314 3078 
Q 3713 2572 3713 1747 
Q 3713 922 3314 415 
Q 2916 -91 2278 -91 
Q 1894 -91 1617 61 
Q 1341 213 1159 525 
z
M 3116 1747 
Q 3116 2381 2855 2742 
Q 2594 3103 2138 3103 
Q 1681 3103 1420 2742 
Q 1159 2381 1159 1747 
Q 1159 1113 1420 752 
Q 1681 391 2138 391 
Q 2594 391 2855 752 
Q 3116 1113 3116 1747 
z
" transform="scale(0.015625)"/>
       <path id="DejaVuSans-41" d="M 2188 4044 
L 1331 1722 
L 3047 1722 
L 2188 4044 
z
M 1831 4666 
L 2547 4666 
L 4325 0 
L 3669 0 
L 3244 1197 
L 1141 1197 
L 716 0 
L 50 0 
L 1831 4666 
z
" transform="scale(0.015625)"/>
       <path id="DejaVuSans-53" d="M 3425 4513 
L 3425 3897 
Q 3066 4069 2747 4153 
Q 2428 4238 2131 4238 
Q 1616 4238 1336 4038 
Q 1056 3838 1056 3469 
Q 1056 3159 1242 3001 
Q 1428 2844 1947 2747 
L 2328 2669 
Q 3034 2534 3370 2195 
Q 3706 1856 3706 1288 
Q 3706 609 3251 259 
Q 2797 -91 1919 -91 
Q 1588 -91 1214 -16 
Q 841 59 441 206 
L 441 856 
Q 825 641 1194 531 
Q 1563 422 1919 422 
Q 2459 422 2753 634 
Q 3047 847 3047 1241 
Q 3047 1584 2836 1778 
Q 2625 1972 2144 2069 
L 1759 2144 
Q 1053 2284 737 2584 
Q 422 2884 422 3419 
Q 422 4038 858 4394 
Q 1294 4750 2059 4750 
Q 2388 4750 2728 4690 
Q 3069 4631 3425 4513 
z
" transform="scale(0.015625)"/>
       <path id="DejaVuSans-46" d="M 628 4666 
L 3309 4666 
L 3309 4134 
L 1259 4134 
L 1259 2759 
L 3109 2759 
L 3109 2228 
L 1259 2228 
L 1259 0 
L 628 0 
L 628 4666 
z
" transform="scale(0.015625)"/>
       <path id="DejaVuSans-43" d="M 4122 4306 
L 4122 3641 
Q 3803 3938 3442 4084 
Q 3081 4231 2675 4231 
Q 1875 4231 1450 3742 
Q 1025 3253 1025 2328 
Q 1025 1406 1450 917 
Q 1875 428 2675 428 
Q 3081 428 3442 575 
Q 3803 722 4122 1019 
L 4122 359 
Q 3791 134 3420 21 
Q 3050 -91 2638 -91 
Q 1578 -91 968 557 
Q 359 1206 359 2328 
Q 359 3453 968 4101 
Q 1578 4750 2638 4750 
Q 3056 4750 3426 4639 
Q 3797 4528 4122 4306 
z
" transform="scale(0.015625)"/>
       <path id="DejaVuSans-73" d="M 2834 3397 
L 2834 2853 
Q 2591 2978 2328 3040 
Q 2066 3103 1784 3103 
Q 1356 3103 1142 2972 
Q 928 2841 928 2578 
Q 928 2378 1081 2264 
Q 1234 2150 1697 2047 
L 1894 2003 
Q 2506 1872 2764 1633 
Q 3022 1394 3022 966 
Q 3022 478 2636 193 
Q 2250 -91 1575 -91 
Q 1294 -91 989 -36 
Q 684 19 347 128 
L 347 722 
Q 666 556 975 473 
Q 1284 391 1588 391 
Q 1994 391 2212 530 
Q 2431 669 2431 922 
Q 2431 1156 2273 1281 
Q 2116 1406 1581 1522 
L 1381 1569 
Q 847 1681 609 1914 
Q 372 2147 372 2553 
Q 372 3047 722 3315 
Q 1072 3584 1716 3584 
Q 2034 3584 2315 3537 
Q 2597 3491 2834 3397 
z
" transform="scale(0.015625)"/>
       <path id="DejaVuSans-69" d="M 603 3500 
L 1178 3500 
L 1178 0 
L 603 0 
L 603 3500 
z
M 603 4863 
L 1178 4863 
L 1178 4134 
L 603 4134 
L 603 4863 
z
" transform="scale(0.015625)"/>
       <path id="DejaVuSans-50" d="M 1259 4147 
L 1259 2394 
L 2053 2394 
Q 2494 2394 2734 2622 
Q 2975 2850 2975 3272 
Q 2975 3691 2734 3919 
Q 2494 4147 2053 4147 
L 1259 4147 
z
M 628 4666 
L 2053 4666 
Q 2838 4666 3239 4311 
Q 3641 3956 3641 3272 
Q 3641 2581 3239 2228 
Q 2838 1875 2053 1875 
L 1259 1875 
L 1259 0 
L 628 0 
L 628 4666 
z
" transform="scale(0.015625)"/>
       <path id="DejaVuSans-6c" d="M 603 4863 
L 1178 4863 
L 1178 0 
L 603 0 
L 603 4863 
z
" transform="scale(0.015625)"/>
      </defs>
      <use xlink:href="#DejaVuSans-4e"/>
      <use xlink:href="#DejaVuSans-75" transform="translate(74.804688 0)"/>
      <use xlink:href="#DejaVuSans-6d" transform="translate(138.183594 0)"/>
      <use xlink:href="#DejaVuSans-62" transform="translate(235.595703 0)"/>
      <use xlink:href="#DejaVuSans-65" transform="translate(299.072266 0)"/>
      <use xlink:href="#DejaVuSans-72" transform="translate(360.595703 0)"/>
      <use xlink:href="#DejaVuSans-20" transform="translate(401.708984 0)"/>
      <use xlink:href="#DejaVuSans-6f" transform="translate(433.496094 0)"/>
      <use xlink:href="#DejaVuSans-66" transform="translate(494.677734 0)"/>
      <use xlink:href="#DejaVuSans-20" transform="translate(529.882812 0)"/>
      <use xlink:href="#DejaVuSans-72" transform="translate(561.669922 0)"/>
      <use xlink:href="#DejaVuSans-65" transform="translate(600.533203 0)"/>
      <use xlink:href="#DejaVuSans-70" transform="translate(662.056641 0)"/>
      <use xlink:href="#DejaVuSans-6f" transform="translate(725.533203 0)"/>
      <use xlink:href="#DejaVuSans-72" transform="translate(786.714844 0)"/>
      <use xlink:href="#DejaVuSans-74" transform="translate(827.828125 0)"/>
      <use xlink:href="#DejaVuSans-65" transform="translate(867.037109 0)"/>
      <use xlink:href="#DejaVuSans-64" transform="translate(928.560547 0)"/>
      <use xlink:href="#DejaVuSans-20" transform="translate(992.037109 0)"/>
      <use xlink:href="#DejaVuSans-41" transform="translate(1023.824219 0)"/>
      <use xlink:href="#DejaVuSans-53" transform="translate(1092.232422 0)"/>
      <use xlink:href="#DejaVuSans-46" transform="translate(1155.708984 0)"/>
      <use xlink:href="#DejaVuSans-20" transform="translate(1213.228516 0)"/>
      <use xlink:href="#DejaVuSans-43" transform="translate(1245.015625 0)"/>
      <use xlink:href="#DejaVuSans-61" transform="translate(1314.839844 0)"/>
      <use xlink:href="#DejaVuSans-73" transform="translate(1376.119141 0)"/>
      <use xlink:href="#DejaVuSans-65" transform="translate(1428.21875 0)"/>
      <use xlink:href="#DejaVuSans-73" transform="translate(1489.742188 0)"/>
      <use xlink:href="#DejaVuSans-20" transform="translate(1541.841797 0)"/>
      <use xlink:href="#DejaVuSans-69" transform="translate(1573.628906 0)"/>
      <use xlink:href="#DejaVuSans-6e" transform="translate(1601.412109 0)"/>
      <use xlink:href="#DejaVuSans-20" transform="translate(1664.791016 0)"/>
      <use xlink:href="#DejaVuSans-50" transform="translate(1696.578125 0)"/>
      <use xlink:href="#DejaVuSans-6f" transform="translate(1753.255859 0)"/>
      <use xlink:href="#DejaVuSans-6c" transform="translate(1814.4375 0)"/>
      <use xlink:href="#DejaVuSans-61" transform="translate(1842.220703 0)"/>
      <use xlink:href="#DejaVuSans-6e" transform="translate(1903.5 0)"/>
      <use xlink:href="#DejaVuSans-64" transform="translate(1966.878906 0)"/>
     </g>
    </g>
   </g>
   <g id="line2d_18">
    <path d="M 84.945455 461.163765 
L 99.390396 461.163765 
L 109.290861 458.973179 
L 114.322246 459.411296 
L 119.35363 461.601883 
L 124.222711 460.287531 
L 129.254095 461.163765 
L 134.123177 458.535062 
L 139.154561 461.163765 
L 144.185945 458.535062 
L 148.730421 459.411296 
L 153.761805 456.344475 
L 158.630886 459.411296 
L 163.66227 461.163765 
L 168.531352 458.096944 
L 173.562736 461.163765 
L 188.494585 461.601883 
L 193.363667 460.287531 
L 198.395051 460.287531 
L 208.133214 460.725648 
L 213.164598 460.725648 
L 218.033679 461.163765 
L 223.065063 460.725648 
L 227.934144 457.22071 
L 232.965529 453.715771 
L 237.996913 459.849414 
L 242.865994 458.535062 
L 247.897378 450.64895 
L 252.76646 455.030123 
L 257.797844 450.64895 
L 262.829228 445.391543 
L 267.373704 447.144012 
L 272.405088 451.087068 
L 277.274169 459.411296 
L 287.174635 430.495555 
L 292.206019 441.886605 
L 297.237403 441.448487 
L 302.106484 436.629197 
L 307.137868 437.505432 
L 312.00695 356.89185 
L 317.038334 360.834906 
L 322.069718 395.446172 
L 326.614194 257.001107 
L 331.645578 364.339844 
L 336.514659 405.960987 
L 341.546043 380.550184 
L 346.415125 356.015615 
L 351.446509 385.807591 
L 356.477893 404.646635 
L 361.346974 407.713456 
L 366.378358 416.475802 
L 371.24744 406.837221 
L 376.278824 394.13182 
L 381.310208 335.424103 
L 385.854684 401.579814 
L 390.886068 412.094629 
L 395.755149 405.084752 
L 400.786534 411.218394 
L 405.655615 419.98074 
L 410.686999 425.676265 
L 415.718383 352.510677 
L 420.587465 345.5008 
L 425.618849 445.82966 
L 430.48793 194.350335 
L 435.519314 377.045245 
L 445.257477 352.948794 
L 450.288861 387.56006 
L 455.157942 309.137065 
L 460.189326 210.122557 
L 465.058408 271.020861 
L 470.089792 453.715771 
L 475.121176 430.495555 
L 479.990257 457.658827 
L 485.021642 456.782592 
L 489.890723 424.80003 
L 494.922107 386.245709 
L 499.953491 416.475802 
L 509.529351 443.639074 
L 529.330282 47.581042 
L 534.361666 352.948794 
L 539.230748 415.599567 
L 544.262132 430.057438 
L 554.162597 421.733209 
L 559.193981 461.601883 
L 563.738457 241.228885 
L 568.769841 220.199255 
L 573.638923 412.094629 
L 578.670307 455.030123 
L 583.539388 391.941233 
L 588.570772 423.923796 
L 593.602156 428.743086 
L 598.471238 444.077191 
L 603.502622 403.332283 
L 608.371703 335.86222 
L 613.403087 300.374719 
L 618.434471 356.015615 
L 622.978947 305.19401 
L 628.010331 363.901727 
L 632.879413 287.669318 
L 637.910797 398.512993 
L 642.779878 369.159134 
L 647.811262 436.629197 
L 652.842647 397.198641 
L 657.711728 416.037684 
L 662.743112 405.084752 
L 667.612193 351.634442 
L 672.643577 416.037684 
L 677.674962 384.055122 
L 682.38174 370.473486 
L 687.413124 392.817468 
L 692.282206 400.265462 
L 697.31359 397.636758 
L 702.182671 403.7704 
L 707.214055 409.027808 
L 712.245439 394.569937 
L 717.114521 382.74077 
L 722.145905 396.322406 
L 727.014986 273.649565 
L 732.04637 228.523484 
L 737.077754 334.985985 
L 741.62223 243.419471 
L 746.653614 268.830274 
L 751.522696 281.535676 
L 756.55408 392.379351 
L 761.423161 395.446172 
L 766.454545 447.144012 
" clip-path="url(#p53b3ecd421)" style="fill: none; stroke: #87ceeb; stroke-width: 2; stroke-linecap: square"/>
    <defs>
     <path id="mad24dd781b" d="M 0 3 
C 0.795609 3 1.55874 2.683901 2.12132 2.12132 
C 2.683901 1.55874 3 0.795609 3 0 
C 3 -0.795609 2.683901 -1.55874 2.12132 -2.12132 
C 1.55874 -2.683901 0.795609 -3 0 -3 
C -0.795609 -3 -1.55874 -2.683901 -2.12132 -2.12132 
C -2.683901 -1.55874 -3 -0.795609 -3 0 
C -3 0.795609 -2.683901 1.55874 -2.12132 2.12132 
C -1.55874 2.683901 -0.795609 3 0 3 
z
" style="stroke: #87ceeb"/>
    </defs>
    <g clip-path="url(#p53b3ecd421)">
     <use xlink:href="#mad24dd781b" x="84.945455" y="461.163765" style="fill: #87ceeb; stroke: #87ceeb"/>
     <use xlink:href="#mad24dd781b" x="99.390396" y="461.163765" style="fill: #87ceeb; stroke: #87ceeb"/>
     <use xlink:href="#mad24dd781b" x="109.290861" y="458.973179" style="fill: #87ceeb; stroke: #87ceeb"/>
     <use xlink:href="#mad24dd781b" x="114.322246" y="459.411296" style="fill: #87ceeb; stroke: #87ceeb"/>
     <use xlink:href="#mad24dd781b" x="119.35363" y="461.601883" style="fill: #87ceeb; stroke: #87ceeb"/>
     <use xlink:href="#mad24dd781b" x="124.222711" y="460.287531" style="fill: #87ceeb; stroke: #87ceeb"/>
     <use xlink:href="#mad24dd781b" x="129.254095" y="461.163765" style="fill: #87ceeb; stroke: #87ceeb"/>
     <use xlink:href="#mad24dd781b" x="134.123177" y="458.535062" style="fill: #87ceeb; stroke: #87ceeb"/>
     <use xlink:href="#mad24dd781b" x="139.154561" y="461.163765" style="fill: #87ceeb; stroke: #87ceeb"/>
     <use xlink:href="#mad24dd781b" x="144.185945" y="458.535062" style="fill: #87ceeb; stroke: #87ceeb"/>
     <use xlink:href="#mad24dd781b" x="148.730421" y="459.411296" style="fill: #87ceeb; stroke: #87ceeb"/>
     <use xlink:href="#mad24dd781b" x="153.761805" y="456.344475" style="fill: #87ceeb; stroke: #87ceeb"/>
     <use xlink:href="#mad24dd781b" x="158.630886" y="459.411296" style="fill: #87ceeb; stroke: #87ceeb"/>
     <use xlink:href="#mad24dd781b" x="163.66227" y="461.163765" style="fill: #87ceeb; stroke: #87ceeb"/>
     <use xlink:href="#mad24dd781b" x="168.531352" y="458.096944" style="fill: #87ceeb; stroke: #87ceeb"/>
     <use xlink:href="#mad24dd781b" x="173.562736" y="461.163765" style="fill: #87ceeb; stroke: #87ceeb"/>
     <use xlink:href="#mad24dd781b" x="188.494585" y="461.601883" style="fill: #87ceeb; stroke: #87ceeb"/>
     <use xlink:href="#mad24dd781b" x="193.363667" y="460.287531" style="fill: #87ceeb; stroke: #87ceeb"/>
     <use xlink:href="#mad24dd781b" x="198.395051" y="460.287531" style="fill: #87ceeb; stroke: #87ceeb"/>
     <use xlink:href="#mad24dd781b" x="208.133214" y="460.725648" style="fill: #87ceeb; stroke: #87ceeb"/>
     <use xlink:href="#mad24dd781b" x="213.164598" y="460.725648" style="fill: #87ceeb; stroke: #87ceeb"/>
     <use xlink:href="#mad24dd781b" x="218.033679" y="461.163765" style="fill: #87ceeb; stroke: #87ceeb"/>
     <use xlink:href="#mad24dd781b" x="223.065063" y="460.725648" style="fill: #87ceeb; stroke: #87ceeb"/>
     <use xlink:href="#mad24dd781b" x="227.934144" y="457.22071" style="fill: #87ceeb; stroke: #87ceeb"/>
     <use xlink:href="#mad24dd781b" x="232.965529" y="453.715771" style="fill: #87ceeb; stroke: #87ceeb"/>
     <use xlink:href="#mad24dd781b" x="237.996913" y="459.849414" style="fill: #87ceeb; stroke: #87ceeb"/>
     <use xlink:href="#mad24dd781b" x="242.865994" y="458.535062" style="fill: #87ceeb; stroke: #87ceeb"/>
     <use xlink:href="#mad24dd781b" x="247.897378" y="450.64895" style="fill: #87ceeb; stroke: #87ceeb"/>
     <use xlink:href="#mad24dd781b" x="252.76646" y="455.030123" style="fill: #87ceeb; stroke: #87ceeb"/>
     <use xlink:href="#mad24dd781b" x="257.797844" y="450.64895" style="fill: #87ceeb; stroke: #87ceeb"/>
     <use xlink:href="#mad24dd781b" x="262.829228" y="445.391543" style="fill: #87ceeb; stroke: #87ceeb"/>
     <use xlink:href="#mad24dd781b" x="267.373704" y="447.144012" style="fill: #87ceeb; stroke: #87ceeb"/>
     <use xlink:href="#mad24dd781b" x="272.405088" y="451.087068" style="fill: #87ceeb; stroke: #87ceeb"/>
     <use xlink:href="#mad24dd781b" x="277.274169" y="459.411296" style="fill: #87ceeb; stroke: #87ceeb"/>
     <use xlink:href="#mad24dd781b" x="287.174635" y="430.495555" style="fill: #87ceeb; stroke: #87ceeb"/>
     <use xlink:href="#mad24dd781b" x="292.206019" y="441.886605" style="fill: #87ceeb; stroke: #87ceeb"/>
     <use xlink:href="#mad24dd781b" x="297.237403" y="441.448487" style="fill: #87ceeb; stroke: #87ceeb"/>
     <use xlink:href="#mad24dd781b" x="302.106484" y="436.629197" style="fill: #87ceeb; stroke: #87ceeb"/>
     <use xlink:href="#mad24dd781b" x="307.137868" y="437.505432" style="fill: #87ceeb; stroke: #87ceeb"/>
     <use xlink:href="#mad24dd781b" x="312.00695" y="356.89185" style="fill: #87ceeb; stroke: #87ceeb"/>
     <use xlink:href="#mad24dd781b" x="317.038334" y="360.834906" style="fill: #87ceeb; stroke: #87ceeb"/>
     <use xlink:href="#mad24dd781b" x="322.069718" y="395.446172" style="fill: #87ceeb; stroke: #87ceeb"/>
     <use xlink:href="#mad24dd781b" x="326.614194" y="257.001107" style="fill: #87ceeb; stroke: #87ceeb"/>
     <use xlink:href="#mad24dd781b" x="331.645578" y="364.339844" style="fill: #87ceeb; stroke: #87ceeb"/>
     <use xlink:href="#mad24dd781b" x="336.514659" y="405.960987" style="fill: #87ceeb; stroke: #87ceeb"/>
     <use xlink:href="#mad24dd781b" x="341.546043" y="380.550184" style="fill: #87ceeb; stroke: #87ceeb"/>
     <use xlink:href="#mad24dd781b" x="346.415125" y="356.015615" style="fill: #87ceeb; stroke: #87ceeb"/>
     <use xlink:href="#mad24dd781b" x="351.446509" y="385.807591" style="fill: #87ceeb; stroke: #87ceeb"/>
     <use xlink:href="#mad24dd781b" x="356.477893" y="404.646635" style="fill: #87ceeb; stroke: #87ceeb"/>
     <use xlink:href="#mad24dd781b" x="361.346974" y="407.713456" style="fill: #87ceeb; stroke: #87ceeb"/>
     <use xlink:href="#mad24dd781b" x="366.378358" y="416.475802" style="fill: #87ceeb; stroke: #87ceeb"/>
     <use xlink:href="#mad24dd781b" x="371.24744" y="406.837221" style="fill: #87ceeb; stroke: #87ceeb"/>
     <use xlink:href="#mad24dd781b" x="376.278824" y="394.13182" style="fill: #87ceeb; stroke: #87ceeb"/>
     <use xlink:href="#mad24dd781b" x="381.310208" y="335.424103" style="fill: #87ceeb; stroke: #87ceeb"/>
     <use xlink:href="#mad24dd781b" x="385.854684" y="401.579814" style="fill: #87ceeb; stroke: #87ceeb"/>
     <use xlink:href="#mad24dd781b" x="390.886068" y="412.094629" style="fill: #87ceeb; stroke: #87ceeb"/>
     <use xlink:href="#mad24dd781b" x="395.755149" y="405.084752" style="fill: #87ceeb; stroke: #87ceeb"/>
     <use xlink:href="#mad24dd781b" x="400.786534" y="411.218394" style="fill: #87ceeb; stroke: #87ceeb"/>
     <use xlink:href="#mad24dd781b" x="405.655615" y="419.98074" style="fill: #87ceeb; stroke: #87ceeb"/>
     <use xlink:href="#mad24dd781b" x="410.686999" y="425.676265" style="fill: #87ceeb; stroke: #87ceeb"/>
     <use xlink:href="#mad24dd781b" x="415.718383" y="352.510677" style="fill: #87ceeb; stroke: #87ceeb"/>
     <use xlink:href="#mad24dd781b" x="420.587465" y="345.5008" style="fill: #87ceeb; stroke: #87ceeb"/>
     <use xlink:href="#mad24dd781b" x="425.618849" y="445.82966" style="fill: #87ceeb; stroke: #87ceeb"/>
     <use xlink:href="#mad24dd781b" x="430.48793" y="194.350335" style="fill: #87ceeb; stroke: #87ceeb"/>
     <use xlink:href="#mad24dd781b" x="435.519314" y="377.045245" style="fill: #87ceeb; stroke: #87ceeb"/>
     <use xlink:href="#mad24dd781b" x="445.257477" y="352.948794" style="fill: #87ceeb; stroke: #87ceeb"/>
     <use xlink:href="#mad24dd781b" x="450.288861" y="387.56006" style="fill: #87ceeb; stroke: #87ceeb"/>
     <use xlink:href="#mad24dd781b" x="455.157942" y="309.137065" style="fill: #87ceeb; stroke: #87ceeb"/>
     <use xlink:href="#mad24dd781b" x="460.189326" y="210.122557" style="fill: #87ceeb; stroke: #87ceeb"/>
     <use xlink:href="#mad24dd781b" x="465.058408" y="271.020861" style="fill: #87ceeb; stroke: #87ceeb"/>
     <use xlink:href="#mad24dd781b" x="470.089792" y="453.715771" style="fill: #87ceeb; stroke: #87ceeb"/>
     <use xlink:href="#mad24dd781b" x="475.121176" y="430.495555" style="fill: #87ceeb; stroke: #87ceeb"/>
     <use xlink:href="#mad24dd781b" x="479.990257" y="457.658827" style="fill: #87ceeb; stroke: #87ceeb"/>
     <use xlink:href="#mad24dd781b" x="485.021642" y="456.782592" style="fill: #87ceeb; stroke: #87ceeb"/>
     <use xlink:href="#mad24dd781b" x="489.890723" y="424.80003" style="fill: #87ceeb; stroke: #87ceeb"/>
     <use xlink:href="#mad24dd781b" x="494.922107" y="386.245709" style="fill: #87ceeb; stroke: #87ceeb"/>
     <use xlink:href="#mad24dd781b" x="499.953491" y="416.475802" style="fill: #87ceeb; stroke: #87ceeb"/>
     <use xlink:href="#mad24dd781b" x="509.529351" y="443.639074" style="fill: #87ceeb; stroke: #87ceeb"/>
     <use xlink:href="#mad24dd781b" x="529.330282" y="47.581042" style="fill: #87ceeb; stroke: #87ceeb"/>
     <use xlink:href="#mad24dd781b" x="534.361666" y="352.948794" style="fill: #87ceeb; stroke: #87ceeb"/>
     <use xlink:href="#mad24dd781b" x="539.230748" y="415.599567" style="fill: #87ceeb; stroke: #87ceeb"/>
     <use xlink:href="#mad24dd781b" x="544.262132" y="430.057438" style="fill: #87ceeb; stroke: #87ceeb"/>
     <use xlink:href="#mad24dd781b" x="554.162597" y="421.733209" style="fill: #87ceeb; stroke: #87ceeb"/>
     <use xlink:href="#mad24dd781b" x="559.193981" y="461.601883" style="fill: #87ceeb; stroke: #87ceeb"/>
     <use xlink:href="#mad24dd781b" x="563.738457" y="241.228885" style="fill: #87ceeb; stroke: #87ceeb"/>
     <use xlink:href="#mad24dd781b" x="568.769841" y="220.199255" style="fill: #87ceeb; stroke: #87ceeb"/>
     <use xlink:href="#mad24dd781b" x="573.638923" y="412.094629" style="fill: #87ceeb; stroke: #87ceeb"/>
     <use xlink:href="#mad24dd781b" x="578.670307" y="455.030123" style="fill: #87ceeb; stroke: #87ceeb"/>
     <use xlink:href="#mad24dd781b" x="583.539388" y="391.941233" style="fill: #87ceeb; stroke: #87ceeb"/>
     <use xlink:href="#mad24dd781b" x="588.570772" y="423.923796" style="fill: #87ceeb; stroke: #87ceeb"/>
     <use xlink:href="#mad24dd781b" x="593.602156" y="428.743086" style="fill: #87ceeb; stroke: #87ceeb"/>
     <use xlink:href="#mad24dd781b" x="598.471238" y="444.077191" style="fill: #87ceeb; stroke: #87ceeb"/>
     <use xlink:href="#mad24dd781b" x="603.502622" y="403.332283" style="fill: #87ceeb; stroke: #87ceeb"/>
     <use xlink:href="#mad24dd781b" x="608.371703" y="335.86222" style="fill: #87ceeb; stroke: #87ceeb"/>
     <use xlink:href="#mad24dd781b" x="613.403087" y="300.374719" style="fill: #87ceeb; stroke: #87ceeb"/>
     <use xlink:href="#mad24dd781b" x="618.434471" y="356.015615" style="fill: #87ceeb; stroke: #87ceeb"/>
     <use xlink:href="#mad24dd781b" x="622.978947" y="305.19401" style="fill: #87ceeb; stroke: #87ceeb"/>
     <use xlink:href="#mad24dd781b" x="628.010331" y="363.901727" style="fill: #87ceeb; stroke: #87ceeb"/>
     <use xlink:href="#mad24dd781b" x="632.879413" y="287.669318" style="fill: #87ceeb; stroke: #87ceeb"/>
     <use xlink:href="#mad24dd781b" x="637.910797" y="398.512993" style="fill: #87ceeb; stroke: #87ceeb"/>
     <use xlink:href="#mad24dd781b" x="642.779878" y="369.159134" style="fill: #87ceeb; stroke: #87ceeb"/>
     <use xlink:href="#mad24dd781b" x="647.811262" y="436.629197" style="fill: #87ceeb; stroke: #87ceeb"/>
     <use xlink:href="#mad24dd781b" x="652.842647" y="397.198641" style="fill: #87ceeb; stroke: #87ceeb"/>
     <use xlink:href="#mad24dd781b" x="657.711728" y="416.037684" style="fill: #87ceeb; stroke: #87ceeb"/>
     <use xlink:href="#mad24dd781b" x="662.743112" y="405.084752" style="fill: #87ceeb; stroke: #87ceeb"/>
     <use xlink:href="#mad24dd781b" x="667.612193" y="351.634442" style="fill: #87ceeb; stroke: #87ceeb"/>
     <use xlink:href="#mad24dd781b" x="672.643577" y="416.037684" style="fill: #87ceeb; stroke: #87ceeb"/>
     <use xlink:href="#mad24dd781b" x="677.674962" y="384.055122" style="fill: #87ceeb; stroke: #87ceeb"/>
     <use xlink:href="#mad24dd781b" x="682.38174" y="370.473486" style="fill: #87ceeb; stroke: #87ceeb"/>
     <use xlink:href="#mad24dd781b" x="687.413124" y="392.817468" style="fill: #87ceeb; stroke: #87ceeb"/>
     <use xlink:href="#mad24dd781b" x="692.282206" y="400.265462" style="fill: #87ceeb; stroke: #87ceeb"/>
     <use xlink:href="#mad24dd781b" x="697.31359" y="397.636758" style="fill: #87ceeb; stroke: #87ceeb"/>
     <use xlink:href="#mad24dd781b" x="702.182671" y="403.7704" style="fill: #87ceeb; stroke: #87ceeb"/>
     <use xlink:href="#mad24dd781b" x="707.214055" y="409.027808" style="fill: #87ceeb; stroke: #87ceeb"/>
     <use xlink:href="#mad24dd781b" x="712.245439" y="394.569937" style="fill: #87ceeb; stroke: #87ceeb"/>
     <use xlink:href="#mad24dd781b" x="717.114521" y="382.74077" style="fill: #87ceeb; stroke: #87ceeb"/>
     <use xlink:href="#mad24dd781b" x="722.145905" y="396.322406" style="fill: #87ceeb; stroke: #87ceeb"/>
     <use xlink:href="#mad24dd781b" x="727.014986" y="273.649565" style="fill: #87ceeb; stroke: #87ceeb"/>
     <use xlink:href="#mad24dd781b" x="732.04637" y="228.523484" style="fill: #87ceeb; stroke: #87ceeb"/>
     <use xlink:href="#mad24dd781b" x="737.077754" y="334.985985" style="fill: #87ceeb; stroke: #87ceeb"/>
     <use xlink:href="#mad24dd781b" x="741.62223" y="243.419471" style="fill: #87ceeb; stroke: #87ceeb"/>
     <use xlink:href="#mad24dd781b" x="746.653614" y="268.830274" style="fill: #87ceeb; stroke: #87ceeb"/>
     <use xlink:href="#mad24dd781b" x="751.522696" y="281.535676" style="fill: #87ceeb; stroke: #87ceeb"/>
     <use xlink:href="#mad24dd781b" x="756.55408" y="392.379351" style="fill: #87ceeb; stroke: #87ceeb"/>
     <use xlink:href="#mad24dd781b" x="761.423161" y="395.446172" style="fill: #87ceeb; stroke: #87ceeb"/>
     <use xlink:href="#mad24dd781b" x="766.454545" y="447.144012" style="fill: #87ceeb; stroke: #87ceeb"/>
    </g>
   </g>
   <g id="patch_3">
    <path d="M 50.87 462.04 
L 50.87 26.88 
" style="fill: none; stroke: #000000; stroke-width: 0.8; stroke-linejoin: miter; stroke-linecap: square"/>
   </g>
   <g id="patch_4">
    <path d="M 800.53 462.04 
L 800.53 26.88 
" style="fill: none; stroke: #000000; stroke-width: 0.8; stroke-linejoin: miter; stroke-linecap: square"/>
   </g>
   <g id="patch_5">
    <path d="M 50.87 462.04 
L 800.53 462.04 
" style="fill: none; stroke: #000000; stroke-width: 0.8; stroke-linejoin: miter; stroke-linecap: square"/>
   </g>
   <g id="patch_6">
    <path d="M 50.87 26.88 
L 800.53 26.88 
" style="fill: none; stroke: #000000; stroke-width: 0.8; stroke-linejoin: miter; stroke-linecap: square"/>
   </g>
   <g id="text_15">
    <!-- Herd size and number of reported ASF cases in Poland -->
    <g transform="translate(262.438125 20.88) scale(0.12 -0.12)">
     <defs>
      <path id="DejaVuSans-48" d="M 628 4666 
L 1259 4666 
L 1259 2753 
L 3553 2753 
L 3553 4666 
L 4184 4666 
L 4184 0 
L 3553 0 
L 3553 2222 
L 1259 2222 
L 1259 0 
L 628 0 
L 628 4666 
z
" transform="scale(0.015625)"/>
      <path id="DejaVuSans-7a" d="M 353 3500 
L 3084 3500 
L 3084 2975 
L 922 459 
L 3084 459 
L 3084 0 
L 275 0 
L 275 525 
L 2438 3041 
L 353 3041 
L 353 3500 
z
" transform="scale(0.015625)"/>
      <path id="DejaVuSans-63" d="M 3122 3366 
L 3122 2828 
Q 2878 2963 2633 3030 
Q 2388 3097 2138 3097 
Q 1578 3097 1268 2742 
Q 959 2388 959 1747 
Q 959 1106 1268 751 
Q 1578 397 2138 397 
Q 2388 397 2633 464 
Q 2878 531 3122 666 
L 3122 134 
Q 2881 22 2623 -34 
Q 2366 -91 2075 -91 
Q 1284 -91 818 406 
Q 353 903 353 1747 
Q 353 2603 823 3093 
Q 1294 3584 2113 3584 
Q 2378 3584 2631 3529 
Q 2884 3475 3122 3366 
z
" transform="scale(0.015625)"/>
     </defs>
     <use xlink:href="#DejaVuSans-48"/>
     <use xlink:href="#DejaVuSans-65" transform="translate(75.195312 0)"/>
     <use xlink:href="#DejaVuSans-72" transform="translate(136.71875 0)"/>
     <use xlink:href="#DejaVuSans-64" transform="translate(176.082031 0)"/>
     <use xlink:href="#DejaVuSans-20" transform="translate(239.558594 0)"/>
     <use xlink:href="#DejaVuSans-73" transform="translate(271.345703 0)"/>
     <use xlink:href="#DejaVuSans-69" transform="translate(323.445312 0)"/>
     <use xlink:href="#DejaVuSans-7a" transform="translate(351.228516 0)"/>
     <use xlink:href="#DejaVuSans-65" transform="translate(403.71875 0)"/>
     <use xlink:href="#DejaVuSans-20" transform="translate(465.242188 0)"/>
     <use xlink:href="#DejaVuSans-61" transform="translate(497.029297 0)"/>
     <use xlink:href="#DejaVuSans-6e" transform="translate(558.308594 0)"/>
     <use xlink:href="#DejaVuSans-64" transform="translate(621.6875 0)"/>
     <use xlink:href="#DejaVuSans-20" transform="translate(685.164062 0)"/>
     <use xlink:href="#DejaVuSans-6e" transform="translate(716.951172 0)"/>
     <use xlink:href="#DejaVuSans-75" transform="translate(780.330078 0)"/>
     <use xlink:href="#DejaVuSans-6d" transform="translate(843.708984 0)"/>
     <use xlink:href="#DejaVuSans-62" transform="translate(941.121094 0)"/>
     <use xlink:href="#DejaVuSans-65" transform="translate(1004.597656 0)"/>
     <use xlink:href="#DejaVuSans-72" transform="translate(1066.121094 0)"/>
     <use xlink:href="#DejaVuSans-20" transform="translate(1107.234375 0)"/>
     <use xlink:href="#DejaVuSans-6f" transform="translate(1139.021484 0)"/>
     <use xlink:href="#DejaVuSans-66" transform="translate(1200.203125 0)"/>
     <use xlink:href="#DejaVuSans-20" transform="translate(1235.408203 0)"/>
     <use xlink:href="#DejaVuSans-72" transform="translate(1267.195312 0)"/>
     <use xlink:href="#DejaVuSans-65" transform="translate(1306.058594 0)"/>
     <use xlink:href="#DejaVuSans-70" transform="translate(1367.582031 0)"/>
     <use xlink:href="#DejaVuSans-6f" transform="translate(1431.058594 0)"/>
     <use xlink:href="#DejaVuSans-72" transform="translate(1492.240234 0)"/>
     <use xlink:href="#DejaVuSans-74" transform="translate(1533.353516 0)"/>
     <use xlink:href="#DejaVuSans-65" transform="translate(1572.5625 0)"/>
     <use xlink:href="#DejaVuSans-64" transform="translate(1634.085938 0)"/>
     <use xlink:href="#DejaVuSans-20" transform="translate(1697.5625 0)"/>
     <use xlink:href="#DejaVuSans-41" transform="translate(1729.349609 0)"/>
     <use xlink:href="#DejaVuSans-53" transform="translate(1797.757812 0)"/>
     <use xlink:href="#DejaVuSans-46" transform="translate(1861.234375 0)"/>
     <use xlink:href="#DejaVuSans-20" transform="translate(1918.753906 0)"/>
     <use xlink:href="#DejaVuSans-63" transform="translate(1950.541016 0)"/>
     <use xlink:href="#DejaVuSans-61" transform="translate(2005.521484 0)"/>
     <use xlink:href="#DejaVuSans-73" transform="translate(2066.800781 0)"/>
     <use xlink:href="#DejaVuSans-65" transform="translate(2118.900391 0)"/>
     <use xlink:href="#DejaVuSans-73" transform="translate(2180.423828 0)"/>
     <use xlink:href="#DejaVuSans-20" transform="translate(2232.523438 0)"/>
     <use xlink:href="#DejaVuSans-69" transform="translate(2264.310547 0)"/>
     <use xlink:href="#DejaVuSans-6e" transform="translate(2292.09375 0)"/>
     <use xlink:href="#DejaVuSans-20" transform="translate(2355.472656 0)"/>
     <use xlink:href="#DejaVuSans-50" transform="translate(2387.259766 0)"/>
     <use xlink:href="#DejaVuSans-6f" transform="translate(2443.9375 0)"/>
     <use xlink:href="#DejaVuSans-6c" transform="translate(2505.119141 0)"/>
     <use xlink:href="#DejaVuSans-61" transform="translate(2532.902344 0)"/>
     <use xlink:href="#DejaVuSans-6e" transform="translate(2594.181641 0)"/>
     <use xlink:href="#DejaVuSans-64" transform="translate(2657.560547 0)"/>
    </g>
   </g>
   <g id="legend_1">
    <g id="patch_7">
     <path d="M 57.87 64.23625 
L 292.905938 64.23625 
Q 294.905938 64.23625 294.905938 62.23625 
L 294.905938 33.88 
Q 294.905938 31.88 292.905938 31.88 
L 57.87 31.88 
Q 55.87 31.88 55.87 33.88 
L 55.87 62.23625 
Q 55.87 64.23625 57.87 64.23625 
z
" style="fill: #ffffff; opacity: 0.8; stroke: #cccccc; stroke-linejoin: miter"/>
    </g>
    <g id="line2d_19">
     <path d="M 59.87 39.978437 
L 69.87 39.978437 
L 79.87 39.978437 
" style="fill: none; stroke: #87ceeb; stroke-width: 2; stroke-linecap: square"/>
     <g>
      <use xlink:href="#mad24dd781b" x="69.87" y="39.978437" style="fill: #87ceeb; stroke: #87ceeb"/>
     </g>
    </g>
    <g id="text_16">
     <!-- Number of reported ASF Cases in Poland -->
     <g transform="translate(87.87 43.478437) scale(0.1 -0.1)">
      <use xlink:href="#DejaVuSans-4e"/>
      <use xlink:href="#DejaVuSans-75" transform="translate(74.804688 0)"/>
      <use xlink:href="#DejaVuSans-6d" transform="translate(138.183594 0)"/>
      <use xlink:href="#DejaVuSans-62" transform="translate(235.595703 0)"/>
      <use xlink:href="#DejaVuSans-65" transform="translate(299.072266 0)"/>
      <use xlink:href="#DejaVuSans-72" transform="translate(360.595703 0)"/>
      <use xlink:href="#DejaVuSans-20" transform="translate(401.708984 0)"/>
      <use xlink:href="#DejaVuSans-6f" transform="translate(433.496094 0)"/>
      <use xlink:href="#DejaVuSans-66" transform="translate(494.677734 0)"/>
      <use xlink:href="#DejaVuSans-20" transform="translate(529.882812 0)"/>
      <use xlink:href="#DejaVuSans-72" transform="translate(561.669922 0)"/>
      <use xlink:href="#DejaVuSans-65" transform="translate(600.533203 0)"/>
      <use xlink:href="#DejaVuSans-70" transform="translate(662.056641 0)"/>
      <use xlink:href="#DejaVuSans-6f" transform="translate(725.533203 0)"/>
      <use xlink:href="#DejaVuSans-72" transform="translate(786.714844 0)"/>
      <use xlink:href="#DejaVuSans-74" transform="translate(827.828125 0)"/>
      <use xlink:href="#DejaVuSans-65" transform="translate(867.037109 0)"/>
      <use xlink:href="#DejaVuSans-64" transform="translate(928.560547 0)"/>
      <use xlink:href="#DejaVuSans-20" transform="translate(992.037109 0)"/>
      <use xlink:href="#DejaVuSans-41" transform="translate(1023.824219 0)"/>
      <use xlink:href="#DejaVuSans-53" transform="translate(1092.232422 0)"/>
      <use xlink:href="#DejaVuSans-46" transform="translate(1155.708984 0)"/>
      <use xlink:href="#DejaVuSans-20" transform="translate(1213.228516 0)"/>
      <use xlink:href="#DejaVuSans-43" transform="translate(1245.015625 0)"/>
      <use xlink:href="#DejaVuSans-61" transform="translate(1314.839844 0)"/>
      <use xlink:href="#DejaVuSans-73" transform="translate(1376.119141 0)"/>
      <use xlink:href="#DejaVuSans-65" transform="translate(1428.21875 0)"/>
      <use xlink:href="#DejaVuSans-73" transform="translate(1489.742188 0)"/>
      <use xlink:href="#DejaVuSans-20" transform="translate(1541.841797 0)"/>
      <use xlink:href="#DejaVuSans-69" transform="translate(1573.628906 0)"/>
      <use xlink:href="#DejaVuSans-6e" transform="translate(1601.412109 0)"/>
      <use xlink:href="#DejaVuSans-20" transform="translate(1664.791016 0)"/>
      <use xlink:href="#DejaVuSans-50" transform="translate(1696.578125 0)"/>
      <use xlink:href="#DejaVuSans-6f" transform="translate(1753.255859 0)"/>
      <use xlink:href="#DejaVuSans-6c" transform="translate(1814.4375 0)"/>
      <use xlink:href="#DejaVuSans-61" transform="translate(1842.220703 0)"/>
      <use xlink:href="#DejaVuSans-6e" transform="translate(1903.5 0)"/>
      <use xlink:href="#DejaVuSans-64" transform="translate(1966.878906 0)"/>
     </g>
    </g>
    <g id="line2d_20">
     <path d="M 59.87 54.656562 
L 69.87 54.656562 
L 79.87 54.656562 
" style="fill: none; stroke: #ff8c00; stroke-width: 2; stroke-linecap: square"/>
     <defs>
      <path id="mb443a5c200" d="M 0 3 
C 0.795609 3 1.55874 2.683901 2.12132 2.12132 
C 2.683901 1.55874 3 0.795609 3 0 
C 3 -0.795609 2.683901 -1.55874 2.12132 -2.12132 
C 1.55874 -2.683901 0.795609 -3 0 -3 
C -0.795609 -3 -1.55874 -2.683901 -2.12132 -2.12132 
C -2.683901 -1.55874 -3 -0.795609 -3 0 
C -3 0.795609 -2.683901 1.55874 -2.12132 2.12132 
C -1.55874 2.683901 -0.795609 3 0 3 
z
" style="stroke: #ff8c00"/>
     </defs>
     <g>
      <use xlink:href="#mb443a5c200" x="69.87" y="54.656562" style="fill: #ff8c00; stroke: #ff8c00"/>
     </g>
    </g>
    <g id="text_17">
     <!-- Herd size (Thousand Heads) -->
     <g transform="translate(87.87 58.156562) scale(0.1 -0.1)">
      <defs>
       <path id="DejaVuSans-28" d="M 1984 4856 
Q 1566 4138 1362 3434 
Q 1159 2731 1159 2009 
Q 1159 1288 1364 580 
Q 1569 -128 1984 -844 
L 1484 -844 
Q 1016 -109 783 600 
Q 550 1309 550 2009 
Q 550 2706 781 3412 
Q 1013 4119 1484 4856 
L 1984 4856 
z
" transform="scale(0.015625)"/>
       <path id="DejaVuSans-54" d="M -19 4666 
L 3928 4666 
L 3928 4134 
L 2272 4134 
L 2272 0 
L 1638 0 
L 1638 4134 
L -19 4134 
L -19 4666 
z
" transform="scale(0.015625)"/>
       <path id="DejaVuSans-29" d="M 513 4856 
L 1013 4856 
Q 1481 4119 1714 3412 
Q 1947 2706 1947 2009 
Q 1947 1309 1714 600 
Q 1481 -109 1013 -844 
L 513 -844 
Q 928 -128 1133 580 
Q 1338 1288 1338 2009 
Q 1338 2731 1133 3434 
Q 928 4138 513 4856 
z
" transform="scale(0.015625)"/>
      </defs>
      <use xlink:href="#DejaVuSans-48"/>
      <use xlink:href="#DejaVuSans-65" transform="translate(75.195312 0)"/>
      <use xlink:href="#DejaVuSans-72" transform="translate(136.71875 0)"/>
      <use xlink:href="#DejaVuSans-64" transform="translate(176.082031 0)"/>
      <use xlink:href="#DejaVuSans-20" transform="translate(239.558594 0)"/>
      <use xlink:href="#DejaVuSans-73" transform="translate(271.345703 0)"/>
      <use xlink:href="#DejaVuSans-69" transform="translate(323.445312 0)"/>
      <use xlink:href="#DejaVuSans-7a" transform="translate(351.228516 0)"/>
      <use xlink:href="#DejaVuSans-65" transform="translate(403.71875 0)"/>
      <use xlink:href="#DejaVuSans-20" transform="translate(465.242188 0)"/>
      <use xlink:href="#DejaVuSans-28" transform="translate(497.029297 0)"/>
      <use xlink:href="#DejaVuSans-54" transform="translate(536.042969 0)"/>
      <use xlink:href="#DejaVuSans-68" transform="translate(597.126953 0)"/>
      <use xlink:href="#DejaVuSans-6f" transform="translate(660.505859 0)"/>
      <use xlink:href="#DejaVuSans-75" transform="translate(721.6875 0)"/>
      <use xlink:href="#DejaVuSans-73" transform="translate(785.066406 0)"/>
      <use xlink:href="#DejaVuSans-61" transform="translate(837.166016 0)"/>
      <use xlink:href="#DejaVuSans-6e" transform="translate(898.445312 0)"/>
      <use xlink:href="#DejaVuSans-64" transform="translate(961.824219 0)"/>
      <use xlink:href="#DejaVuSans-20" transform="translate(1025.300781 0)"/>
      <use xlink:href="#DejaVuSans-48" transform="translate(1057.087891 0)"/>
      <use xlink:href="#DejaVuSans-65" transform="translate(1132.283203 0)"/>
      <use xlink:href="#DejaVuSans-61" transform="translate(1193.806641 0)"/>
      <use xlink:href="#DejaVuSans-64" transform="translate(1255.085938 0)"/>
      <use xlink:href="#DejaVuSans-73" transform="translate(1318.5625 0)"/>
      <use xlink:href="#DejaVuSans-29" transform="translate(1370.662109 0)"/>
     </g>
    </g>
   </g>
  </g>
  <g id="axes_2">
   <g id="matplotlib.axis_3">
    <g id="ytick_6">
     <g id="line2d_21">
      <defs>
       <path id="mc40de464c1" d="M 0 0 
L 3.5 0 
" style="stroke: #000000; stroke-width: 0.8"/>
      </defs>
      <g>
       <use xlink:href="#mc40de464c1" x="800.53" y="462.04" style="stroke: #000000; stroke-width: 0.8"/>
      </g>
     </g>
     <g id="text_18">
      <!-- 0 -->
      <g transform="translate(807.53 465.839219) scale(0.1 -0.1)">
       <use xlink:href="#DejaVuSans-30"/>
      </g>
     </g>
    </g>
    <g id="ytick_7">
     <g id="line2d_22">
      <g>
       <use xlink:href="#mc40de464c1" x="800.53" y="389.812461" style="stroke: #000000; stroke-width: 0.8"/>
      </g>
     </g>
     <g id="text_19">
      <!-- 2000 -->
      <g transform="translate(807.53 393.611679) scale(0.1 -0.1)">
       <use xlink:href="#DejaVuSans-32"/>
       <use xlink:href="#DejaVuSans-30" transform="translate(63.623047 0)"/>
       <use xlink:href="#DejaVuSans-30" transform="translate(127.246094 0)"/>
       <use xlink:href="#DejaVuSans-30" transform="translate(190.869141 0)"/>
      </g>
     </g>
    </g>
    <g id="ytick_8">
     <g id="line2d_23">
      <g>
       <use xlink:href="#mc40de464c1" x="800.53" y="317.584921" style="stroke: #000000; stroke-width: 0.8"/>
      </g>
     </g>
     <g id="text_20">
      <!-- 4000 -->
      <g transform="translate(807.53 321.38414) scale(0.1 -0.1)">
       <use xlink:href="#DejaVuSans-34"/>
       <use xlink:href="#DejaVuSans-30" transform="translate(63.623047 0)"/>
       <use xlink:href="#DejaVuSans-30" transform="translate(127.246094 0)"/>
       <use xlink:href="#DejaVuSans-30" transform="translate(190.869141 0)"/>
      </g>
     </g>
    </g>
    <g id="ytick_9">
     <g id="line2d_24">
      <g>
       <use xlink:href="#mc40de464c1" x="800.53" y="245.357382" style="stroke: #000000; stroke-width: 0.8"/>
      </g>
     </g>
     <g id="text_21">
      <!-- 6000 -->
      <g transform="translate(807.53 249.156601) scale(0.1 -0.1)">
       <use xlink:href="#DejaVuSans-36"/>
       <use xlink:href="#DejaVuSans-30" transform="translate(63.623047 0)"/>
       <use xlink:href="#DejaVuSans-30" transform="translate(127.246094 0)"/>
       <use xlink:href="#DejaVuSans-30" transform="translate(190.869141 0)"/>
      </g>
     </g>
    </g>
    <g id="ytick_10">
     <g id="line2d_25">
      <g>
       <use xlink:href="#mc40de464c1" x="800.53" y="173.129843" style="stroke: #000000; stroke-width: 0.8"/>
      </g>
     </g>
     <g id="text_22">
      <!-- 8000 -->
      <g transform="translate(807.53 176.929061) scale(0.1 -0.1)">
       <use xlink:href="#DejaVuSans-38"/>
       <use xlink:href="#DejaVuSans-30" transform="translate(63.623047 0)"/>
       <use xlink:href="#DejaVuSans-30" transform="translate(127.246094 0)"/>
       <use xlink:href="#DejaVuSans-30" transform="translate(190.869141 0)"/>
      </g>
     </g>
    </g>
    <g id="ytick_11">
     <g id="line2d_26">
      <g>
       <use xlink:href="#mc40de464c1" x="800.53" y="100.902303" style="stroke: #000000; stroke-width: 0.8"/>
      </g>
     </g>
     <g id="text_23">
      <!-- 10000 -->
      <g transform="translate(807.53 104.701522) scale(0.1 -0.1)">
       <use xlink:href="#DejaVuSans-31"/>
       <use xlink:href="#DejaVuSans-30" transform="translate(63.623047 0)"/>
       <use xlink:href="#DejaVuSans-30" transform="translate(127.246094 0)"/>
       <use xlink:href="#DejaVuSans-30" transform="translate(190.869141 0)"/>
       <use xlink:href="#DejaVuSans-30" transform="translate(254.492188 0)"/>
      </g>
     </g>
    </g>
    <g id="ytick_12">
     <g id="line2d_27">
      <g>
       <use xlink:href="#mc40de464c1" x="800.53" y="28.674764" style="stroke: #000000; stroke-width: 0.8"/>
      </g>
     </g>
     <g id="text_24">
      <!-- 12000 -->
      <g transform="translate(807.53 32.473983) scale(0.1 -0.1)">
       <use xlink:href="#DejaVuSans-31"/>
       <use xlink:href="#DejaVuSans-32" transform="translate(63.623047 0)"/>
       <use xlink:href="#DejaVuSans-30" transform="translate(127.246094 0)"/>
       <use xlink:href="#DejaVuSans-30" transform="translate(190.869141 0)"/>
       <use xlink:href="#DejaVuSans-30" transform="translate(254.492188 0)"/>
      </g>
     </g>
    </g>
    <g id="text_25">
     <!-- Herd size (Thousand Heads) -->
     <g transform="translate(850.940938 314.944375) rotate(-90) scale(0.1 -0.1)">
      <use xlink:href="#DejaVuSans-48"/>
      <use xlink:href="#DejaVuSans-65" transform="translate(75.195312 0)"/>
      <use xlink:href="#DejaVuSans-72" transform="translate(136.71875 0)"/>
      <use xlink:href="#DejaVuSans-64" transform="translate(176.082031 0)"/>
      <use xlink:href="#DejaVuSans-20" transform="translate(239.558594 0)"/>
      <use xlink:href="#DejaVuSans-73" transform="translate(271.345703 0)"/>
      <use xlink:href="#DejaVuSans-69" transform="translate(323.445312 0)"/>
      <use xlink:href="#DejaVuSans-7a" transform="translate(351.228516 0)"/>
      <use xlink:href="#DejaVuSans-65" transform="translate(403.71875 0)"/>
      <use xlink:href="#DejaVuSans-20" transform="translate(465.242188 0)"/>
      <use xlink:href="#DejaVuSans-28" transform="translate(497.029297 0)"/>
      <use xlink:href="#DejaVuSans-54" transform="translate(536.042969 0)"/>
      <use xlink:href="#DejaVuSans-68" transform="translate(597.126953 0)"/>
      <use xlink:href="#DejaVuSans-6f" transform="translate(660.505859 0)"/>
      <use xlink:href="#DejaVuSans-75" transform="translate(721.6875 0)"/>
      <use xlink:href="#DejaVuSans-73" transform="translate(785.066406 0)"/>
      <use xlink:href="#DejaVuSans-61" transform="translate(837.166016 0)"/>
      <use xlink:href="#DejaVuSans-6e" transform="translate(898.445312 0)"/>
      <use xlink:href="#DejaVuSans-64" transform="translate(961.824219 0)"/>
      <use xlink:href="#DejaVuSans-20" transform="translate(1025.300781 0)"/>
      <use xlink:href="#DejaVuSans-48" transform="translate(1057.087891 0)"/>
      <use xlink:href="#DejaVuSans-65" transform="translate(1132.283203 0)"/>
      <use xlink:href="#DejaVuSans-61" transform="translate(1193.806641 0)"/>
      <use xlink:href="#DejaVuSans-64" transform="translate(1255.085938 0)"/>
      <use xlink:href="#DejaVuSans-73" transform="translate(1318.5625 0)"/>
      <use xlink:href="#DejaVuSans-29" transform="translate(1370.662109 0)"/>
     </g>
    </g>
   </g>
   <g id="line2d_28">
    <path d="M 193.363667 79.587957 
L 252.76646 60.935195 
L 312.00695 31.990008 
L 371.24744 63.788182 
L 430.48793 57.006016 
L 489.890723 38.519378 
L 549.131213 92.148326 
L 608.371703 114.472052 
L 667.612193 109.219305 
L 727.014986 134.190171 
" clip-path="url(#p53b3ecd421)" style="fill: none; stroke: #ff8c00; stroke-width: 2; stroke-linecap: square"/>
    <g clip-path="url(#p53b3ecd421)">
     <use xlink:href="#mb443a5c200" x="193.363667" y="79.587957" style="fill: #ff8c00; stroke: #ff8c00"/>
     <use xlink:href="#mb443a5c200" x="252.76646" y="60.935195" style="fill: #ff8c00; stroke: #ff8c00"/>
     <use xlink:href="#mb443a5c200" x="312.00695" y="31.990008" style="fill: #ff8c00; stroke: #ff8c00"/>
     <use xlink:href="#mb443a5c200" x="371.24744" y="63.788182" style="fill: #ff8c00; stroke: #ff8c00"/>
     <use xlink:href="#mb443a5c200" x="430.48793" y="57.006016" style="fill: #ff8c00; stroke: #ff8c00"/>
     <use xlink:href="#mb443a5c200" x="489.890723" y="38.519378" style="fill: #ff8c00; stroke: #ff8c00"/>
     <use xlink:href="#mb443a5c200" x="549.131213" y="92.148326" style="fill: #ff8c00; stroke: #ff8c00"/>
     <use xlink:href="#mb443a5c200" x="608.371703" y="114.472052" style="fill: #ff8c00; stroke: #ff8c00"/>
     <use xlink:href="#mb443a5c200" x="667.612193" y="109.219305" style="fill: #ff8c00; stroke: #ff8c00"/>
     <use xlink:href="#mb443a5c200" x="727.014986" y="134.190171" style="fill: #ff8c00; stroke: #ff8c00"/>
    </g>
   </g>
   <g id="patch_8">
    <path d="M 50.87 462.04 
L 50.87 26.88 
" style="fill: none; stroke: #000000; stroke-width: 0.8; stroke-linejoin: miter; stroke-linecap: square"/>
   </g>
   <g id="patch_9">
    <path d="M 800.53 462.04 
L 800.53 26.88 
" style="fill: none; stroke: #000000; stroke-width: 0.8; stroke-linejoin: miter; stroke-linecap: square"/>
   </g>
   <g id="patch_10">
    <path d="M 50.87 462.04 
L 800.53 462.04 
" style="fill: none; stroke: #000000; stroke-width: 0.8; stroke-linejoin: miter; stroke-linecap: square"/>
   </g>
   <g id="patch_11">
    <path d="M 50.87 26.88 
L 800.53 26.88 
" style="fill: none; stroke: #000000; stroke-width: 0.8; stroke-linejoin: miter; stroke-linecap: square"/>
   </g>
  </g>
 </g>
 <defs>
  <clipPath id="p53b3ecd421">
   <rect x="50.87" y="26.88" width="749.66" height="435.16"/>
  </clipPath>
 </defs>
</svg>
