<?xml version="1.0" encoding="utf-8" standalone="no"?>
<!DOCTYPE svg PUBLIC "-//W3C//DTD SVG 1.1//EN"
  "http://www.w3.org/Graphics/SVG/1.1/DTD/svg11.dtd">
<svg xmlns:xlink="http://www.w3.org/1999/xlink" width="864pt" height="504pt" viewBox="0 0 864 504" xmlns="http://www.w3.org/2000/svg" version="1.1">
 <metadata>
  <rdf:RDF xmlns:dc="http://purl.org/dc/elements/1.1/" xmlns:cc="http://creativecommons.org/ns#" xmlns:rdf="http://www.w3.org/1999/02/22-rdf-syntax-ns#">
   <cc:Work>
    <dc:type rdf:resource="http://purl.org/dc/dcmitype/StillImage"/>
    <dc:date>2025-08-12T22:04:13.906856</dc:date>
    <dc:format>image/svg+xml</dc:format>
    <dc:creator>
     <cc:Agent>
      <dc:title>Matplotlib v3.10.3, https://matplotlib.org/</dc:title>
     </cc:Agent>
    </dc:creator>
   </cc:Work>
  </rdf:RDF>
 </metadata>
 <defs>
  <style type="text/css">*{stroke-linejoin: round; stroke-linecap: butt}</style>
 </defs>
 <g id="figure_1">
  <g id="patch_1">
   <path d="M 0 504 
L 864 504 
L 864 0 
L 0 0 
z
" style="fill: #ffffff"/>
  </g>
  <g id="axes_1">
   <g id="patch_2">
    <path d="M 50.87 462.04 
L 840.6 462.04 
L 840.6 26.88 
L 50.87 26.88 
z
" style="fill: #ffffff"/>
   </g>
   <g id="matplotlib.axis_1">
    <g id="xtick_1">
     <g id="line2d_1">
      <defs>
       <path id="mc7e6795c4c" d="M 0 0 
L 0 3.5 
" style="stroke: #000000; stroke-width: 0.8"/>
      </defs>
      <g>
       <use xlink:href="#mc7e6795c4c" x="50.87" y="462.04" style="stroke: #000000; stroke-width: 0.8"/>
      </g>
     </g>
     <g id="text_1">
      <!-- 2016 -->
      <g transform="translate(38.145 476.638438) scale(0.1 -0.1)">
       <defs>
        <path id="DejaVuSans-32" d="M 1228 531 
L 3431 531 
L 3431 0 
L 469 0 
L 469 531 
Q 828 903 1448 1529 
Q 2069 2156 2228 2338 
Q 2531 2678 2651 2914 
Q 2772 3150 2772 3378 
Q 2772 3750 2511 3984 
Q 2250 4219 1831 4219 
Q 1534 4219 1204 4116 
Q 875 4013 500 3803 
L 500 4441 
Q 881 4594 1212 4672 
Q 1544 4750 1819 4750 
Q 2544 4750 2975 4387 
Q 3406 4025 3406 3419 
Q 3406 3131 3298 2873 
Q 3191 2616 2906 2266 
Q 2828 2175 2409 1742 
Q 1991 1309 1228 531 
z
" transform="scale(0.015625)"/>
        <path id="DejaVuSans-30" d="M 2034 4250 
Q 1547 4250 1301 3770 
Q 1056 3291 1056 2328 
Q 1056 1369 1301 889 
Q 1547 409 2034 409 
Q 2525 409 2770 889 
Q 3016 1369 3016 2328 
Q 3016 3291 2770 3770 
Q 2525 4250 2034 4250 
z
M 2034 4750 
Q 2819 4750 3233 4129 
Q 3647 3509 3647 2328 
Q 3647 1150 3233 529 
Q 2819 -91 2034 -91 
Q 1250 -91 836 529 
Q 422 1150 422 2328 
Q 422 3509 836 4129 
Q 1250 4750 2034 4750 
z
" transform="scale(0.015625)"/>
        <path id="DejaVuSans-31" d="M 794 531 
L 1825 531 
L 1825 4091 
L 703 3866 
L 703 4441 
L 1819 4666 
L 2450 4666 
L 2450 531 
L 3481 531 
L 3481 0 
L 794 0 
L 794 531 
z
" transform="scale(0.015625)"/>
        <path id="DejaVuSans-36" d="M 2113 2584 
Q 1688 2584 1439 2293 
Q 1191 2003 1191 1497 
Q 1191 994 1439 701 
Q 1688 409 2113 409 
Q 2538 409 2786 701 
Q 3034 994 3034 1497 
Q 3034 2003 2786 2293 
Q 2538 2584 2113 2584 
z
M 3366 4563 
L 3366 3988 
Q 3128 4100 2886 4159 
Q 2644 4219 2406 4219 
Q 1781 4219 1451 3797 
Q 1122 3375 1075 2522 
Q 1259 2794 1537 2939 
Q 1816 3084 2150 3084 
Q 2853 3084 3261 2657 
Q 3669 2231 3669 1497 
Q 3669 778 3244 343 
Q 2819 -91 2113 -91 
Q 1303 -91 875 529 
Q 447 1150 447 2328 
Q 447 3434 972 4092 
Q 1497 4750 2381 4750 
Q 2619 4750 2861 4703 
Q 3103 4656 3366 4563 
z
" transform="scale(0.015625)"/>
       </defs>
       <use xlink:href="#DejaVuSans-32"/>
       <use xlink:href="#DejaVuSans-30" transform="translate(63.623047 0)"/>
       <use xlink:href="#DejaVuSans-31" transform="translate(127.246094 0)"/>
       <use xlink:href="#DejaVuSans-36" transform="translate(190.869141 0)"/>
      </g>
     </g>
    </g>
    <g id="xtick_2">
     <g id="line2d_2">
      <g>
       <use xlink:href="#mc7e6795c4c" x="149.58625" y="462.04" style="stroke: #000000; stroke-width: 0.8"/>
      </g>
     </g>
     <g id="text_2">
      <!-- 2017 -->
      <g transform="translate(136.86125 476.638438) scale(0.1 -0.1)">
       <defs>
        <path id="DejaVuSans-37" d="M 525 4666 
L 3525 4666 
L 3525 4397 
L 1831 0 
L 1172 0 
L 2766 4134 
L 525 4134 
L 525 4666 
z
" transform="scale(0.015625)"/>
       </defs>
       <use xlink:href="#DejaVuSans-32"/>
       <use xlink:href="#DejaVuSans-30" transform="translate(63.623047 0)"/>
       <use xlink:href="#DejaVuSans-31" transform="translate(127.246094 0)"/>
       <use xlink:href="#DejaVuSans-37" transform="translate(190.869141 0)"/>
      </g>
     </g>
    </g>
    <g id="xtick_3">
     <g id="line2d_3">
      <g>
       <use xlink:href="#mc7e6795c4c" x="248.3025" y="462.04" style="stroke: #000000; stroke-width: 0.8"/>
      </g>
     </g>
     <g id="text_3">
      <!-- 2018 -->
      <g transform="translate(235.5775 476.638438) scale(0.1 -0.1)">
       <defs>
        <path id="DejaVuSans-38" d="M 2034 2216 
Q 1584 2216 1326 1975 
Q 1069 1734 1069 1313 
Q 1069 891 1326 650 
Q 1584 409 2034 409 
Q 2484 409 2743 651 
Q 3003 894 3003 1313 
Q 3003 1734 2745 1975 
Q 2488 2216 2034 2216 
z
M 1403 2484 
Q 997 2584 770 2862 
Q 544 3141 544 3541 
Q 544 4100 942 4425 
Q 1341 4750 2034 4750 
Q 2731 4750 3128 4425 
Q 3525 4100 3525 3541 
Q 3525 3141 3298 2862 
Q 3072 2584 2669 2484 
Q 3125 2378 3379 2068 
Q 3634 1759 3634 1313 
Q 3634 634 3220 271 
Q 2806 -91 2034 -91 
Q 1263 -91 848 271 
Q 434 634 434 1313 
Q 434 1759 690 2068 
Q 947 2378 1403 2484 
z
M 1172 3481 
Q 1172 3119 1398 2916 
Q 1625 2713 2034 2713 
Q 2441 2713 2670 2916 
Q 2900 3119 2900 3481 
Q 2900 3844 2670 4047 
Q 2441 4250 2034 4250 
Q 1625 4250 1398 4047 
Q 1172 3844 1172 3481 
z
" transform="scale(0.015625)"/>
       </defs>
       <use xlink:href="#DejaVuSans-32"/>
       <use xlink:href="#DejaVuSans-30" transform="translate(63.623047 0)"/>
       <use xlink:href="#DejaVuSans-31" transform="translate(127.246094 0)"/>
       <use xlink:href="#DejaVuSans-38" transform="translate(190.869141 0)"/>
      </g>
     </g>
    </g>
    <g id="xtick_4">
     <g id="line2d_4">
      <g>
       <use xlink:href="#mc7e6795c4c" x="347.01875" y="462.04" style="stroke: #000000; stroke-width: 0.8"/>
      </g>
     </g>
     <g id="text_4">
      <!-- 2019 -->
      <g transform="translate(334.29375 476.638438) scale(0.1 -0.1)">
       <defs>
        <path id="DejaVuSans-39" d="M 703 97 
L 703 672 
Q 941 559 1184 500 
Q 1428 441 1663 441 
Q 2288 441 2617 861 
Q 2947 1281 2994 2138 
Q 2813 1869 2534 1725 
Q 2256 1581 1919 1581 
Q 1219 1581 811 2004 
Q 403 2428 403 3163 
Q 403 3881 828 4315 
Q 1253 4750 1959 4750 
Q 2769 4750 3195 4129 
Q 3622 3509 3622 2328 
Q 3622 1225 3098 567 
Q 2575 -91 1691 -91 
Q 1453 -91 1209 -44 
Q 966 3 703 97 
z
M 1959 2075 
Q 2384 2075 2632 2365 
Q 2881 2656 2881 3163 
Q 2881 3666 2632 3958 
Q 2384 4250 1959 4250 
Q 1534 4250 1286 3958 
Q 1038 3666 1038 3163 
Q 1038 2656 1286 2365 
Q 1534 2075 1959 2075 
z
" transform="scale(0.015625)"/>
       </defs>
       <use xlink:href="#DejaVuSans-32"/>
       <use xlink:href="#DejaVuSans-30" transform="translate(63.623047 0)"/>
       <use xlink:href="#DejaVuSans-31" transform="translate(127.246094 0)"/>
       <use xlink:href="#DejaVuSans-39" transform="translate(190.869141 0)"/>
      </g>
     </g>
    </g>
    <g id="xtick_5">
     <g id="line2d_5">
      <g>
       <use xlink:href="#mc7e6795c4c" x="445.735" y="462.04" style="stroke: #000000; stroke-width: 0.8"/>
      </g>
     </g>
     <g id="text_5">
      <!-- 2020 -->
      <g transform="translate(433.01 476.638438) scale(0.1 -0.1)">
       <use xlink:href="#DejaVuSans-32"/>
       <use xlink:href="#DejaVuSans-30" transform="translate(63.623047 0)"/>
       <use xlink:href="#DejaVuSans-32" transform="translate(127.246094 0)"/>
       <use xlink:href="#DejaVuSans-30" transform="translate(190.869141 0)"/>
      </g>
     </g>
    </g>
    <g id="xtick_6">
     <g id="line2d_6">
      <g>
       <use xlink:href="#mc7e6795c4c" x="544.45125" y="462.04" style="stroke: #000000; stroke-width: 0.8"/>
      </g>
     </g>
     <g id="text_6">
      <!-- 2021 -->
      <g transform="translate(531.72625 476.638438) scale(0.1 -0.1)">
       <use xlink:href="#DejaVuSans-32"/>
       <use xlink:href="#DejaVuSans-30" transform="translate(63.623047 0)"/>
       <use xlink:href="#DejaVuSans-32" transform="translate(127.246094 0)"/>
       <use xlink:href="#DejaVuSans-31" transform="translate(190.869141 0)"/>
      </g>
     </g>
    </g>
    <g id="xtick_7">
     <g id="line2d_7">
      <g>
       <use xlink:href="#mc7e6795c4c" x="643.1675" y="462.04" style="stroke: #000000; stroke-width: 0.8"/>
      </g>
     </g>
     <g id="text_7">
      <!-- 2022 -->
      <g transform="translate(630.4425 476.638438) scale(0.1 -0.1)">
       <use xlink:href="#DejaVuSans-32"/>
       <use xlink:href="#DejaVuSans-30" transform="translate(63.623047 0)"/>
       <use xlink:href="#DejaVuSans-32" transform="translate(127.246094 0)"/>
       <use xlink:href="#DejaVuSans-32" transform="translate(190.869141 0)"/>
      </g>
     </g>
    </g>
    <g id="xtick_8">
     <g id="line2d_8">
      <g>
       <use xlink:href="#mc7e6795c4c" x="741.88375" y="462.04" style="stroke: #000000; stroke-width: 0.8"/>
      </g>
     </g>
     <g id="text_8">
      <!-- 2023 -->
      <g transform="translate(729.15875 476.638438) scale(0.1 -0.1)">
       <defs>
        <path id="DejaVuSans-33" d="M 2597 2516 
Q 3050 2419 3304 2112 
Q 3559 1806 3559 1356 
Q 3559 666 3084 287 
Q 2609 -91 1734 -91 
Q 1441 -91 1130 -33 
Q 819 25 488 141 
L 488 750 
Q 750 597 1062 519 
Q 1375 441 1716 441 
Q 2309 441 2620 675 
Q 2931 909 2931 1356 
Q 2931 1769 2642 2001 
Q 2353 2234 1838 2234 
L 1294 2234 
L 1294 2753 
L 1863 2753 
Q 2328 2753 2575 2939 
Q 2822 3125 2822 3475 
Q 2822 3834 2567 4026 
Q 2313 4219 1838 4219 
Q 1578 4219 1281 4162 
Q 984 4106 628 3988 
L 628 4550 
Q 988 4650 1302 4700 
Q 1616 4750 1894 4750 
Q 2613 4750 3031 4423 
Q 3450 4097 3450 3541 
Q 3450 3153 3228 2886 
Q 3006 2619 2597 2516 
z
" transform="scale(0.015625)"/>
       </defs>
       <use xlink:href="#DejaVuSans-32"/>
       <use xlink:href="#DejaVuSans-30" transform="translate(63.623047 0)"/>
       <use xlink:href="#DejaVuSans-32" transform="translate(127.246094 0)"/>
       <use xlink:href="#DejaVuSans-33" transform="translate(190.869141 0)"/>
      </g>
     </g>
    </g>
    <g id="xtick_9">
     <g id="line2d_9">
      <g>
       <use xlink:href="#mc7e6795c4c" x="840.6" y="462.04" style="stroke: #000000; stroke-width: 0.8"/>
      </g>
     </g>
     <g id="text_9">
      <!-- 2024 -->
      <g transform="translate(827.875 476.638438) scale(0.1 -0.1)">
       <defs>
        <path id="DejaVuSans-34" d="M 2419 4116 
L 825 1625 
L 2419 1625 
L 2419 4116 
z
M 2253 4666 
L 3047 4666 
L 3047 1625 
L 3713 1625 
L 3713 1100 
L 3047 1100 
L 3047 0 
L 2419 0 
L 2419 1100 
L 313 1100 
L 313 1709 
L 2253 4666 
z
" transform="scale(0.015625)"/>
       </defs>
       <use xlink:href="#DejaVuSans-32"/>
       <use xlink:href="#DejaVuSans-30" transform="translate(63.623047 0)"/>
       <use xlink:href="#DejaVuSans-32" transform="translate(127.246094 0)"/>
       <use xlink:href="#DejaVuSans-34" transform="translate(190.869141 0)"/>
      </g>
     </g>
    </g>
    <g id="xtick_10">
     <g id="line2d_10">
      <defs>
       <path id="mbd695860b6" d="M 0 0 
L 0 2 
" style="stroke: #000000; stroke-width: 0.6"/>
      </defs>
      <g>
       <use xlink:href="#mbd695860b6" x="75.549063" y="462.04" style="stroke: #000000; stroke-width: 0.6"/>
      </g>
     </g>
    </g>
    <g id="xtick_11">
     <g id="line2d_11">
      <g>
       <use xlink:href="#mbd695860b6" x="100.228125" y="462.04" style="stroke: #000000; stroke-width: 0.6"/>
      </g>
     </g>
    </g>
    <g id="xtick_12">
     <g id="line2d_12">
      <g>
       <use xlink:href="#mbd695860b6" x="124.907187" y="462.04" style="stroke: #000000; stroke-width: 0.6"/>
      </g>
     </g>
    </g>
    <g id="xtick_13">
     <g id="line2d_13">
      <g>
       <use xlink:href="#mbd695860b6" x="174.265312" y="462.04" style="stroke: #000000; stroke-width: 0.6"/>
      </g>
     </g>
    </g>
    <g id="xtick_14">
     <g id="line2d_14">
      <g>
       <use xlink:href="#mbd695860b6" x="198.944375" y="462.04" style="stroke: #000000; stroke-width: 0.6"/>
      </g>
     </g>
    </g>
    <g id="xtick_15">
     <g id="line2d_15">
      <g>
       <use xlink:href="#mbd695860b6" x="223.623437" y="462.04" style="stroke: #000000; stroke-width: 0.6"/>
      </g>
     </g>
    </g>
    <g id="xtick_16">
     <g id="line2d_16">
      <g>
       <use xlink:href="#mbd695860b6" x="272.981563" y="462.04" style="stroke: #000000; stroke-width: 0.6"/>
      </g>
     </g>
    </g>
    <g id="xtick_17">
     <g id="line2d_17">
      <g>
       <use xlink:href="#mbd695860b6" x="297.660625" y="462.04" style="stroke: #000000; stroke-width: 0.6"/>
      </g>
     </g>
    </g>
    <g id="xtick_18">
     <g id="line2d_18">
      <g>
       <use xlink:href="#mbd695860b6" x="322.339687" y="462.04" style="stroke: #000000; stroke-width: 0.6"/>
      </g>
     </g>
    </g>
    <g id="xtick_19">
     <g id="line2d_19">
      <g>
       <use xlink:href="#mbd695860b6" x="371.697812" y="462.04" style="stroke: #000000; stroke-width: 0.6"/>
      </g>
     </g>
    </g>
    <g id="xtick_20">
     <g id="line2d_20">
      <g>
       <use xlink:href="#mbd695860b6" x="396.376875" y="462.04" style="stroke: #000000; stroke-width: 0.6"/>
      </g>
     </g>
    </g>
    <g id="xtick_21">
     <g id="line2d_21">
      <g>
       <use xlink:href="#mbd695860b6" x="421.055937" y="462.04" style="stroke: #000000; stroke-width: 0.6"/>
      </g>
     </g>
    </g>
    <g id="xtick_22">
     <g id="line2d_22">
      <g>
       <use xlink:href="#mbd695860b6" x="470.414062" y="462.04" style="stroke: #000000; stroke-width: 0.6"/>
      </g>
     </g>
    </g>
    <g id="xtick_23">
     <g id="line2d_23">
      <g>
       <use xlink:href="#mbd695860b6" x="495.093125" y="462.04" style="stroke: #000000; stroke-width: 0.6"/>
      </g>
     </g>
    </g>
    <g id="xtick_24">
     <g id="line2d_24">
      <g>
       <use xlink:href="#mbd695860b6" x="519.772187" y="462.04" style="stroke: #000000; stroke-width: 0.6"/>
      </g>
     </g>
    </g>
    <g id="xtick_25">
     <g id="line2d_25">
      <g>
       <use xlink:href="#mbd695860b6" x="569.130312" y="462.04" style="stroke: #000000; stroke-width: 0.6"/>
      </g>
     </g>
    </g>
    <g id="xtick_26">
     <g id="line2d_26">
      <g>
       <use xlink:href="#mbd695860b6" x="593.809375" y="462.04" style="stroke: #000000; stroke-width: 0.6"/>
      </g>
     </g>
    </g>
    <g id="xtick_27">
     <g id="line2d_27">
      <g>
       <use xlink:href="#mbd695860b6" x="618.488438" y="462.04" style="stroke: #000000; stroke-width: 0.6"/>
      </g>
     </g>
    </g>
    <g id="xtick_28">
     <g id="line2d_28">
      <g>
       <use xlink:href="#mbd695860b6" x="667.846562" y="462.04" style="stroke: #000000; stroke-width: 0.6"/>
      </g>
     </g>
    </g>
    <g id="xtick_29">
     <g id="line2d_29">
      <g>
       <use xlink:href="#mbd695860b6" x="692.525625" y="462.04" style="stroke: #000000; stroke-width: 0.6"/>
      </g>
     </g>
    </g>
    <g id="xtick_30">
     <g id="line2d_30">
      <g>
       <use xlink:href="#mbd695860b6" x="717.204687" y="462.04" style="stroke: #000000; stroke-width: 0.6"/>
      </g>
     </g>
    </g>
    <g id="xtick_31">
     <g id="line2d_31">
      <g>
       <use xlink:href="#mbd695860b6" x="766.562812" y="462.04" style="stroke: #000000; stroke-width: 0.6"/>
      </g>
     </g>
    </g>
    <g id="xtick_32">
     <g id="line2d_32">
      <g>
       <use xlink:href="#mbd695860b6" x="791.241875" y="462.04" style="stroke: #000000; stroke-width: 0.6"/>
      </g>
     </g>
    </g>
    <g id="xtick_33">
     <g id="line2d_33">
      <g>
       <use xlink:href="#mbd695860b6" x="815.920938" y="462.04" style="stroke: #000000; stroke-width: 0.6"/>
      </g>
     </g>
    </g>
    <g id="text_10">
     <!-- Year and Month -->
     <g transform="translate(406.89125 490.316563) scale(0.1 -0.1)">
      <defs>
       <path id="DejaVuSans-59" d="M -13 4666 
L 666 4666 
L 1959 2747 
L 3244 4666 
L 3922 4666 
L 2272 2222 
L 2272 0 
L 1638 0 
L 1638 2222 
L -13 4666 
z
" transform="scale(0.015625)"/>
       <path id="DejaVuSans-65" d="M 3597 1894 
L 3597 1613 
L 953 1613 
Q 991 1019 1311 708 
Q 1631 397 2203 397 
Q 2534 397 2845 478 
Q 3156 559 3463 722 
L 3463 178 
Q 3153 47 2828 -22 
Q 2503 -91 2169 -91 
Q 1331 -91 842 396 
Q 353 884 353 1716 
Q 353 2575 817 3079 
Q 1281 3584 2069 3584 
Q 2775 3584 3186 3129 
Q 3597 2675 3597 1894 
z
M 3022 2063 
Q 3016 2534 2758 2815 
Q 2500 3097 2075 3097 
Q 1594 3097 1305 2825 
Q 1016 2553 972 2059 
L 3022 2063 
z
" transform="scale(0.015625)"/>
       <path id="DejaVuSans-61" d="M 2194 1759 
Q 1497 1759 1228 1600 
Q 959 1441 959 1056 
Q 959 750 1161 570 
Q 1363 391 1709 391 
Q 2188 391 2477 730 
Q 2766 1069 2766 1631 
L 2766 1759 
L 2194 1759 
z
M 3341 1997 
L 3341 0 
L 2766 0 
L 2766 531 
Q 2569 213 2275 61 
Q 1981 -91 1556 -91 
Q 1019 -91 701 211 
Q 384 513 384 1019 
Q 384 1609 779 1909 
Q 1175 2209 1959 2209 
L 2766 2209 
L 2766 2266 
Q 2766 2663 2505 2880 
Q 2244 3097 1772 3097 
Q 1472 3097 1187 3025 
Q 903 2953 641 2809 
L 641 3341 
Q 956 3463 1253 3523 
Q 1550 3584 1831 3584 
Q 2591 3584 2966 3190 
Q 3341 2797 3341 1997 
z
" transform="scale(0.015625)"/>
       <path id="DejaVuSans-72" d="M 2631 2963 
Q 2534 3019 2420 3045 
Q 2306 3072 2169 3072 
Q 1681 3072 1420 2755 
Q 1159 2438 1159 1844 
L 1159 0 
L 581 0 
L 581 3500 
L 1159 3500 
L 1159 2956 
Q 1341 3275 1631 3429 
Q 1922 3584 2338 3584 
Q 2397 3584 2469 3576 
Q 2541 3569 2628 3553 
L 2631 2963 
z
" transform="scale(0.015625)"/>
       <path id="DejaVuSans-20" transform="scale(0.015625)"/>
       <path id="DejaVuSans-6e" d="M 3513 2113 
L 3513 0 
L 2938 0 
L 2938 2094 
Q 2938 2591 2744 2837 
Q 2550 3084 2163 3084 
Q 1697 3084 1428 2787 
Q 1159 2491 1159 1978 
L 1159 0 
L 581 0 
L 581 3500 
L 1159 3500 
L 1159 2956 
Q 1366 3272 1645 3428 
Q 1925 3584 2291 3584 
Q 2894 3584 3203 3211 
Q 3513 2838 3513 2113 
z
" transform="scale(0.015625)"/>
       <path id="DejaVuSans-64" d="M 2906 2969 
L 2906 4863 
L 3481 4863 
L 3481 0 
L 2906 0 
L 2906 525 
Q 2725 213 2448 61 
Q 2172 -91 1784 -91 
Q 1150 -91 751 415 
Q 353 922 353 1747 
Q 353 2572 751 3078 
Q 1150 3584 1784 3584 
Q 2172 3584 2448 3432 
Q 2725 3281 2906 2969 
z
M 947 1747 
Q 947 1113 1208 752 
Q 1469 391 1925 391 
Q 2381 391 2643 752 
Q 2906 1113 2906 1747 
Q 2906 2381 2643 2742 
Q 2381 3103 1925 3103 
Q 1469 3103 1208 2742 
Q 947 2381 947 1747 
z
" transform="scale(0.015625)"/>
       <path id="DejaVuSans-4d" d="M 628 4666 
L 1569 4666 
L 2759 1491 
L 3956 4666 
L 4897 4666 
L 4897 0 
L 4281 0 
L 4281 4097 
L 3078 897 
L 2444 897 
L 1241 4097 
L 1241 0 
L 628 0 
L 628 4666 
z
" transform="scale(0.015625)"/>
       <path id="DejaVuSans-6f" d="M 1959 3097 
Q 1497 3097 1228 2736 
Q 959 2375 959 1747 
Q 959 1119 1226 758 
Q 1494 397 1959 397 
Q 2419 397 2687 759 
Q 2956 1122 2956 1747 
Q 2956 2369 2687 2733 
Q 2419 3097 1959 3097 
z
M 1959 3584 
Q 2709 3584 3137 3096 
Q 3566 2609 3566 1747 
Q 3566 888 3137 398 
Q 2709 -91 1959 -91 
Q 1206 -91 779 398 
Q 353 888 353 1747 
Q 353 2609 779 3096 
Q 1206 3584 1959 3584 
z
" transform="scale(0.015625)"/>
       <path id="DejaVuSans-74" d="M 1172 4494 
L 1172 3500 
L 2356 3500 
L 2356 3053 
L 1172 3053 
L 1172 1153 
Q 1172 725 1289 603 
Q 1406 481 1766 481 
L 2356 481 
L 2356 0 
L 1766 0 
Q 1100 0 847 248 
Q 594 497 594 1153 
L 594 3053 
L 172 3053 
L 172 3500 
L 594 3500 
L 594 4494 
L 1172 4494 
z
" transform="scale(0.015625)"/>
       <path id="DejaVuSans-68" d="M 3513 2113 
L 3513 0 
L 2938 0 
L 2938 2094 
Q 2938 2591 2744 2837 
Q 2550 3084 2163 3084 
Q 1697 3084 1428 2787 
Q 1159 2491 1159 1978 
L 1159 0 
L 581 0 
L 581 4863 
L 1159 4863 
L 1159 2956 
Q 1366 3272 1645 3428 
Q 1925 3584 2291 3584 
Q 2894 3584 3203 3211 
Q 3513 2838 3513 2113 
z
" transform="scale(0.015625)"/>
      </defs>
      <use xlink:href="#DejaVuSans-59"/>
      <use xlink:href="#DejaVuSans-65" transform="translate(47.833984 0)"/>
      <use xlink:href="#DejaVuSans-61" transform="translate(109.357422 0)"/>
      <use xlink:href="#DejaVuSans-72" transform="translate(170.636719 0)"/>
      <use xlink:href="#DejaVuSans-20" transform="translate(211.75 0)"/>
      <use xlink:href="#DejaVuSans-61" transform="translate(243.537109 0)"/>
      <use xlink:href="#DejaVuSans-6e" transform="translate(304.816406 0)"/>
      <use xlink:href="#DejaVuSans-64" transform="translate(368.195312 0)"/>
      <use xlink:href="#DejaVuSans-20" transform="translate(431.671875 0)"/>
      <use xlink:href="#DejaVuSans-4d" transform="translate(463.458984 0)"/>
      <use xlink:href="#DejaVuSans-6f" transform="translate(549.738281 0)"/>
      <use xlink:href="#DejaVuSans-6e" transform="translate(610.919922 0)"/>
      <use xlink:href="#DejaVuSans-74" transform="translate(674.298828 0)"/>
      <use xlink:href="#DejaVuSans-68" transform="translate(713.507812 0)"/>
     </g>
    </g>
   </g>
   <g id="matplotlib.axis_2">
    <g id="ytick_1">
     <g id="line2d_34">
      <path d="M 50.87 462.04 
L 840.6 462.04 
" clip-path="url(#pd8b317753c)" style="fill: none; stroke-dasharray: 2.96,1.28; stroke-dashoffset: 0; stroke: #b0b0b0; stroke-width: 0.8"/>
     </g>
     <g id="line2d_35">
      <defs>
       <path id="ma630266e40" d="M 0 0 
L -3.5 0 
" style="stroke: #000000; stroke-width: 0.8"/>
      </defs>
      <g>
       <use xlink:href="#ma630266e40" x="50.87" y="462.04" style="stroke: #000000; stroke-width: 0.8"/>
      </g>
     </g>
     <g id="text_11">
      <!-- 0 -->
      <g transform="translate(37.5075 465.839219) scale(0.1 -0.1)">
       <use xlink:href="#DejaVuSans-30"/>
      </g>
     </g>
    </g>
    <g id="ytick_2">
     <g id="line2d_36">
      <path d="M 50.87 382.741217 
L 840.6 382.741217 
" clip-path="url(#pd8b317753c)" style="fill: none; stroke-dasharray: 2.96,1.28; stroke-dashoffset: 0; stroke: #b0b0b0; stroke-width: 0.8"/>
     </g>
     <g id="line2d_37">
      <g>
       <use xlink:href="#ma630266e40" x="50.87" y="382.741217" style="stroke: #000000; stroke-width: 0.8"/>
      </g>
     </g>
     <g id="text_12">
      <!-- 50 -->
      <g transform="translate(31.145 386.540436) scale(0.1 -0.1)">
       <defs>
        <path id="DejaVuSans-35" d="M 691 4666 
L 3169 4666 
L 3169 4134 
L 1269 4134 
L 1269 2991 
Q 1406 3038 1543 3061 
Q 1681 3084 1819 3084 
Q 2600 3084 3056 2656 
Q 3513 2228 3513 1497 
Q 3513 744 3044 326 
Q 2575 -91 1722 -91 
Q 1428 -91 1123 -41 
Q 819 9 494 109 
L 494 744 
Q 775 591 1075 516 
Q 1375 441 1709 441 
Q 2250 441 2565 725 
Q 2881 1009 2881 1497 
Q 2881 1984 2565 2268 
Q 2250 2553 1709 2553 
Q 1456 2553 1204 2497 
Q 953 2441 691 2322 
L 691 4666 
z
" transform="scale(0.015625)"/>
       </defs>
       <use xlink:href="#DejaVuSans-35"/>
       <use xlink:href="#DejaVuSans-30" transform="translate(63.623047 0)"/>
      </g>
     </g>
    </g>
    <g id="ytick_3">
     <g id="line2d_38">
      <path d="M 50.87 303.442435 
L 840.6 303.442435 
" clip-path="url(#pd8b317753c)" style="fill: none; stroke-dasharray: 2.96,1.28; stroke-dashoffset: 0; stroke: #b0b0b0; stroke-width: 0.8"/>
     </g>
     <g id="line2d_39">
      <g>
       <use xlink:href="#ma630266e40" x="50.87" y="303.442435" style="stroke: #000000; stroke-width: 0.8"/>
      </g>
     </g>
     <g id="text_13">
      <!-- 100 -->
      <g transform="translate(24.7825 307.241653) scale(0.1 -0.1)">
       <use xlink:href="#DejaVuSans-31"/>
       <use xlink:href="#DejaVuSans-30" transform="translate(63.623047 0)"/>
       <use xlink:href="#DejaVuSans-30" transform="translate(127.246094 0)"/>
      </g>
     </g>
    </g>
    <g id="ytick_4">
     <g id="line2d_40">
      <path d="M 50.87 224.143652 
L 840.6 224.143652 
" clip-path="url(#pd8b317753c)" style="fill: none; stroke-dasharray: 2.96,1.28; stroke-dashoffset: 0; stroke: #b0b0b0; stroke-width: 0.8"/>
     </g>
     <g id="line2d_41">
      <g>
       <use xlink:href="#ma630266e40" x="50.87" y="224.143652" style="stroke: #000000; stroke-width: 0.8"/>
      </g>
     </g>
     <g id="text_14">
      <!-- 150 -->
      <g transform="translate(24.7825 227.942871) scale(0.1 -0.1)">
       <use xlink:href="#DejaVuSans-31"/>
       <use xlink:href="#DejaVuSans-35" transform="translate(63.623047 0)"/>
       <use xlink:href="#DejaVuSans-30" transform="translate(127.246094 0)"/>
      </g>
     </g>
    </g>
    <g id="ytick_5">
     <g id="line2d_42">
      <path d="M 50.87 144.844869 
L 840.6 144.844869 
" clip-path="url(#pd8b317753c)" style="fill: none; stroke-dasharray: 2.96,1.28; stroke-dashoffset: 0; stroke: #b0b0b0; stroke-width: 0.8"/>
     </g>
     <g id="line2d_43">
      <g>
       <use xlink:href="#ma630266e40" x="50.87" y="144.844869" style="stroke: #000000; stroke-width: 0.8"/>
      </g>
     </g>
     <g id="text_15">
      <!-- 200 -->
      <g transform="translate(24.7825 148.644088) scale(0.1 -0.1)">
       <use xlink:href="#DejaVuSans-32"/>
       <use xlink:href="#DejaVuSans-30" transform="translate(63.623047 0)"/>
       <use xlink:href="#DejaVuSans-30" transform="translate(127.246094 0)"/>
      </g>
     </g>
    </g>
    <g id="ytick_6">
     <g id="line2d_44">
      <path d="M 50.87 65.546086 
L 840.6 65.546086 
" clip-path="url(#pd8b317753c)" style="fill: none; stroke-dasharray: 2.96,1.28; stroke-dashoffset: 0; stroke: #b0b0b0; stroke-width: 0.8"/>
     </g>
     <g id="line2d_45">
      <g>
       <use xlink:href="#ma630266e40" x="50.87" y="65.546086" style="stroke: #000000; stroke-width: 0.8"/>
      </g>
     </g>
     <g id="text_16">
      <!-- 250 -->
      <g transform="translate(24.7825 69.345305) scale(0.1 -0.1)">
       <use xlink:href="#DejaVuSans-32"/>
       <use xlink:href="#DejaVuSans-35" transform="translate(63.623047 0)"/>
       <use xlink:href="#DejaVuSans-30" transform="translate(127.246094 0)"/>
      </g>
     </g>
    </g>
    <g id="text_17">
     <!-- EU Pig Carcase Grade E EURO/100kg -->
     <g transform="translate(18.702813 336.613125) rotate(-90) scale(0.1 -0.1)">
      <defs>
       <path id="DejaVuSans-45" d="M 628 4666 
L 3578 4666 
L 3578 4134 
L 1259 4134 
L 1259 2753 
L 3481 2753 
L 3481 2222 
L 1259 2222 
L 1259 531 
L 3634 531 
L 3634 0 
L 628 0 
L 628 4666 
z
" transform="scale(0.015625)"/>
       <path id="DejaVuSans-55" d="M 556 4666 
L 1191 4666 
L 1191 1831 
Q 1191 1081 1462 751 
Q 1734 422 2344 422 
Q 2950 422 3222 751 
Q 3494 1081 3494 1831 
L 3494 4666 
L 4128 4666 
L 4128 1753 
Q 4128 841 3676 375 
Q 3225 -91 2344 -91 
Q 1459 -91 1007 375 
Q 556 841 556 1753 
L 556 4666 
z
" transform="scale(0.015625)"/>
       <path id="DejaVuSans-50" d="M 1259 4147 
L 1259 2394 
L 2053 2394 
Q 2494 2394 2734 2622 
Q 2975 2850 2975 3272 
Q 2975 3691 2734 3919 
Q 2494 4147 2053 4147 
L 1259 4147 
z
M 628 4666 
L 2053 4666 
Q 2838 4666 3239 4311 
Q 3641 3956 3641 3272 
Q 3641 2581 3239 2228 
Q 2838 1875 2053 1875 
L 1259 1875 
L 1259 0 
L 628 0 
L 628 4666 
z
" transform="scale(0.015625)"/>
       <path id="DejaVuSans-69" d="M 603 3500 
L 1178 3500 
L 1178 0 
L 603 0 
L 603 3500 
z
M 603 4863 
L 1178 4863 
L 1178 4134 
L 603 4134 
L 603 4863 
z
" transform="scale(0.015625)"/>
       <path id="DejaVuSans-67" d="M 2906 1791 
Q 2906 2416 2648 2759 
Q 2391 3103 1925 3103 
Q 1463 3103 1205 2759 
Q 947 2416 947 1791 
Q 947 1169 1205 825 
Q 1463 481 1925 481 
Q 2391 481 2648 825 
Q 2906 1169 2906 1791 
z
M 3481 434 
Q 3481 -459 3084 -895 
Q 2688 -1331 1869 -1331 
Q 1566 -1331 1297 -1286 
Q 1028 -1241 775 -1147 
L 775 -588 
Q 1028 -725 1275 -790 
Q 1522 -856 1778 -856 
Q 2344 -856 2625 -561 
Q 2906 -266 2906 331 
L 2906 616 
Q 2728 306 2450 153 
Q 2172 0 1784 0 
Q 1141 0 747 490 
Q 353 981 353 1791 
Q 353 2603 747 3093 
Q 1141 3584 1784 3584 
Q 2172 3584 2450 3431 
Q 2728 3278 2906 2969 
L 2906 3500 
L 3481 3500 
L 3481 434 
z
" transform="scale(0.015625)"/>
       <path id="DejaVuSans-43" d="M 4122 4306 
L 4122 3641 
Q 3803 3938 3442 4084 
Q 3081 4231 2675 4231 
Q 1875 4231 1450 3742 
Q 1025 3253 1025 2328 
Q 1025 1406 1450 917 
Q 1875 428 2675 428 
Q 3081 428 3442 575 
Q 3803 722 4122 1019 
L 4122 359 
Q 3791 134 3420 21 
Q 3050 -91 2638 -91 
Q 1578 -91 968 557 
Q 359 1206 359 2328 
Q 359 3453 968 4101 
Q 1578 4750 2638 4750 
Q 3056 4750 3426 4639 
Q 3797 4528 4122 4306 
z
" transform="scale(0.015625)"/>
       <path id="DejaVuSans-63" d="M 3122 3366 
L 3122 2828 
Q 2878 2963 2633 3030 
Q 2388 3097 2138 3097 
Q 1578 3097 1268 2742 
Q 959 2388 959 1747 
Q 959 1106 1268 751 
Q 1578 397 2138 397 
Q 2388 397 2633 464 
Q 2878 531 3122 666 
L 3122 134 
Q 2881 22 2623 -34 
Q 2366 -91 2075 -91 
Q 1284 -91 818 406 
Q 353 903 353 1747 
Q 353 2603 823 3093 
Q 1294 3584 2113 3584 
Q 2378 3584 2631 3529 
Q 2884 3475 3122 3366 
z
" transform="scale(0.015625)"/>
       <path id="DejaVuSans-73" d="M 2834 3397 
L 2834 2853 
Q 2591 2978 2328 3040 
Q 2066 3103 1784 3103 
Q 1356 3103 1142 2972 
Q 928 2841 928 2578 
Q 928 2378 1081 2264 
Q 1234 2150 1697 2047 
L 1894 2003 
Q 2506 1872 2764 1633 
Q 3022 1394 3022 966 
Q 3022 478 2636 193 
Q 2250 -91 1575 -91 
Q 1294 -91 989 -36 
Q 684 19 347 128 
L 347 722 
Q 666 556 975 473 
Q 1284 391 1588 391 
Q 1994 391 2212 530 
Q 2431 669 2431 922 
Q 2431 1156 2273 1281 
Q 2116 1406 1581 1522 
L 1381 1569 
Q 847 1681 609 1914 
Q 372 2147 372 2553 
Q 372 3047 722 3315 
Q 1072 3584 1716 3584 
Q 2034 3584 2315 3537 
Q 2597 3491 2834 3397 
z
" transform="scale(0.015625)"/>
       <path id="DejaVuSans-47" d="M 3809 666 
L 3809 1919 
L 2778 1919 
L 2778 2438 
L 4434 2438 
L 4434 434 
Q 4069 175 3628 42 
Q 3188 -91 2688 -91 
Q 1594 -91 976 548 
Q 359 1188 359 2328 
Q 359 3472 976 4111 
Q 1594 4750 2688 4750 
Q 3144 4750 3555 4637 
Q 3966 4525 4313 4306 
L 4313 3634 
Q 3963 3931 3569 4081 
Q 3175 4231 2741 4231 
Q 1884 4231 1454 3753 
Q 1025 3275 1025 2328 
Q 1025 1384 1454 906 
Q 1884 428 2741 428 
Q 3075 428 3337 486 
Q 3600 544 3809 666 
z
" transform="scale(0.015625)"/>
       <path id="DejaVuSans-52" d="M 2841 2188 
Q 3044 2119 3236 1894 
Q 3428 1669 3622 1275 
L 4263 0 
L 3584 0 
L 2988 1197 
Q 2756 1666 2539 1819 
Q 2322 1972 1947 1972 
L 1259 1972 
L 1259 0 
L 628 0 
L 628 4666 
L 2053 4666 
Q 2853 4666 3247 4331 
Q 3641 3997 3641 3322 
Q 3641 2881 3436 2590 
Q 3231 2300 2841 2188 
z
M 1259 4147 
L 1259 2491 
L 2053 2491 
Q 2509 2491 2742 2702 
Q 2975 2913 2975 3322 
Q 2975 3731 2742 3939 
Q 2509 4147 2053 4147 
L 1259 4147 
z
" transform="scale(0.015625)"/>
       <path id="DejaVuSans-4f" d="M 2522 4238 
Q 1834 4238 1429 3725 
Q 1025 3213 1025 2328 
Q 1025 1447 1429 934 
Q 1834 422 2522 422 
Q 3209 422 3611 934 
Q 4013 1447 4013 2328 
Q 4013 3213 3611 3725 
Q 3209 4238 2522 4238 
z
M 2522 4750 
Q 3503 4750 4090 4092 
Q 4678 3434 4678 2328 
Q 4678 1225 4090 567 
Q 3503 -91 2522 -91 
Q 1538 -91 948 565 
Q 359 1222 359 2328 
Q 359 3434 948 4092 
Q 1538 4750 2522 4750 
z
" transform="scale(0.015625)"/>
       <path id="DejaVuSans-2f" d="M 1625 4666 
L 2156 4666 
L 531 -594 
L 0 -594 
L 1625 4666 
z
" transform="scale(0.015625)"/>
       <path id="DejaVuSans-6b" d="M 581 4863 
L 1159 4863 
L 1159 1991 
L 2875 3500 
L 3609 3500 
L 1753 1863 
L 3688 0 
L 2938 0 
L 1159 1709 
L 1159 0 
L 581 0 
L 581 4863 
z
" transform="scale(0.015625)"/>
      </defs>
      <use xlink:href="#DejaVuSans-45"/>
      <use xlink:href="#DejaVuSans-55" transform="translate(63.183594 0)"/>
      <use xlink:href="#DejaVuSans-20" transform="translate(136.376953 0)"/>
      <use xlink:href="#DejaVuSans-50" transform="translate(168.164062 0)"/>
      <use xlink:href="#DejaVuSans-69" transform="translate(226.216797 0)"/>
      <use xlink:href="#DejaVuSans-67" transform="translate(254 0)"/>
      <use xlink:href="#DejaVuSans-20" transform="translate(317.476562 0)"/>
      <use xlink:href="#DejaVuSans-43" transform="translate(349.263672 0)"/>
      <use xlink:href="#DejaVuSans-61" transform="translate(419.087891 0)"/>
      <use xlink:href="#DejaVuSans-72" transform="translate(480.367188 0)"/>
      <use xlink:href="#DejaVuSans-63" transform="translate(519.230469 0)"/>
      <use xlink:href="#DejaVuSans-61" transform="translate(574.210938 0)"/>
      <use xlink:href="#DejaVuSans-73" transform="translate(635.490234 0)"/>
      <use xlink:href="#DejaVuSans-65" transform="translate(687.589844 0)"/>
      <use xlink:href="#DejaVuSans-20" transform="translate(749.113281 0)"/>
      <use xlink:href="#DejaVuSans-47" transform="translate(780.900391 0)"/>
      <use xlink:href="#DejaVuSans-72" transform="translate(858.390625 0)"/>
      <use xlink:href="#DejaVuSans-61" transform="translate(899.503906 0)"/>
      <use xlink:href="#DejaVuSans-64" transform="translate(960.783203 0)"/>
      <use xlink:href="#DejaVuSans-65" transform="translate(1024.259766 0)"/>
      <use xlink:href="#DejaVuSans-20" transform="translate(1085.783203 0)"/>
      <use xlink:href="#DejaVuSans-45" transform="translate(1117.570312 0)"/>
      <use xlink:href="#DejaVuSans-20" transform="translate(1180.753906 0)"/>
      <use xlink:href="#DejaVuSans-45" transform="translate(1212.541016 0)"/>
      <use xlink:href="#DejaVuSans-55" transform="translate(1275.724609 0)"/>
      <use xlink:href="#DejaVuSans-52" transform="translate(1348.917969 0)"/>
      <use xlink:href="#DejaVuSans-4f" transform="translate(1418.400391 0)"/>
      <use xlink:href="#DejaVuSans-2f" transform="translate(1497.111328 0)"/>
      <use xlink:href="#DejaVuSans-31" transform="translate(1530.802734 0)"/>
      <use xlink:href="#DejaVuSans-30" transform="translate(1594.425781 0)"/>
      <use xlink:href="#DejaVuSans-30" transform="translate(1658.048828 0)"/>
      <use xlink:href="#DejaVuSans-6b" transform="translate(1721.671875 0)"/>
      <use xlink:href="#DejaVuSans-67" transform="translate(1779.582031 0)"/>
     </g>
    </g>
   </g>
   <g id="line2d_46">
    <path d="M 50.87 251.263836 
L 59.096354 250.788043 
L 67.322708 252.849811 
L 75.549063 253.008409 
L 83.775417 233.818103 
L 92.001771 211.773042 
L 100.228125 194.644505 
L 108.454479 192.741334 
L 116.680833 187.983407 
L 124.907187 206.380725 
L 133.133542 212.248834 
L 141.359896 208.759688 
L 149.58625 212.407432 
L 157.812604 213.676213 
L 166.038958 205.270542 
L 174.265312 181.639504 
L 182.491667 172.440846 
L 190.718021 167.682919 
L 198.944375 180.529321 
L 207.170729 184.970053 
L 215.397083 195.120297 
L 223.623437 217.799749 
L 231.849792 225.253835 
L 240.076146 231.280542 
L 248.3025 244.602738 
L 256.528854 229.853164 
L 264.755208 220.495908 
L 272.981563 227.474201 
L 281.207917 232.07353 
L 289.434271 225.888225 
L 297.660625 228.742981 
L 305.886979 217.482554 
L 314.113333 223.667859 
L 322.339687 237.624445 
L 330.566042 239.369018 
L 338.792396 239.527616 
L 347.01875 239.844811 
L 355.245104 235.086884 
L 363.471458 224.143652 
L 371.697812 183.22548 
L 379.924167 173.233833 
L 388.150521 164.828162 
L 396.376875 171.965053 
L 404.603229 162.607796 
L 412.829583 160.228833 
L 421.055937 160.228833 
L 429.282292 153.091943 
L 437.508646 137.549381 
L 445.735 157.374077 
L 453.961354 150.554382 
L 462.187708 143.417491 
L 470.414062 162.924992 
L 478.640417 192.265541 
L 486.866771 189.72798 
L 495.093125 214.310603 
L 503.319479 220.495908 
L 511.545833 239.686213 
L 519.772187 253.167006 
L 527.998542 258.717921 
L 536.224896 266.013409 
L 544.45125 265.061824 
L 552.677604 261.731275 
L 560.903958 222.240481 
L 569.130312 218.43414 
L 577.356667 218.43414 
L 585.583021 210.345664 
L 593.809375 222.081884 
L 602.035729 237.624445 
L 610.262083 251.422433 
L 618.488438 258.400726 
L 626.714792 259.986702 
L 634.941146 256.497555 
L 643.1675 256.497555 
L 651.393854 253.008409 
L 659.620208 173.868224 
L 667.846562 140.404137 
L 676.072917 161.021821 
L 684.299271 161.656211 
L 692.525625 156.105296 
L 700.751979 139.452552 
L 708.978333 119.152064 
L 717.204687 136.597796 
L 725.431042 144.844869 
L 733.657396 131.681271 
L 741.88375 130.571088 
L 750.110104 99.485965 
L 758.336458 82.833221 
L 766.562812 76.489318 
L 774.789167 74.42755 
L 783.015521 60.946757 
L 791.241875 49.369135 
L 799.468229 70.304013 
L 807.694583 83.150416 
L 815.920938 105.829868 
L 824.147292 112.808161 
L 832.373646 112.173771 
L 840.6 119.786454 
" clip-path="url(#pd8b317753c)" style="fill: none; stroke: #1f77b4; stroke-width: 2; stroke-linecap: square"/>
    <defs>
     <path id="m1e6e3cc8e0" d="M 0 3 
C 0.795609 3 1.55874 2.683901 2.12132 2.12132 
C 2.683901 1.55874 3 0.795609 3 0 
C 3 -0.795609 2.683901 -1.55874 2.12132 -2.12132 
C 1.55874 -2.683901 0.795609 -3 0 -3 
C -0.795609 -3 -1.55874 -2.683901 -2.12132 -2.12132 
C -2.683901 -1.55874 -3 -0.795609 -3 0 
C -3 0.795609 -2.683901 1.55874 -2.12132 2.12132 
C -1.55874 2.683901 -0.795609 3 0 3 
z
" style="stroke: #1f77b4"/>
    </defs>
    <g clip-path="url(#pd8b317753c)">
     <use xlink:href="#m1e6e3cc8e0" x="50.87" y="251.263836" style="fill: #1f77b4; stroke: #1f77b4"/>
     <use xlink:href="#m1e6e3cc8e0" x="59.096354" y="250.788043" style="fill: #1f77b4; stroke: #1f77b4"/>
     <use xlink:href="#m1e6e3cc8e0" x="67.322708" y="252.849811" style="fill: #1f77b4; stroke: #1f77b4"/>
     <use xlink:href="#m1e6e3cc8e0" x="75.549063" y="253.008409" style="fill: #1f77b4; stroke: #1f77b4"/>
     <use xlink:href="#m1e6e3cc8e0" x="83.775417" y="233.818103" style="fill: #1f77b4; stroke: #1f77b4"/>
     <use xlink:href="#m1e6e3cc8e0" x="92.001771" y="211.773042" style="fill: #1f77b4; stroke: #1f77b4"/>
     <use xlink:href="#m1e6e3cc8e0" x="100.228125" y="194.644505" style="fill: #1f77b4; stroke: #1f77b4"/>
     <use xlink:href="#m1e6e3cc8e0" x="108.454479" y="192.741334" style="fill: #1f77b4; stroke: #1f77b4"/>
     <use xlink:href="#m1e6e3cc8e0" x="116.680833" y="187.983407" style="fill: #1f77b4; stroke: #1f77b4"/>
     <use xlink:href="#m1e6e3cc8e0" x="124.907187" y="206.380725" style="fill: #1f77b4; stroke: #1f77b4"/>
     <use xlink:href="#m1e6e3cc8e0" x="133.133542" y="212.248834" style="fill: #1f77b4; stroke: #1f77b4"/>
     <use xlink:href="#m1e6e3cc8e0" x="141.359896" y="208.759688" style="fill: #1f77b4; stroke: #1f77b4"/>
     <use xlink:href="#m1e6e3cc8e0" x="149.58625" y="212.407432" style="fill: #1f77b4; stroke: #1f77b4"/>
     <use xlink:href="#m1e6e3cc8e0" x="157.812604" y="213.676213" style="fill: #1f77b4; stroke: #1f77b4"/>
     <use xlink:href="#m1e6e3cc8e0" x="166.038958" y="205.270542" style="fill: #1f77b4; stroke: #1f77b4"/>
     <use xlink:href="#m1e6e3cc8e0" x="174.265312" y="181.639504" style="fill: #1f77b4; stroke: #1f77b4"/>
     <use xlink:href="#m1e6e3cc8e0" x="182.491667" y="172.440846" style="fill: #1f77b4; stroke: #1f77b4"/>
     <use xlink:href="#m1e6e3cc8e0" x="190.718021" y="167.682919" style="fill: #1f77b4; stroke: #1f77b4"/>
     <use xlink:href="#m1e6e3cc8e0" x="198.944375" y="180.529321" style="fill: #1f77b4; stroke: #1f77b4"/>
     <use xlink:href="#m1e6e3cc8e0" x="207.170729" y="184.970053" style="fill: #1f77b4; stroke: #1f77b4"/>
     <use xlink:href="#m1e6e3cc8e0" x="215.397083" y="195.120297" style="fill: #1f77b4; stroke: #1f77b4"/>
     <use xlink:href="#m1e6e3cc8e0" x="223.623437" y="217.799749" style="fill: #1f77b4; stroke: #1f77b4"/>
     <use xlink:href="#m1e6e3cc8e0" x="231.849792" y="225.253835" style="fill: #1f77b4; stroke: #1f77b4"/>
     <use xlink:href="#m1e6e3cc8e0" x="240.076146" y="231.280542" style="fill: #1f77b4; stroke: #1f77b4"/>
     <use xlink:href="#m1e6e3cc8e0" x="248.3025" y="244.602738" style="fill: #1f77b4; stroke: #1f77b4"/>
     <use xlink:href="#m1e6e3cc8e0" x="256.528854" y="229.853164" style="fill: #1f77b4; stroke: #1f77b4"/>
     <use xlink:href="#m1e6e3cc8e0" x="264.755208" y="220.495908" style="fill: #1f77b4; stroke: #1f77b4"/>
     <use xlink:href="#m1e6e3cc8e0" x="272.981563" y="227.474201" style="fill: #1f77b4; stroke: #1f77b4"/>
     <use xlink:href="#m1e6e3cc8e0" x="281.207917" y="232.07353" style="fill: #1f77b4; stroke: #1f77b4"/>
     <use xlink:href="#m1e6e3cc8e0" x="289.434271" y="225.888225" style="fill: #1f77b4; stroke: #1f77b4"/>
     <use xlink:href="#m1e6e3cc8e0" x="297.660625" y="228.742981" style="fill: #1f77b4; stroke: #1f77b4"/>
     <use xlink:href="#m1e6e3cc8e0" x="305.886979" y="217.482554" style="fill: #1f77b4; stroke: #1f77b4"/>
     <use xlink:href="#m1e6e3cc8e0" x="314.113333" y="223.667859" style="fill: #1f77b4; stroke: #1f77b4"/>
     <use xlink:href="#m1e6e3cc8e0" x="322.339687" y="237.624445" style="fill: #1f77b4; stroke: #1f77b4"/>
     <use xlink:href="#m1e6e3cc8e0" x="330.566042" y="239.369018" style="fill: #1f77b4; stroke: #1f77b4"/>
     <use xlink:href="#m1e6e3cc8e0" x="338.792396" y="239.527616" style="fill: #1f77b4; stroke: #1f77b4"/>
     <use xlink:href="#m1e6e3cc8e0" x="347.01875" y="239.844811" style="fill: #1f77b4; stroke: #1f77b4"/>
     <use xlink:href="#m1e6e3cc8e0" x="355.245104" y="235.086884" style="fill: #1f77b4; stroke: #1f77b4"/>
     <use xlink:href="#m1e6e3cc8e0" x="363.471458" y="224.143652" style="fill: #1f77b4; stroke: #1f77b4"/>
     <use xlink:href="#m1e6e3cc8e0" x="371.697812" y="183.22548" style="fill: #1f77b4; stroke: #1f77b4"/>
     <use xlink:href="#m1e6e3cc8e0" x="379.924167" y="173.233833" style="fill: #1f77b4; stroke: #1f77b4"/>
     <use xlink:href="#m1e6e3cc8e0" x="388.150521" y="164.828162" style="fill: #1f77b4; stroke: #1f77b4"/>
     <use xlink:href="#m1e6e3cc8e0" x="396.376875" y="171.965053" style="fill: #1f77b4; stroke: #1f77b4"/>
     <use xlink:href="#m1e6e3cc8e0" x="404.603229" y="162.607796" style="fill: #1f77b4; stroke: #1f77b4"/>
     <use xlink:href="#m1e6e3cc8e0" x="412.829583" y="160.228833" style="fill: #1f77b4; stroke: #1f77b4"/>
     <use xlink:href="#m1e6e3cc8e0" x="421.055937" y="160.228833" style="fill: #1f77b4; stroke: #1f77b4"/>
     <use xlink:href="#m1e6e3cc8e0" x="429.282292" y="153.091943" style="fill: #1f77b4; stroke: #1f77b4"/>
     <use xlink:href="#m1e6e3cc8e0" x="437.508646" y="137.549381" style="fill: #1f77b4; stroke: #1f77b4"/>
     <use xlink:href="#m1e6e3cc8e0" x="445.735" y="157.374077" style="fill: #1f77b4; stroke: #1f77b4"/>
     <use xlink:href="#m1e6e3cc8e0" x="453.961354" y="150.554382" style="fill: #1f77b4; stroke: #1f77b4"/>
     <use xlink:href="#m1e6e3cc8e0" x="462.187708" y="143.417491" style="fill: #1f77b4; stroke: #1f77b4"/>
     <use xlink:href="#m1e6e3cc8e0" x="470.414062" y="162.924992" style="fill: #1f77b4; stroke: #1f77b4"/>
     <use xlink:href="#m1e6e3cc8e0" x="478.640417" y="192.265541" style="fill: #1f77b4; stroke: #1f77b4"/>
     <use xlink:href="#m1e6e3cc8e0" x="486.866771" y="189.72798" style="fill: #1f77b4; stroke: #1f77b4"/>
     <use xlink:href="#m1e6e3cc8e0" x="495.093125" y="214.310603" style="fill: #1f77b4; stroke: #1f77b4"/>
     <use xlink:href="#m1e6e3cc8e0" x="503.319479" y="220.495908" style="fill: #1f77b4; stroke: #1f77b4"/>
     <use xlink:href="#m1e6e3cc8e0" x="511.545833" y="239.686213" style="fill: #1f77b4; stroke: #1f77b4"/>
     <use xlink:href="#m1e6e3cc8e0" x="519.772187" y="253.167006" style="fill: #1f77b4; stroke: #1f77b4"/>
     <use xlink:href="#m1e6e3cc8e0" x="527.998542" y="258.717921" style="fill: #1f77b4; stroke: #1f77b4"/>
     <use xlink:href="#m1e6e3cc8e0" x="536.224896" y="266.013409" style="fill: #1f77b4; stroke: #1f77b4"/>
     <use xlink:href="#m1e6e3cc8e0" x="544.45125" y="265.061824" style="fill: #1f77b4; stroke: #1f77b4"/>
     <use xlink:href="#m1e6e3cc8e0" x="552.677604" y="261.731275" style="fill: #1f77b4; stroke: #1f77b4"/>
     <use xlink:href="#m1e6e3cc8e0" x="560.903958" y="222.240481" style="fill: #1f77b4; stroke: #1f77b4"/>
     <use xlink:href="#m1e6e3cc8e0" x="569.130312" y="218.43414" style="fill: #1f77b4; stroke: #1f77b4"/>
     <use xlink:href="#m1e6e3cc8e0" x="577.356667" y="218.43414" style="fill: #1f77b4; stroke: #1f77b4"/>
     <use xlink:href="#m1e6e3cc8e0" x="585.583021" y="210.345664" style="fill: #1f77b4; stroke: #1f77b4"/>
     <use xlink:href="#m1e6e3cc8e0" x="593.809375" y="222.081884" style="fill: #1f77b4; stroke: #1f77b4"/>
     <use xlink:href="#m1e6e3cc8e0" x="602.035729" y="237.624445" style="fill: #1f77b4; stroke: #1f77b4"/>
     <use xlink:href="#m1e6e3cc8e0" x="610.262083" y="251.422433" style="fill: #1f77b4; stroke: #1f77b4"/>
     <use xlink:href="#m1e6e3cc8e0" x="618.488438" y="258.400726" style="fill: #1f77b4; stroke: #1f77b4"/>
     <use xlink:href="#m1e6e3cc8e0" x="626.714792" y="259.986702" style="fill: #1f77b4; stroke: #1f77b4"/>
     <use xlink:href="#m1e6e3cc8e0" x="634.941146" y="256.497555" style="fill: #1f77b4; stroke: #1f77b4"/>
     <use xlink:href="#m1e6e3cc8e0" x="643.1675" y="256.497555" style="fill: #1f77b4; stroke: #1f77b4"/>
     <use xlink:href="#m1e6e3cc8e0" x="651.393854" y="253.008409" style="fill: #1f77b4; stroke: #1f77b4"/>
     <use xlink:href="#m1e6e3cc8e0" x="659.620208" y="173.868224" style="fill: #1f77b4; stroke: #1f77b4"/>
     <use xlink:href="#m1e6e3cc8e0" x="667.846562" y="140.404137" style="fill: #1f77b4; stroke: #1f77b4"/>
     <use xlink:href="#m1e6e3cc8e0" x="676.072917" y="161.021821" style="fill: #1f77b4; stroke: #1f77b4"/>
     <use xlink:href="#m1e6e3cc8e0" x="684.299271" y="161.656211" style="fill: #1f77b4; stroke: #1f77b4"/>
     <use xlink:href="#m1e6e3cc8e0" x="692.525625" y="156.105296" style="fill: #1f77b4; stroke: #1f77b4"/>
     <use xlink:href="#m1e6e3cc8e0" x="700.751979" y="139.452552" style="fill: #1f77b4; stroke: #1f77b4"/>
     <use xlink:href="#m1e6e3cc8e0" x="708.978333" y="119.152064" style="fill: #1f77b4; stroke: #1f77b4"/>
     <use xlink:href="#m1e6e3cc8e0" x="717.204687" y="136.597796" style="fill: #1f77b4; stroke: #1f77b4"/>
     <use xlink:href="#m1e6e3cc8e0" x="725.431042" y="144.844869" style="fill: #1f77b4; stroke: #1f77b4"/>
     <use xlink:href="#m1e6e3cc8e0" x="733.657396" y="131.681271" style="fill: #1f77b4; stroke: #1f77b4"/>
     <use xlink:href="#m1e6e3cc8e0" x="741.88375" y="130.571088" style="fill: #1f77b4; stroke: #1f77b4"/>
     <use xlink:href="#m1e6e3cc8e0" x="750.110104" y="99.485965" style="fill: #1f77b4; stroke: #1f77b4"/>
     <use xlink:href="#m1e6e3cc8e0" x="758.336458" y="82.833221" style="fill: #1f77b4; stroke: #1f77b4"/>
     <use xlink:href="#m1e6e3cc8e0" x="766.562812" y="76.489318" style="fill: #1f77b4; stroke: #1f77b4"/>
     <use xlink:href="#m1e6e3cc8e0" x="774.789167" y="74.42755" style="fill: #1f77b4; stroke: #1f77b4"/>
     <use xlink:href="#m1e6e3cc8e0" x="783.015521" y="60.946757" style="fill: #1f77b4; stroke: #1f77b4"/>
     <use xlink:href="#m1e6e3cc8e0" x="791.241875" y="49.369135" style="fill: #1f77b4; stroke: #1f77b4"/>
     <use xlink:href="#m1e6e3cc8e0" x="799.468229" y="70.304013" style="fill: #1f77b4; stroke: #1f77b4"/>
     <use xlink:href="#m1e6e3cc8e0" x="807.694583" y="83.150416" style="fill: #1f77b4; stroke: #1f77b4"/>
     <use xlink:href="#m1e6e3cc8e0" x="815.920938" y="105.829868" style="fill: #1f77b4; stroke: #1f77b4"/>
     <use xlink:href="#m1e6e3cc8e0" x="824.147292" y="112.808161" style="fill: #1f77b4; stroke: #1f77b4"/>
     <use xlink:href="#m1e6e3cc8e0" x="832.373646" y="112.173771" style="fill: #1f77b4; stroke: #1f77b4"/>
     <use xlink:href="#m1e6e3cc8e0" x="840.6" y="119.786454" style="fill: #1f77b4; stroke: #1f77b4"/>
    </g>
   </g>
   <g id="line2d_47">
    <path d="M 50.87 246.505909 
L 59.096354 246.981701 
L 67.322708 256.497555 
L 75.549063 257.607738 
L 83.775417 249.67786 
L 92.001771 219.544322 
L 100.228125 198.292249 
L 108.454479 192.741334 
L 116.680833 190.045175 
L 124.907187 196.071883 
L 133.133542 207.9667 
L 141.359896 204.477554 
L 149.58625 205.587737 
L 157.812604 208.442493 
L 166.038958 205.904932 
L 174.265312 194.010114 
L 182.491667 178.150358 
L 190.718021 164.828162 
L 198.944375 173.233833 
L 207.170729 183.542675 
L 215.397083 184.494261 
L 223.623437 203.208773 
L 231.849792 216.372371 
L 240.076146 218.751335 
L 248.3025 230.963347 
L 256.528854 229.853164 
L 264.755208 223.350664 
L 272.981563 229.218774 
L 281.207917 241.272189 
L 289.434271 224.460847 
L 297.660625 217.323957 
L 305.886979 215.103591 
L 314.113333 219.227127 
L 322.339687 230.963347 
L 330.566042 235.404079 
L 338.792396 234.611091 
L 347.01875 236.67286 
L 355.245104 238.893225 
L 363.471458 238.258835 
L 371.697812 196.706273 
L 379.924167 180.212126 
L 388.150521 170.537675 
L 396.376875 171.48926 
L 404.603229 166.572736 
L 412.829583 165.62115 
L 421.055937 163.242187 
L 429.282292 154.043528 
L 437.508646 131.998466 
L 445.735 149.919991 
L 453.961354 154.202126 
L 462.187708 146.430845 
L 470.414062 178.626151 
L 478.640417 224.143652 
L 486.866771 211.297249 
L 495.093125 228.584384 
L 503.319479 222.240481 
L 511.545833 230.80475 
L 519.772187 240.162006 
L 527.998542 247.616092 
L 536.224896 250.94664 
L 544.45125 267.599385 
L 552.677604 272.040117 
L 560.903958 232.866518 
L 569.130312 230.328957 
L 577.356667 234.769689 
L 585.583021 222.240481 
L 593.809375 235.404079 
L 602.035729 240.479201 
L 610.262083 240.637799 
L 618.488438 248.884872 
L 626.714792 253.801397 
L 634.941146 244.602738 
L 643.1675 239.210421 
L 651.393854 252.532616 
L 659.620208 188.617797 
L 667.846562 152.140357 
L 676.072917 172.440846 
L 684.299271 170.85487 
L 692.525625 160.387431 
L 700.751979 146.74804 
L 708.978333 121.213832 
L 717.204687 131.998466 
L 725.431042 140.086942 
L 733.657396 139.928345 
L 741.88375 133.74304 
L 750.110104 114.711332 
L 758.336458 90.604502 
L 766.562812 83.943404 
L 774.789167 73.634562 
L 783.015521 56.347428 
L 791.241875 52.065293 
L 799.468229 67.449257 
L 807.694583 76.013526 
L 815.920938 92.349075 
L 824.147292 104.719685 
L 832.373646 96.789807 
L 840.6 105.03688 
" clip-path="url(#pd8b317753c)" style="fill: none; stroke: #ff7f0e; stroke-width: 2; stroke-linecap: square"/>
    <defs>
     <path id="ma326a8f5e0" d="M 0 3 
C 0.795609 3 1.55874 2.683901 2.12132 2.12132 
C 2.683901 1.55874 3 0.795609 3 0 
C 3 -0.795609 2.683901 -1.55874 2.12132 -2.12132 
C 1.55874 -2.683901 0.795609 -3 0 -3 
C -0.795609 -3 -1.55874 -2.683901 -2.12132 -2.12132 
C -2.683901 -1.55874 -3 -0.795609 -3 0 
C -3 0.795609 -2.683901 1.55874 -2.12132 2.12132 
C -1.55874 2.683901 -0.795609 3 0 3 
z
" style="stroke: #ff7f0e"/>
    </defs>
    <g clip-path="url(#pd8b317753c)">
     <use xlink:href="#ma326a8f5e0" x="50.87" y="246.505909" style="fill: #ff7f0e; stroke: #ff7f0e"/>
     <use xlink:href="#ma326a8f5e0" x="59.096354" y="246.981701" style="fill: #ff7f0e; stroke: #ff7f0e"/>
     <use xlink:href="#ma326a8f5e0" x="67.322708" y="256.497555" style="fill: #ff7f0e; stroke: #ff7f0e"/>
     <use xlink:href="#ma326a8f5e0" x="75.549063" y="257.607738" style="fill: #ff7f0e; stroke: #ff7f0e"/>
     <use xlink:href="#ma326a8f5e0" x="83.775417" y="249.67786" style="fill: #ff7f0e; stroke: #ff7f0e"/>
     <use xlink:href="#ma326a8f5e0" x="92.001771" y="219.544322" style="fill: #ff7f0e; stroke: #ff7f0e"/>
     <use xlink:href="#ma326a8f5e0" x="100.228125" y="198.292249" style="fill: #ff7f0e; stroke: #ff7f0e"/>
     <use xlink:href="#ma326a8f5e0" x="108.454479" y="192.741334" style="fill: #ff7f0e; stroke: #ff7f0e"/>
     <use xlink:href="#ma326a8f5e0" x="116.680833" y="190.045175" style="fill: #ff7f0e; stroke: #ff7f0e"/>
     <use xlink:href="#ma326a8f5e0" x="124.907187" y="196.071883" style="fill: #ff7f0e; stroke: #ff7f0e"/>
     <use xlink:href="#ma326a8f5e0" x="133.133542" y="207.9667" style="fill: #ff7f0e; stroke: #ff7f0e"/>
     <use xlink:href="#ma326a8f5e0" x="141.359896" y="204.477554" style="fill: #ff7f0e; stroke: #ff7f0e"/>
     <use xlink:href="#ma326a8f5e0" x="149.58625" y="205.587737" style="fill: #ff7f0e; stroke: #ff7f0e"/>
     <use xlink:href="#ma326a8f5e0" x="157.812604" y="208.442493" style="fill: #ff7f0e; stroke: #ff7f0e"/>
     <use xlink:href="#ma326a8f5e0" x="166.038958" y="205.904932" style="fill: #ff7f0e; stroke: #ff7f0e"/>
     <use xlink:href="#ma326a8f5e0" x="174.265312" y="194.010114" style="fill: #ff7f0e; stroke: #ff7f0e"/>
     <use xlink:href="#ma326a8f5e0" x="182.491667" y="178.150358" style="fill: #ff7f0e; stroke: #ff7f0e"/>
     <use xlink:href="#ma326a8f5e0" x="190.718021" y="164.828162" style="fill: #ff7f0e; stroke: #ff7f0e"/>
     <use xlink:href="#ma326a8f5e0" x="198.944375" y="173.233833" style="fill: #ff7f0e; stroke: #ff7f0e"/>
     <use xlink:href="#ma326a8f5e0" x="207.170729" y="183.542675" style="fill: #ff7f0e; stroke: #ff7f0e"/>
     <use xlink:href="#ma326a8f5e0" x="215.397083" y="184.494261" style="fill: #ff7f0e; stroke: #ff7f0e"/>
     <use xlink:href="#ma326a8f5e0" x="223.623437" y="203.208773" style="fill: #ff7f0e; stroke: #ff7f0e"/>
     <use xlink:href="#ma326a8f5e0" x="231.849792" y="216.372371" style="fill: #ff7f0e; stroke: #ff7f0e"/>
     <use xlink:href="#ma326a8f5e0" x="240.076146" y="218.751335" style="fill: #ff7f0e; stroke: #ff7f0e"/>
     <use xlink:href="#ma326a8f5e0" x="248.3025" y="230.963347" style="fill: #ff7f0e; stroke: #ff7f0e"/>
     <use xlink:href="#ma326a8f5e0" x="256.528854" y="229.853164" style="fill: #ff7f0e; stroke: #ff7f0e"/>
     <use xlink:href="#ma326a8f5e0" x="264.755208" y="223.350664" style="fill: #ff7f0e; stroke: #ff7f0e"/>
     <use xlink:href="#ma326a8f5e0" x="272.981563" y="229.218774" style="fill: #ff7f0e; stroke: #ff7f0e"/>
     <use xlink:href="#ma326a8f5e0" x="281.207917" y="241.272189" style="fill: #ff7f0e; stroke: #ff7f0e"/>
     <use xlink:href="#ma326a8f5e0" x="289.434271" y="224.460847" style="fill: #ff7f0e; stroke: #ff7f0e"/>
     <use xlink:href="#ma326a8f5e0" x="297.660625" y="217.323957" style="fill: #ff7f0e; stroke: #ff7f0e"/>
     <use xlink:href="#ma326a8f5e0" x="305.886979" y="215.103591" style="fill: #ff7f0e; stroke: #ff7f0e"/>
     <use xlink:href="#ma326a8f5e0" x="314.113333" y="219.227127" style="fill: #ff7f0e; stroke: #ff7f0e"/>
     <use xlink:href="#ma326a8f5e0" x="322.339687" y="230.963347" style="fill: #ff7f0e; stroke: #ff7f0e"/>
     <use xlink:href="#ma326a8f5e0" x="330.566042" y="235.404079" style="fill: #ff7f0e; stroke: #ff7f0e"/>
     <use xlink:href="#ma326a8f5e0" x="338.792396" y="234.611091" style="fill: #ff7f0e; stroke: #ff7f0e"/>
     <use xlink:href="#ma326a8f5e0" x="347.01875" y="236.67286" style="fill: #ff7f0e; stroke: #ff7f0e"/>
     <use xlink:href="#ma326a8f5e0" x="355.245104" y="238.893225" style="fill: #ff7f0e; stroke: #ff7f0e"/>
     <use xlink:href="#ma326a8f5e0" x="363.471458" y="238.258835" style="fill: #ff7f0e; stroke: #ff7f0e"/>
     <use xlink:href="#ma326a8f5e0" x="371.697812" y="196.706273" style="fill: #ff7f0e; stroke: #ff7f0e"/>
     <use xlink:href="#ma326a8f5e0" x="379.924167" y="180.212126" style="fill: #ff7f0e; stroke: #ff7f0e"/>
     <use xlink:href="#ma326a8f5e0" x="388.150521" y="170.537675" style="fill: #ff7f0e; stroke: #ff7f0e"/>
     <use xlink:href="#ma326a8f5e0" x="396.376875" y="171.48926" style="fill: #ff7f0e; stroke: #ff7f0e"/>
     <use xlink:href="#ma326a8f5e0" x="404.603229" y="166.572736" style="fill: #ff7f0e; stroke: #ff7f0e"/>
     <use xlink:href="#ma326a8f5e0" x="412.829583" y="165.62115" style="fill: #ff7f0e; stroke: #ff7f0e"/>
     <use xlink:href="#ma326a8f5e0" x="421.055937" y="163.242187" style="fill: #ff7f0e; stroke: #ff7f0e"/>
     <use xlink:href="#ma326a8f5e0" x="429.282292" y="154.043528" style="fill: #ff7f0e; stroke: #ff7f0e"/>
     <use xlink:href="#ma326a8f5e0" x="437.508646" y="131.998466" style="fill: #ff7f0e; stroke: #ff7f0e"/>
     <use xlink:href="#ma326a8f5e0" x="445.735" y="149.919991" style="fill: #ff7f0e; stroke: #ff7f0e"/>
     <use xlink:href="#ma326a8f5e0" x="453.961354" y="154.202126" style="fill: #ff7f0e; stroke: #ff7f0e"/>
     <use xlink:href="#ma326a8f5e0" x="462.187708" y="146.430845" style="fill: #ff7f0e; stroke: #ff7f0e"/>
     <use xlink:href="#ma326a8f5e0" x="470.414062" y="178.626151" style="fill: #ff7f0e; stroke: #ff7f0e"/>
     <use xlink:href="#ma326a8f5e0" x="478.640417" y="224.143652" style="fill: #ff7f0e; stroke: #ff7f0e"/>
     <use xlink:href="#ma326a8f5e0" x="486.866771" y="211.297249" style="fill: #ff7f0e; stroke: #ff7f0e"/>
     <use xlink:href="#ma326a8f5e0" x="495.093125" y="228.584384" style="fill: #ff7f0e; stroke: #ff7f0e"/>
     <use xlink:href="#ma326a8f5e0" x="503.319479" y="222.240481" style="fill: #ff7f0e; stroke: #ff7f0e"/>
     <use xlink:href="#ma326a8f5e0" x="511.545833" y="230.80475" style="fill: #ff7f0e; stroke: #ff7f0e"/>
     <use xlink:href="#ma326a8f5e0" x="519.772187" y="240.162006" style="fill: #ff7f0e; stroke: #ff7f0e"/>
     <use xlink:href="#ma326a8f5e0" x="527.998542" y="247.616092" style="fill: #ff7f0e; stroke: #ff7f0e"/>
     <use xlink:href="#ma326a8f5e0" x="536.224896" y="250.94664" style="fill: #ff7f0e; stroke: #ff7f0e"/>
     <use xlink:href="#ma326a8f5e0" x="544.45125" y="267.599385" style="fill: #ff7f0e; stroke: #ff7f0e"/>
     <use xlink:href="#ma326a8f5e0" x="552.677604" y="272.040117" style="fill: #ff7f0e; stroke: #ff7f0e"/>
     <use xlink:href="#ma326a8f5e0" x="560.903958" y="232.866518" style="fill: #ff7f0e; stroke: #ff7f0e"/>
     <use xlink:href="#ma326a8f5e0" x="569.130312" y="230.328957" style="fill: #ff7f0e; stroke: #ff7f0e"/>
     <use xlink:href="#ma326a8f5e0" x="577.356667" y="234.769689" style="fill: #ff7f0e; stroke: #ff7f0e"/>
     <use xlink:href="#ma326a8f5e0" x="585.583021" y="222.240481" style="fill: #ff7f0e; stroke: #ff7f0e"/>
     <use xlink:href="#ma326a8f5e0" x="593.809375" y="235.404079" style="fill: #ff7f0e; stroke: #ff7f0e"/>
     <use xlink:href="#ma326a8f5e0" x="602.035729" y="240.479201" style="fill: #ff7f0e; stroke: #ff7f0e"/>
     <use xlink:href="#ma326a8f5e0" x="610.262083" y="240.637799" style="fill: #ff7f0e; stroke: #ff7f0e"/>
     <use xlink:href="#ma326a8f5e0" x="618.488438" y="248.884872" style="fill: #ff7f0e; stroke: #ff7f0e"/>
     <use xlink:href="#ma326a8f5e0" x="626.714792" y="253.801397" style="fill: #ff7f0e; stroke: #ff7f0e"/>
     <use xlink:href="#ma326a8f5e0" x="634.941146" y="244.602738" style="fill: #ff7f0e; stroke: #ff7f0e"/>
     <use xlink:href="#ma326a8f5e0" x="643.1675" y="239.210421" style="fill: #ff7f0e; stroke: #ff7f0e"/>
     <use xlink:href="#ma326a8f5e0" x="651.393854" y="252.532616" style="fill: #ff7f0e; stroke: #ff7f0e"/>
     <use xlink:href="#ma326a8f5e0" x="659.620208" y="188.617797" style="fill: #ff7f0e; stroke: #ff7f0e"/>
     <use xlink:href="#ma326a8f5e0" x="667.846562" y="152.140357" style="fill: #ff7f0e; stroke: #ff7f0e"/>
     <use xlink:href="#ma326a8f5e0" x="676.072917" y="172.440846" style="fill: #ff7f0e; stroke: #ff7f0e"/>
     <use xlink:href="#ma326a8f5e0" x="684.299271" y="170.85487" style="fill: #ff7f0e; stroke: #ff7f0e"/>
     <use xlink:href="#ma326a8f5e0" x="692.525625" y="160.387431" style="fill: #ff7f0e; stroke: #ff7f0e"/>
     <use xlink:href="#ma326a8f5e0" x="700.751979" y="146.74804" style="fill: #ff7f0e; stroke: #ff7f0e"/>
     <use xlink:href="#ma326a8f5e0" x="708.978333" y="121.213832" style="fill: #ff7f0e; stroke: #ff7f0e"/>
     <use xlink:href="#ma326a8f5e0" x="717.204687" y="131.998466" style="fill: #ff7f0e; stroke: #ff7f0e"/>
     <use xlink:href="#ma326a8f5e0" x="725.431042" y="140.086942" style="fill: #ff7f0e; stroke: #ff7f0e"/>
     <use xlink:href="#ma326a8f5e0" x="733.657396" y="139.928345" style="fill: #ff7f0e; stroke: #ff7f0e"/>
     <use xlink:href="#ma326a8f5e0" x="741.88375" y="133.74304" style="fill: #ff7f0e; stroke: #ff7f0e"/>
     <use xlink:href="#ma326a8f5e0" x="750.110104" y="114.711332" style="fill: #ff7f0e; stroke: #ff7f0e"/>
     <use xlink:href="#ma326a8f5e0" x="758.336458" y="90.604502" style="fill: #ff7f0e; stroke: #ff7f0e"/>
     <use xlink:href="#ma326a8f5e0" x="766.562812" y="83.943404" style="fill: #ff7f0e; stroke: #ff7f0e"/>
     <use xlink:href="#ma326a8f5e0" x="774.789167" y="73.634562" style="fill: #ff7f0e; stroke: #ff7f0e"/>
     <use xlink:href="#ma326a8f5e0" x="783.015521" y="56.347428" style="fill: #ff7f0e; stroke: #ff7f0e"/>
     <use xlink:href="#ma326a8f5e0" x="791.241875" y="52.065293" style="fill: #ff7f0e; stroke: #ff7f0e"/>
     <use xlink:href="#ma326a8f5e0" x="799.468229" y="67.449257" style="fill: #ff7f0e; stroke: #ff7f0e"/>
     <use xlink:href="#ma326a8f5e0" x="807.694583" y="76.013526" style="fill: #ff7f0e; stroke: #ff7f0e"/>
     <use xlink:href="#ma326a8f5e0" x="815.920938" y="92.349075" style="fill: #ff7f0e; stroke: #ff7f0e"/>
     <use xlink:href="#ma326a8f5e0" x="824.147292" y="104.719685" style="fill: #ff7f0e; stroke: #ff7f0e"/>
     <use xlink:href="#ma326a8f5e0" x="832.373646" y="96.789807" style="fill: #ff7f0e; stroke: #ff7f0e"/>
     <use xlink:href="#ma326a8f5e0" x="840.6" y="105.03688" style="fill: #ff7f0e; stroke: #ff7f0e"/>
    </g>
   </g>
   <g id="line2d_48">
    <path d="M 50.87 274.736275 
L 59.096354 270.771336 
L 67.322708 268.55097 
L 75.549063 267.123592 
L 83.775417 258.876519 
L 92.001771 237.148652 
L 100.228125 217.165359 
L 108.454479 212.56603 
L 116.680833 206.856517 
L 124.907187 215.579383 
L 133.133542 236.197067 
L 141.359896 236.831457 
L 149.58625 235.879872 
L 157.812604 227.474201 
L 166.038958 221.764688 
L 174.265312 202.891578 
L 182.491667 205.904932 
L 190.718021 208.918286 
L 198.944375 208.283895 
L 207.170729 212.724627 
L 215.397083 227.157006 
L 223.623437 247.140299 
L 231.849792 255.54597 
L 240.076146 257.607738 
L 248.3025 265.379019 
L 256.528854 262.68286 
L 264.755208 249.519262 
L 272.981563 253.801397 
L 281.207917 255.863165 
L 289.434271 254.118592 
L 297.660625 251.898226 
L 305.886979 250.31225 
L 314.113333 242.540969 
L 322.339687 253.642799 
L 330.566042 257.290543 
L 338.792396 257.449141 
L 347.01875 257.449141 
L 355.245104 257.290543 
L 363.471458 250.788043 
L 371.697812 226.046823 
L 379.924167 215.896578 
L 388.150521 206.222127 
L 396.376875 200.82981 
L 404.603229 194.644505 
L 412.829583 179.577736 
L 421.055937 174.978407 
L 429.282292 176.08859 
L 437.508646 176.405785 
L 445.735 193.534322 
L 453.961354 209.869871 
L 462.187708 199.085237 
L 470.414062 202.09859 
L 478.640417 220.971701 
L 486.866771 228.901579 
L 495.093125 231.756335 
L 503.319479 234.611091 
L 511.545833 224.619445 
L 519.772187 224.619445 
L 527.998542 234.928286 
L 536.224896 249.836457 
L 544.45125 251.105238 
L 552.677604 250.31225 
L 560.903958 236.831457 
L 569.130312 220.971701 
L 577.356667 201.305602 
L 585.583021 198.609444 
L 593.809375 218.592737 
L 602.035729 228.901579 
L 610.262083 231.597737 
L 618.488438 246.981701 
L 626.714792 250.629445 
L 634.941146 247.933287 
L 643.1675 246.664506 
L 651.393854 244.919933 
L 659.620208 221.130298 
L 667.846562 180.687919 
L 676.072917 171.330663 
L 684.299271 171.965053 
L 692.525625 152.140357 
L 700.751979 134.853223 
L 708.978333 122.00682 
L 717.204687 123.751393 
L 725.431042 149.602796 
L 733.657396 155.629504 
L 741.88375 141.672918 
L 750.110104 113.442551 
L 758.336458 78.233892 
L 766.562812 73.000172 
L 774.789167 96.631209 
L 783.015521 94.093648 
L 791.241875 76.647916 
L 799.468229 91.39749 
L 807.694583 119.786454 
L 815.920938 137.232186 
L 824.147292 159.277248 
L 832.373646 160.863223 
L 840.6 158.801455 
" clip-path="url(#pd8b317753c)" style="fill: none; stroke: #2ca02c; stroke-width: 2; stroke-linecap: square"/>
    <defs>
     <path id="maaac5bb1e3" d="M 0 3 
C 0.795609 3 1.55874 2.683901 2.12132 2.12132 
C 2.683901 1.55874 3 0.795609 3 0 
C 3 -0.795609 2.683901 -1.55874 2.12132 -2.12132 
C 1.55874 -2.683901 0.795609 -3 0 -3 
C -0.795609 -3 -1.55874 -2.683901 -2.12132 -2.12132 
C -2.683901 -1.55874 -3 -0.795609 -3 0 
C -3 0.795609 -2.683901 1.55874 -2.12132 2.12132 
C -1.55874 2.683901 -0.795609 3 0 3 
z
" style="stroke: #2ca02c"/>
    </defs>
    <g clip-path="url(#pd8b317753c)">
     <use xlink:href="#maaac5bb1e3" x="50.87" y="274.736275" style="fill: #2ca02c; stroke: #2ca02c"/>
     <use xlink:href="#maaac5bb1e3" x="59.096354" y="270.771336" style="fill: #2ca02c; stroke: #2ca02c"/>
     <use xlink:href="#maaac5bb1e3" x="67.322708" y="268.55097" style="fill: #2ca02c; stroke: #2ca02c"/>
     <use xlink:href="#maaac5bb1e3" x="75.549063" y="267.123592" style="fill: #2ca02c; stroke: #2ca02c"/>
     <use xlink:href="#maaac5bb1e3" x="83.775417" y="258.876519" style="fill: #2ca02c; stroke: #2ca02c"/>
     <use xlink:href="#maaac5bb1e3" x="92.001771" y="237.148652" style="fill: #2ca02c; stroke: #2ca02c"/>
     <use xlink:href="#maaac5bb1e3" x="100.228125" y="217.165359" style="fill: #2ca02c; stroke: #2ca02c"/>
     <use xlink:href="#maaac5bb1e3" x="108.454479" y="212.56603" style="fill: #2ca02c; stroke: #2ca02c"/>
     <use xlink:href="#maaac5bb1e3" x="116.680833" y="206.856517" style="fill: #2ca02c; stroke: #2ca02c"/>
     <use xlink:href="#maaac5bb1e3" x="124.907187" y="215.579383" style="fill: #2ca02c; stroke: #2ca02c"/>
     <use xlink:href="#maaac5bb1e3" x="133.133542" y="236.197067" style="fill: #2ca02c; stroke: #2ca02c"/>
     <use xlink:href="#maaac5bb1e3" x="141.359896" y="236.831457" style="fill: #2ca02c; stroke: #2ca02c"/>
     <use xlink:href="#maaac5bb1e3" x="149.58625" y="235.879872" style="fill: #2ca02c; stroke: #2ca02c"/>
     <use xlink:href="#maaac5bb1e3" x="157.812604" y="227.474201" style="fill: #2ca02c; stroke: #2ca02c"/>
     <use xlink:href="#maaac5bb1e3" x="166.038958" y="221.764688" style="fill: #2ca02c; stroke: #2ca02c"/>
     <use xlink:href="#maaac5bb1e3" x="174.265312" y="202.891578" style="fill: #2ca02c; stroke: #2ca02c"/>
     <use xlink:href="#maaac5bb1e3" x="182.491667" y="205.904932" style="fill: #2ca02c; stroke: #2ca02c"/>
     <use xlink:href="#maaac5bb1e3" x="190.718021" y="208.918286" style="fill: #2ca02c; stroke: #2ca02c"/>
     <use xlink:href="#maaac5bb1e3" x="198.944375" y="208.283895" style="fill: #2ca02c; stroke: #2ca02c"/>
     <use xlink:href="#maaac5bb1e3" x="207.170729" y="212.724627" style="fill: #2ca02c; stroke: #2ca02c"/>
     <use xlink:href="#maaac5bb1e3" x="215.397083" y="227.157006" style="fill: #2ca02c; stroke: #2ca02c"/>
     <use xlink:href="#maaac5bb1e3" x="223.623437" y="247.140299" style="fill: #2ca02c; stroke: #2ca02c"/>
     <use xlink:href="#maaac5bb1e3" x="231.849792" y="255.54597" style="fill: #2ca02c; stroke: #2ca02c"/>
     <use xlink:href="#maaac5bb1e3" x="240.076146" y="257.607738" style="fill: #2ca02c; stroke: #2ca02c"/>
     <use xlink:href="#maaac5bb1e3" x="248.3025" y="265.379019" style="fill: #2ca02c; stroke: #2ca02c"/>
     <use xlink:href="#maaac5bb1e3" x="256.528854" y="262.68286" style="fill: #2ca02c; stroke: #2ca02c"/>
     <use xlink:href="#maaac5bb1e3" x="264.755208" y="249.519262" style="fill: #2ca02c; stroke: #2ca02c"/>
     <use xlink:href="#maaac5bb1e3" x="272.981563" y="253.801397" style="fill: #2ca02c; stroke: #2ca02c"/>
     <use xlink:href="#maaac5bb1e3" x="281.207917" y="255.863165" style="fill: #2ca02c; stroke: #2ca02c"/>
     <use xlink:href="#maaac5bb1e3" x="289.434271" y="254.118592" style="fill: #2ca02c; stroke: #2ca02c"/>
     <use xlink:href="#maaac5bb1e3" x="297.660625" y="251.898226" style="fill: #2ca02c; stroke: #2ca02c"/>
     <use xlink:href="#maaac5bb1e3" x="305.886979" y="250.31225" style="fill: #2ca02c; stroke: #2ca02c"/>
     <use xlink:href="#maaac5bb1e3" x="314.113333" y="242.540969" style="fill: #2ca02c; stroke: #2ca02c"/>
     <use xlink:href="#maaac5bb1e3" x="322.339687" y="253.642799" style="fill: #2ca02c; stroke: #2ca02c"/>
     <use xlink:href="#maaac5bb1e3" x="330.566042" y="257.290543" style="fill: #2ca02c; stroke: #2ca02c"/>
     <use xlink:href="#maaac5bb1e3" x="338.792396" y="257.449141" style="fill: #2ca02c; stroke: #2ca02c"/>
     <use xlink:href="#maaac5bb1e3" x="347.01875" y="257.449141" style="fill: #2ca02c; stroke: #2ca02c"/>
     <use xlink:href="#maaac5bb1e3" x="355.245104" y="257.290543" style="fill: #2ca02c; stroke: #2ca02c"/>
     <use xlink:href="#maaac5bb1e3" x="363.471458" y="250.788043" style="fill: #2ca02c; stroke: #2ca02c"/>
     <use xlink:href="#maaac5bb1e3" x="371.697812" y="226.046823" style="fill: #2ca02c; stroke: #2ca02c"/>
     <use xlink:href="#maaac5bb1e3" x="379.924167" y="215.896578" style="fill: #2ca02c; stroke: #2ca02c"/>
     <use xlink:href="#maaac5bb1e3" x="388.150521" y="206.222127" style="fill: #2ca02c; stroke: #2ca02c"/>
     <use xlink:href="#maaac5bb1e3" x="396.376875" y="200.82981" style="fill: #2ca02c; stroke: #2ca02c"/>
     <use xlink:href="#maaac5bb1e3" x="404.603229" y="194.644505" style="fill: #2ca02c; stroke: #2ca02c"/>
     <use xlink:href="#maaac5bb1e3" x="412.829583" y="179.577736" style="fill: #2ca02c; stroke: #2ca02c"/>
     <use xlink:href="#maaac5bb1e3" x="421.055937" y="174.978407" style="fill: #2ca02c; stroke: #2ca02c"/>
     <use xlink:href="#maaac5bb1e3" x="429.282292" y="176.08859" style="fill: #2ca02c; stroke: #2ca02c"/>
     <use xlink:href="#maaac5bb1e3" x="437.508646" y="176.405785" style="fill: #2ca02c; stroke: #2ca02c"/>
     <use xlink:href="#maaac5bb1e3" x="445.735" y="193.534322" style="fill: #2ca02c; stroke: #2ca02c"/>
     <use xlink:href="#maaac5bb1e3" x="453.961354" y="209.869871" style="fill: #2ca02c; stroke: #2ca02c"/>
     <use xlink:href="#maaac5bb1e3" x="462.187708" y="199.085237" style="fill: #2ca02c; stroke: #2ca02c"/>
     <use xlink:href="#maaac5bb1e3" x="470.414062" y="202.09859" style="fill: #2ca02c; stroke: #2ca02c"/>
     <use xlink:href="#maaac5bb1e3" x="478.640417" y="220.971701" style="fill: #2ca02c; stroke: #2ca02c"/>
     <use xlink:href="#maaac5bb1e3" x="486.866771" y="228.901579" style="fill: #2ca02c; stroke: #2ca02c"/>
     <use xlink:href="#maaac5bb1e3" x="495.093125" y="231.756335" style="fill: #2ca02c; stroke: #2ca02c"/>
     <use xlink:href="#maaac5bb1e3" x="503.319479" y="234.611091" style="fill: #2ca02c; stroke: #2ca02c"/>
     <use xlink:href="#maaac5bb1e3" x="511.545833" y="224.619445" style="fill: #2ca02c; stroke: #2ca02c"/>
     <use xlink:href="#maaac5bb1e3" x="519.772187" y="224.619445" style="fill: #2ca02c; stroke: #2ca02c"/>
     <use xlink:href="#maaac5bb1e3" x="527.998542" y="234.928286" style="fill: #2ca02c; stroke: #2ca02c"/>
     <use xlink:href="#maaac5bb1e3" x="536.224896" y="249.836457" style="fill: #2ca02c; stroke: #2ca02c"/>
     <use xlink:href="#maaac5bb1e3" x="544.45125" y="251.105238" style="fill: #2ca02c; stroke: #2ca02c"/>
     <use xlink:href="#maaac5bb1e3" x="552.677604" y="250.31225" style="fill: #2ca02c; stroke: #2ca02c"/>
     <use xlink:href="#maaac5bb1e3" x="560.903958" y="236.831457" style="fill: #2ca02c; stroke: #2ca02c"/>
     <use xlink:href="#maaac5bb1e3" x="569.130312" y="220.971701" style="fill: #2ca02c; stroke: #2ca02c"/>
     <use xlink:href="#maaac5bb1e3" x="577.356667" y="201.305602" style="fill: #2ca02c; stroke: #2ca02c"/>
     <use xlink:href="#maaac5bb1e3" x="585.583021" y="198.609444" style="fill: #2ca02c; stroke: #2ca02c"/>
     <use xlink:href="#maaac5bb1e3" x="593.809375" y="218.592737" style="fill: #2ca02c; stroke: #2ca02c"/>
     <use xlink:href="#maaac5bb1e3" x="602.035729" y="228.901579" style="fill: #2ca02c; stroke: #2ca02c"/>
     <use xlink:href="#maaac5bb1e3" x="610.262083" y="231.597737" style="fill: #2ca02c; stroke: #2ca02c"/>
     <use xlink:href="#maaac5bb1e3" x="618.488438" y="246.981701" style="fill: #2ca02c; stroke: #2ca02c"/>
     <use xlink:href="#maaac5bb1e3" x="626.714792" y="250.629445" style="fill: #2ca02c; stroke: #2ca02c"/>
     <use xlink:href="#maaac5bb1e3" x="634.941146" y="247.933287" style="fill: #2ca02c; stroke: #2ca02c"/>
     <use xlink:href="#maaac5bb1e3" x="643.1675" y="246.664506" style="fill: #2ca02c; stroke: #2ca02c"/>
     <use xlink:href="#maaac5bb1e3" x="651.393854" y="244.919933" style="fill: #2ca02c; stroke: #2ca02c"/>
     <use xlink:href="#maaac5bb1e3" x="659.620208" y="221.130298" style="fill: #2ca02c; stroke: #2ca02c"/>
     <use xlink:href="#maaac5bb1e3" x="667.846562" y="180.687919" style="fill: #2ca02c; stroke: #2ca02c"/>
     <use xlink:href="#maaac5bb1e3" x="676.072917" y="171.330663" style="fill: #2ca02c; stroke: #2ca02c"/>
     <use xlink:href="#maaac5bb1e3" x="684.299271" y="171.965053" style="fill: #2ca02c; stroke: #2ca02c"/>
     <use xlink:href="#maaac5bb1e3" x="692.525625" y="152.140357" style="fill: #2ca02c; stroke: #2ca02c"/>
     <use xlink:href="#maaac5bb1e3" x="700.751979" y="134.853223" style="fill: #2ca02c; stroke: #2ca02c"/>
     <use xlink:href="#maaac5bb1e3" x="708.978333" y="122.00682" style="fill: #2ca02c; stroke: #2ca02c"/>
     <use xlink:href="#maaac5bb1e3" x="717.204687" y="123.751393" style="fill: #2ca02c; stroke: #2ca02c"/>
     <use xlink:href="#maaac5bb1e3" x="725.431042" y="149.602796" style="fill: #2ca02c; stroke: #2ca02c"/>
     <use xlink:href="#maaac5bb1e3" x="733.657396" y="155.629504" style="fill: #2ca02c; stroke: #2ca02c"/>
     <use xlink:href="#maaac5bb1e3" x="741.88375" y="141.672918" style="fill: #2ca02c; stroke: #2ca02c"/>
     <use xlink:href="#maaac5bb1e3" x="750.110104" y="113.442551" style="fill: #2ca02c; stroke: #2ca02c"/>
     <use xlink:href="#maaac5bb1e3" x="758.336458" y="78.233892" style="fill: #2ca02c; stroke: #2ca02c"/>
     <use xlink:href="#maaac5bb1e3" x="766.562812" y="73.000172" style="fill: #2ca02c; stroke: #2ca02c"/>
     <use xlink:href="#maaac5bb1e3" x="774.789167" y="96.631209" style="fill: #2ca02c; stroke: #2ca02c"/>
     <use xlink:href="#maaac5bb1e3" x="783.015521" y="94.093648" style="fill: #2ca02c; stroke: #2ca02c"/>
     <use xlink:href="#maaac5bb1e3" x="791.241875" y="76.647916" style="fill: #2ca02c; stroke: #2ca02c"/>
     <use xlink:href="#maaac5bb1e3" x="799.468229" y="91.39749" style="fill: #2ca02c; stroke: #2ca02c"/>
     <use xlink:href="#maaac5bb1e3" x="807.694583" y="119.786454" style="fill: #2ca02c; stroke: #2ca02c"/>
     <use xlink:href="#maaac5bb1e3" x="815.920938" y="137.232186" style="fill: #2ca02c; stroke: #2ca02c"/>
     <use xlink:href="#maaac5bb1e3" x="824.147292" y="159.277248" style="fill: #2ca02c; stroke: #2ca02c"/>
     <use xlink:href="#maaac5bb1e3" x="832.373646" y="160.863223" style="fill: #2ca02c; stroke: #2ca02c"/>
     <use xlink:href="#maaac5bb1e3" x="840.6" y="158.801455" style="fill: #2ca02c; stroke: #2ca02c"/>
    </g>
   </g>
   <g id="line2d_49">
    <path d="M 50.87 268.392373 
L 59.096354 261.731275 
L 67.322708 254.435787 
L 75.549063 259.828104 
L 83.775417 244.919933 
L 92.001771 223.667859 
L 100.228125 206.380725 
L 108.454479 203.050176 
L 116.680833 200.671212 
L 124.907187 215.103591 
L 133.133542 225.57103 
L 141.359896 221.764688 
L 149.58625 224.143652 
L 157.812604 225.729628 
L 166.038958 218.592737 
L 174.265312 193.692919 
L 182.491667 182.908285 
L 190.718021 178.308955 
L 198.944375 188.776395 
L 207.170729 193.058529 
L 215.397083 199.878224 
L 223.623437 224.619445 
L 231.849792 232.232128 
L 240.076146 236.038469 
L 248.3025 248.409079 
L 256.528854 238.734628 
L 264.755208 230.328957 
L 272.981563 235.879872 
L 281.207917 243.333957 
L 289.434271 235.086884 
L 297.660625 236.514262 
L 305.886979 226.522615 
L 314.113333 232.70792 
L 322.339687 248.409079 
L 330.566042 255.704567 
L 338.792396 258.400726 
L 347.01875 262.68286 
L 355.245104 259.828104 
L 363.471458 245.554323 
L 371.697812 183.85987 
L 379.924167 179.577736 
L 388.150521 179.736334 
L 396.376875 188.300602 
L 404.603229 184.018468 
L 412.829583 180.053529 
L 421.055937 179.419138 
L 429.282292 176.881577 
L 437.508646 155.946699 
L 445.735 171.48926 
L 453.961354 159.75304 
L 462.187708 162.924992 
L 470.414062 186.714626 
L 478.640417 220.813103 
L 486.866771 204.636151 
L 495.093125 233.500908 
L 503.319479 230.011762 
L 511.545833 244.602738 
L 519.772187 258.400726 
L 527.998542 270.771336 
L 536.224896 281.555971 
L 544.45125 282.666154 
L 552.677604 263.000055 
L 560.903958 223.350664 
L 569.130312 223.985054 
L 577.356667 217.799749 
L 585.583021 213.359017 
L 593.809375 234.769689 
L 602.035729 233.818103 
L 610.262083 261.572677 
L 618.488438 274.577678 
L 626.714792 274.41908 
L 634.941146 259.828104 
L 643.1675 259.669507 
L 651.393854 266.489202 
L 659.620208 184.177065 
L 667.846562 159.11865 
L 676.072917 169.110297 
L 684.299271 160.546028 
L 692.525625 157.691272 
L 700.751979 137.390784 
L 708.978333 119.786454 
L 717.204687 149.127003 
L 725.431042 144.369076 
L 733.657396 123.434198 
L 741.88375 136.597796 
L 750.110104 109.160417 
L 758.336458 90.763099 
L 766.562812 65.070294 
L 774.789167 61.42255 
L 783.015521 39.060293 
L 791.241875 41.439257 
L 799.468229 82.198831 
L 807.694583 98.058587 
L 815.920938 105.512673 
L 824.147292 104.719685 
L 832.373646 113.918344 
L 840.6 133.425844 
" clip-path="url(#pd8b317753c)" style="fill: none; stroke: #d62728; stroke-width: 2; stroke-linecap: square"/>
    <defs>
     <path id="m194ea96b62" d="M 0 3 
C 0.795609 3 1.55874 2.683901 2.12132 2.12132 
C 2.683901 1.55874 3 0.795609 3 0 
C 3 -0.795609 2.683901 -1.55874 2.12132 -2.12132 
C 1.55874 -2.683901 0.795609 -3 0 -3 
C -0.795609 -3 -1.55874 -2.683901 -2.12132 -2.12132 
C -2.683901 -1.55874 -3 -0.795609 -3 0 
C -3 0.795609 -2.683901 1.55874 -2.12132 2.12132 
C -1.55874 2.683901 -0.795609 3 0 3 
z
" style="stroke: #d62728"/>
    </defs>
    <g clip-path="url(#pd8b317753c)">
     <use xlink:href="#m194ea96b62" x="50.87" y="268.392373" style="fill: #d62728; stroke: #d62728"/>
     <use xlink:href="#m194ea96b62" x="59.096354" y="261.731275" style="fill: #d62728; stroke: #d62728"/>
     <use xlink:href="#m194ea96b62" x="67.322708" y="254.435787" style="fill: #d62728; stroke: #d62728"/>
     <use xlink:href="#m194ea96b62" x="75.549063" y="259.828104" style="fill: #d62728; stroke: #d62728"/>
     <use xlink:href="#m194ea96b62" x="83.775417" y="244.919933" style="fill: #d62728; stroke: #d62728"/>
     <use xlink:href="#m194ea96b62" x="92.001771" y="223.667859" style="fill: #d62728; stroke: #d62728"/>
     <use xlink:href="#m194ea96b62" x="100.228125" y="206.380725" style="fill: #d62728; stroke: #d62728"/>
     <use xlink:href="#m194ea96b62" x="108.454479" y="203.050176" style="fill: #d62728; stroke: #d62728"/>
     <use xlink:href="#m194ea96b62" x="116.680833" y="200.671212" style="fill: #d62728; stroke: #d62728"/>
     <use xlink:href="#m194ea96b62" x="124.907187" y="215.103591" style="fill: #d62728; stroke: #d62728"/>
     <use xlink:href="#m194ea96b62" x="133.133542" y="225.57103" style="fill: #d62728; stroke: #d62728"/>
     <use xlink:href="#m194ea96b62" x="141.359896" y="221.764688" style="fill: #d62728; stroke: #d62728"/>
     <use xlink:href="#m194ea96b62" x="149.58625" y="224.143652" style="fill: #d62728; stroke: #d62728"/>
     <use xlink:href="#m194ea96b62" x="157.812604" y="225.729628" style="fill: #d62728; stroke: #d62728"/>
     <use xlink:href="#m194ea96b62" x="166.038958" y="218.592737" style="fill: #d62728; stroke: #d62728"/>
     <use xlink:href="#m194ea96b62" x="174.265312" y="193.692919" style="fill: #d62728; stroke: #d62728"/>
     <use xlink:href="#m194ea96b62" x="182.491667" y="182.908285" style="fill: #d62728; stroke: #d62728"/>
     <use xlink:href="#m194ea96b62" x="190.718021" y="178.308955" style="fill: #d62728; stroke: #d62728"/>
     <use xlink:href="#m194ea96b62" x="198.944375" y="188.776395" style="fill: #d62728; stroke: #d62728"/>
     <use xlink:href="#m194ea96b62" x="207.170729" y="193.058529" style="fill: #d62728; stroke: #d62728"/>
     <use xlink:href="#m194ea96b62" x="215.397083" y="199.878224" style="fill: #d62728; stroke: #d62728"/>
     <use xlink:href="#m194ea96b62" x="223.623437" y="224.619445" style="fill: #d62728; stroke: #d62728"/>
     <use xlink:href="#m194ea96b62" x="231.849792" y="232.232128" style="fill: #d62728; stroke: #d62728"/>
     <use xlink:href="#m194ea96b62" x="240.076146" y="236.038469" style="fill: #d62728; stroke: #d62728"/>
     <use xlink:href="#m194ea96b62" x="248.3025" y="248.409079" style="fill: #d62728; stroke: #d62728"/>
     <use xlink:href="#m194ea96b62" x="256.528854" y="238.734628" style="fill: #d62728; stroke: #d62728"/>
     <use xlink:href="#m194ea96b62" x="264.755208" y="230.328957" style="fill: #d62728; stroke: #d62728"/>
     <use xlink:href="#m194ea96b62" x="272.981563" y="235.879872" style="fill: #d62728; stroke: #d62728"/>
     <use xlink:href="#m194ea96b62" x="281.207917" y="243.333957" style="fill: #d62728; stroke: #d62728"/>
     <use xlink:href="#m194ea96b62" x="289.434271" y="235.086884" style="fill: #d62728; stroke: #d62728"/>
     <use xlink:href="#m194ea96b62" x="297.660625" y="236.514262" style="fill: #d62728; stroke: #d62728"/>
     <use xlink:href="#m194ea96b62" x="305.886979" y="226.522615" style="fill: #d62728; stroke: #d62728"/>
     <use xlink:href="#m194ea96b62" x="314.113333" y="232.70792" style="fill: #d62728; stroke: #d62728"/>
     <use xlink:href="#m194ea96b62" x="322.339687" y="248.409079" style="fill: #d62728; stroke: #d62728"/>
     <use xlink:href="#m194ea96b62" x="330.566042" y="255.704567" style="fill: #d62728; stroke: #d62728"/>
     <use xlink:href="#m194ea96b62" x="338.792396" y="258.400726" style="fill: #d62728; stroke: #d62728"/>
     <use xlink:href="#m194ea96b62" x="347.01875" y="262.68286" style="fill: #d62728; stroke: #d62728"/>
     <use xlink:href="#m194ea96b62" x="355.245104" y="259.828104" style="fill: #d62728; stroke: #d62728"/>
     <use xlink:href="#m194ea96b62" x="363.471458" y="245.554323" style="fill: #d62728; stroke: #d62728"/>
     <use xlink:href="#m194ea96b62" x="371.697812" y="183.85987" style="fill: #d62728; stroke: #d62728"/>
     <use xlink:href="#m194ea96b62" x="379.924167" y="179.577736" style="fill: #d62728; stroke: #d62728"/>
     <use xlink:href="#m194ea96b62" x="388.150521" y="179.736334" style="fill: #d62728; stroke: #d62728"/>
     <use xlink:href="#m194ea96b62" x="396.376875" y="188.300602" style="fill: #d62728; stroke: #d62728"/>
     <use xlink:href="#m194ea96b62" x="404.603229" y="184.018468" style="fill: #d62728; stroke: #d62728"/>
     <use xlink:href="#m194ea96b62" x="412.829583" y="180.053529" style="fill: #d62728; stroke: #d62728"/>
     <use xlink:href="#m194ea96b62" x="421.055937" y="179.419138" style="fill: #d62728; stroke: #d62728"/>
     <use xlink:href="#m194ea96b62" x="429.282292" y="176.881577" style="fill: #d62728; stroke: #d62728"/>
     <use xlink:href="#m194ea96b62" x="437.508646" y="155.946699" style="fill: #d62728; stroke: #d62728"/>
     <use xlink:href="#m194ea96b62" x="445.735" y="171.48926" style="fill: #d62728; stroke: #d62728"/>
     <use xlink:href="#m194ea96b62" x="453.961354" y="159.75304" style="fill: #d62728; stroke: #d62728"/>
     <use xlink:href="#m194ea96b62" x="462.187708" y="162.924992" style="fill: #d62728; stroke: #d62728"/>
     <use xlink:href="#m194ea96b62" x="470.414062" y="186.714626" style="fill: #d62728; stroke: #d62728"/>
     <use xlink:href="#m194ea96b62" x="478.640417" y="220.813103" style="fill: #d62728; stroke: #d62728"/>
     <use xlink:href="#m194ea96b62" x="486.866771" y="204.636151" style="fill: #d62728; stroke: #d62728"/>
     <use xlink:href="#m194ea96b62" x="495.093125" y="233.500908" style="fill: #d62728; stroke: #d62728"/>
     <use xlink:href="#m194ea96b62" x="503.319479" y="230.011762" style="fill: #d62728; stroke: #d62728"/>
     <use xlink:href="#m194ea96b62" x="511.545833" y="244.602738" style="fill: #d62728; stroke: #d62728"/>
     <use xlink:href="#m194ea96b62" x="519.772187" y="258.400726" style="fill: #d62728; stroke: #d62728"/>
     <use xlink:href="#m194ea96b62" x="527.998542" y="270.771336" style="fill: #d62728; stroke: #d62728"/>
     <use xlink:href="#m194ea96b62" x="536.224896" y="281.555971" style="fill: #d62728; stroke: #d62728"/>
     <use xlink:href="#m194ea96b62" x="544.45125" y="282.666154" style="fill: #d62728; stroke: #d62728"/>
     <use xlink:href="#m194ea96b62" x="552.677604" y="263.000055" style="fill: #d62728; stroke: #d62728"/>
     <use xlink:href="#m194ea96b62" x="560.903958" y="223.350664" style="fill: #d62728; stroke: #d62728"/>
     <use xlink:href="#m194ea96b62" x="569.130312" y="223.985054" style="fill: #d62728; stroke: #d62728"/>
     <use xlink:href="#m194ea96b62" x="577.356667" y="217.799749" style="fill: #d62728; stroke: #d62728"/>
     <use xlink:href="#m194ea96b62" x="585.583021" y="213.359017" style="fill: #d62728; stroke: #d62728"/>
     <use xlink:href="#m194ea96b62" x="593.809375" y="234.769689" style="fill: #d62728; stroke: #d62728"/>
     <use xlink:href="#m194ea96b62" x="602.035729" y="233.818103" style="fill: #d62728; stroke: #d62728"/>
     <use xlink:href="#m194ea96b62" x="610.262083" y="261.572677" style="fill: #d62728; stroke: #d62728"/>
     <use xlink:href="#m194ea96b62" x="618.488438" y="274.577678" style="fill: #d62728; stroke: #d62728"/>
     <use xlink:href="#m194ea96b62" x="626.714792" y="274.41908" style="fill: #d62728; stroke: #d62728"/>
     <use xlink:href="#m194ea96b62" x="634.941146" y="259.828104" style="fill: #d62728; stroke: #d62728"/>
     <use xlink:href="#m194ea96b62" x="643.1675" y="259.669507" style="fill: #d62728; stroke: #d62728"/>
     <use xlink:href="#m194ea96b62" x="651.393854" y="266.489202" style="fill: #d62728; stroke: #d62728"/>
     <use xlink:href="#m194ea96b62" x="659.620208" y="184.177065" style="fill: #d62728; stroke: #d62728"/>
     <use xlink:href="#m194ea96b62" x="667.846562" y="159.11865" style="fill: #d62728; stroke: #d62728"/>
     <use xlink:href="#m194ea96b62" x="676.072917" y="169.110297" style="fill: #d62728; stroke: #d62728"/>
     <use xlink:href="#m194ea96b62" x="684.299271" y="160.546028" style="fill: #d62728; stroke: #d62728"/>
     <use xlink:href="#m194ea96b62" x="692.525625" y="157.691272" style="fill: #d62728; stroke: #d62728"/>
     <use xlink:href="#m194ea96b62" x="700.751979" y="137.390784" style="fill: #d62728; stroke: #d62728"/>
     <use xlink:href="#m194ea96b62" x="708.978333" y="119.786454" style="fill: #d62728; stroke: #d62728"/>
     <use xlink:href="#m194ea96b62" x="717.204687" y="149.127003" style="fill: #d62728; stroke: #d62728"/>
     <use xlink:href="#m194ea96b62" x="725.431042" y="144.369076" style="fill: #d62728; stroke: #d62728"/>
     <use xlink:href="#m194ea96b62" x="733.657396" y="123.434198" style="fill: #d62728; stroke: #d62728"/>
     <use xlink:href="#m194ea96b62" x="741.88375" y="136.597796" style="fill: #d62728; stroke: #d62728"/>
     <use xlink:href="#m194ea96b62" x="750.110104" y="109.160417" style="fill: #d62728; stroke: #d62728"/>
     <use xlink:href="#m194ea96b62" x="758.336458" y="90.763099" style="fill: #d62728; stroke: #d62728"/>
     <use xlink:href="#m194ea96b62" x="766.562812" y="65.070294" style="fill: #d62728; stroke: #d62728"/>
     <use xlink:href="#m194ea96b62" x="774.789167" y="61.42255" style="fill: #d62728; stroke: #d62728"/>
     <use xlink:href="#m194ea96b62" x="783.015521" y="39.060293" style="fill: #d62728; stroke: #d62728"/>
     <use xlink:href="#m194ea96b62" x="791.241875" y="41.439257" style="fill: #d62728; stroke: #d62728"/>
     <use xlink:href="#m194ea96b62" x="799.468229" y="82.198831" style="fill: #d62728; stroke: #d62728"/>
     <use xlink:href="#m194ea96b62" x="807.694583" y="98.058587" style="fill: #d62728; stroke: #d62728"/>
     <use xlink:href="#m194ea96b62" x="815.920938" y="105.512673" style="fill: #d62728; stroke: #d62728"/>
     <use xlink:href="#m194ea96b62" x="824.147292" y="104.719685" style="fill: #d62728; stroke: #d62728"/>
     <use xlink:href="#m194ea96b62" x="832.373646" y="113.918344" style="fill: #d62728; stroke: #d62728"/>
     <use xlink:href="#m194ea96b62" x="840.6" y="133.425844" style="fill: #d62728; stroke: #d62728"/>
    </g>
   </g>
   <g id="patch_3">
    <path d="M 50.87 462.04 
L 50.87 26.88 
" style="fill: none; stroke: #000000; stroke-width: 0.8; stroke-linejoin: miter; stroke-linecap: square"/>
   </g>
   <g id="patch_4">
    <path d="M 840.6 462.04 
L 840.6 26.88 
" style="fill: none; stroke: #000000; stroke-width: 0.8; stroke-linejoin: miter; stroke-linecap: square"/>
   </g>
   <g id="patch_5">
    <path d="M 50.87 462.04 
L 840.6 462.04 
" style="fill: none; stroke: #000000; stroke-width: 0.8; stroke-linejoin: miter; stroke-linecap: square"/>
   </g>
   <g id="patch_6">
    <path d="M 50.87 26.88 
L 840.6 26.88 
" style="fill: none; stroke: #000000; stroke-width: 0.8; stroke-linejoin: miter; stroke-linecap: square"/>
   </g>
   <g id="text_18">
    <!-- Price in Various Countries -->
    <g transform="translate(369.089688 20.88) scale(0.12 -0.12)">
     <defs>
      <path id="DejaVuSans-56" d="M 1831 0 
L 50 4666 
L 709 4666 
L 2188 738 
L 3669 4666 
L 4325 4666 
L 2547 0 
L 1831 0 
z
" transform="scale(0.015625)"/>
      <path id="DejaVuSans-75" d="M 544 1381 
L 544 3500 
L 1119 3500 
L 1119 1403 
Q 1119 906 1312 657 
Q 1506 409 1894 409 
Q 2359 409 2629 706 
Q 2900 1003 2900 1516 
L 2900 3500 
L 3475 3500 
L 3475 0 
L 2900 0 
L 2900 538 
Q 2691 219 2414 64 
Q 2138 -91 1772 -91 
Q 1169 -91 856 284 
Q 544 659 544 1381 
z
M 1991 3584 
L 1991 3584 
z
" transform="scale(0.015625)"/>
     </defs>
     <use xlink:href="#DejaVuSans-50"/>
     <use xlink:href="#DejaVuSans-72" transform="translate(58.552734 0)"/>
     <use xlink:href="#DejaVuSans-69" transform="translate(99.666016 0)"/>
     <use xlink:href="#DejaVuSans-63" transform="translate(127.449219 0)"/>
     <use xlink:href="#DejaVuSans-65" transform="translate(182.429688 0)"/>
     <use xlink:href="#DejaVuSans-20" transform="translate(243.953125 0)"/>
     <use xlink:href="#DejaVuSans-69" transform="translate(275.740234 0)"/>
     <use xlink:href="#DejaVuSans-6e" transform="translate(303.523438 0)"/>
     <use xlink:href="#DejaVuSans-20" transform="translate(366.902344 0)"/>
     <use xlink:href="#DejaVuSans-56" transform="translate(398.689453 0)"/>
     <use xlink:href="#DejaVuSans-61" transform="translate(459.347656 0)"/>
     <use xlink:href="#DejaVuSans-72" transform="translate(520.626953 0)"/>
     <use xlink:href="#DejaVuSans-69" transform="translate(561.740234 0)"/>
     <use xlink:href="#DejaVuSans-6f" transform="translate(589.523438 0)"/>
     <use xlink:href="#DejaVuSans-75" transform="translate(650.705078 0)"/>
     <use xlink:href="#DejaVuSans-73" transform="translate(714.083984 0)"/>
     <use xlink:href="#DejaVuSans-20" transform="translate(766.183594 0)"/>
     <use xlink:href="#DejaVuSans-43" transform="translate(797.970703 0)"/>
     <use xlink:href="#DejaVuSans-6f" transform="translate(867.794922 0)"/>
     <use xlink:href="#DejaVuSans-75" transform="translate(928.976562 0)"/>
     <use xlink:href="#DejaVuSans-6e" transform="translate(992.355469 0)"/>
     <use xlink:href="#DejaVuSans-74" transform="translate(1055.734375 0)"/>
     <use xlink:href="#DejaVuSans-72" transform="translate(1094.943359 0)"/>
     <use xlink:href="#DejaVuSans-69" transform="translate(1136.056641 0)"/>
     <use xlink:href="#DejaVuSans-65" transform="translate(1163.839844 0)"/>
     <use xlink:href="#DejaVuSans-73" transform="translate(1225.363281 0)"/>
    </g>
   </g>
   <g id="legend_1">
    <g id="patch_7">
     <path d="M 57.87 93.5925 
L 135.8325 93.5925 
Q 137.8325 93.5925 137.8325 91.5925 
L 137.8325 33.88 
Q 137.8325 31.88 135.8325 31.88 
L 57.87 31.88 
Q 55.87 31.88 55.87 33.88 
L 55.87 91.5925 
Q 55.87 93.5925 57.87 93.5925 
z
" style="fill: #ffffff; opacity: 0.8; stroke: #cccccc; stroke-linejoin: miter"/>
    </g>
    <g id="line2d_50">
     <path d="M 59.87 39.978437 
L 69.87 39.978437 
L 79.87 39.978437 
" style="fill: none; stroke: #1f77b4; stroke-width: 2; stroke-linecap: square"/>
     <g>
      <use xlink:href="#m1e6e3cc8e0" x="69.87" y="39.978437" style="fill: #1f77b4; stroke: #1f77b4"/>
     </g>
    </g>
    <g id="text_19">
     <!-- Germany -->
     <g transform="translate(87.87 43.478437) scale(0.1 -0.1)">
      <defs>
       <path id="DejaVuSans-6d" d="M 3328 2828 
Q 3544 3216 3844 3400 
Q 4144 3584 4550 3584 
Q 5097 3584 5394 3201 
Q 5691 2819 5691 2113 
L 5691 0 
L 5113 0 
L 5113 2094 
Q 5113 2597 4934 2840 
Q 4756 3084 4391 3084 
Q 3944 3084 3684 2787 
Q 3425 2491 3425 1978 
L 3425 0 
L 2847 0 
L 2847 2094 
Q 2847 2600 2669 2842 
Q 2491 3084 2119 3084 
Q 1678 3084 1418 2786 
Q 1159 2488 1159 1978 
L 1159 0 
L 581 0 
L 581 3500 
L 1159 3500 
L 1159 2956 
Q 1356 3278 1631 3431 
Q 1906 3584 2284 3584 
Q 2666 3584 2933 3390 
Q 3200 3197 3328 2828 
z
" transform="scale(0.015625)"/>
       <path id="DejaVuSans-79" d="M 2059 -325 
Q 1816 -950 1584 -1140 
Q 1353 -1331 966 -1331 
L 506 -1331 
L 506 -850 
L 844 -850 
Q 1081 -850 1212 -737 
Q 1344 -625 1503 -206 
L 1606 56 
L 191 3500 
L 800 3500 
L 1894 763 
L 2988 3500 
L 3597 3500 
L 2059 -325 
z
" transform="scale(0.015625)"/>
      </defs>
      <use xlink:href="#DejaVuSans-47"/>
      <use xlink:href="#DejaVuSans-65" transform="translate(77.490234 0)"/>
      <use xlink:href="#DejaVuSans-72" transform="translate(139.013672 0)"/>
      <use xlink:href="#DejaVuSans-6d" transform="translate(178.376953 0)"/>
      <use xlink:href="#DejaVuSans-61" transform="translate(275.789062 0)"/>
      <use xlink:href="#DejaVuSans-6e" transform="translate(337.068359 0)"/>
      <use xlink:href="#DejaVuSans-79" transform="translate(400.447266 0)"/>
     </g>
    </g>
    <g id="line2d_51">
     <path d="M 59.87 54.656562 
L 69.87 54.656562 
L 79.87 54.656562 
" style="fill: none; stroke: #ff7f0e; stroke-width: 2; stroke-linecap: square"/>
     <g>
      <use xlink:href="#ma326a8f5e0" x="69.87" y="54.656562" style="fill: #ff7f0e; stroke: #ff7f0e"/>
     </g>
    </g>
    <g id="text_20">
     <!-- Slovakia -->
     <g transform="translate(87.87 58.156562) scale(0.1 -0.1)">
      <defs>
       <path id="DejaVuSans-53" d="M 3425 4513 
L 3425 3897 
Q 3066 4069 2747 4153 
Q 2428 4238 2131 4238 
Q 1616 4238 1336 4038 
Q 1056 3838 1056 3469 
Q 1056 3159 1242 3001 
Q 1428 2844 1947 2747 
L 2328 2669 
Q 3034 2534 3370 2195 
Q 3706 1856 3706 1288 
Q 3706 609 3251 259 
Q 2797 -91 1919 -91 
Q 1588 -91 1214 -16 
Q 841 59 441 206 
L 441 856 
Q 825 641 1194 531 
Q 1563 422 1919 422 
Q 2459 422 2753 634 
Q 3047 847 3047 1241 
Q 3047 1584 2836 1778 
Q 2625 1972 2144 2069 
L 1759 2144 
Q 1053 2284 737 2584 
Q 422 2884 422 3419 
Q 422 4038 858 4394 
Q 1294 4750 2059 4750 
Q 2388 4750 2728 4690 
Q 3069 4631 3425 4513 
z
" transform="scale(0.015625)"/>
       <path id="DejaVuSans-6c" d="M 603 4863 
L 1178 4863 
L 1178 0 
L 603 0 
L 603 4863 
z
" transform="scale(0.015625)"/>
       <path id="DejaVuSans-76" d="M 191 3500 
L 800 3500 
L 1894 563 
L 2988 3500 
L 3597 3500 
L 2284 0 
L 1503 0 
L 191 3500 
z
" transform="scale(0.015625)"/>
      </defs>
      <use xlink:href="#DejaVuSans-53"/>
      <use xlink:href="#DejaVuSans-6c" transform="translate(63.476562 0)"/>
      <use xlink:href="#DejaVuSans-6f" transform="translate(91.259766 0)"/>
      <use xlink:href="#DejaVuSans-76" transform="translate(152.441406 0)"/>
      <use xlink:href="#DejaVuSans-61" transform="translate(211.621094 0)"/>
      <use xlink:href="#DejaVuSans-6b" transform="translate(272.900391 0)"/>
      <use xlink:href="#DejaVuSans-69" transform="translate(330.810547 0)"/>
      <use xlink:href="#DejaVuSans-61" transform="translate(358.59375 0)"/>
     </g>
    </g>
    <g id="line2d_52">
     <path d="M 59.87 69.334687 
L 69.87 69.334687 
L 79.87 69.334687 
" style="fill: none; stroke: #2ca02c; stroke-width: 2; stroke-linecap: square"/>
     <g>
      <use xlink:href="#maaac5bb1e3" x="69.87" y="69.334687" style="fill: #2ca02c; stroke: #2ca02c"/>
     </g>
    </g>
    <g id="text_21">
     <!-- France -->
     <g transform="translate(87.87 72.834687) scale(0.1 -0.1)">
      <defs>
       <path id="DejaVuSans-46" d="M 628 4666 
L 3309 4666 
L 3309 4134 
L 1259 4134 
L 1259 2759 
L 3109 2759 
L 3109 2228 
L 1259 2228 
L 1259 0 
L 628 0 
L 628 4666 
z
" transform="scale(0.015625)"/>
      </defs>
      <use xlink:href="#DejaVuSans-46"/>
      <use xlink:href="#DejaVuSans-72" transform="translate(50.269531 0)"/>
      <use xlink:href="#DejaVuSans-61" transform="translate(91.382812 0)"/>
      <use xlink:href="#DejaVuSans-6e" transform="translate(152.662109 0)"/>
      <use xlink:href="#DejaVuSans-63" transform="translate(216.041016 0)"/>
      <use xlink:href="#DejaVuSans-65" transform="translate(271.021484 0)"/>
     </g>
    </g>
    <g id="line2d_53">
     <path d="M 59.87 84.012812 
L 69.87 84.012812 
L 79.87 84.012812 
" style="fill: none; stroke: #d62728; stroke-width: 2; stroke-linecap: square"/>
     <g>
      <use xlink:href="#m194ea96b62" x="69.87" y="84.012812" style="fill: #d62728; stroke: #d62728"/>
     </g>
    </g>
    <g id="text_22">
     <!-- Poland -->
     <g transform="translate(87.87 87.512812) scale(0.1 -0.1)">
      <use xlink:href="#DejaVuSans-50"/>
      <use xlink:href="#DejaVuSans-6f" transform="translate(56.677734 0)"/>
      <use xlink:href="#DejaVuSans-6c" transform="translate(117.859375 0)"/>
      <use xlink:href="#DejaVuSans-61" transform="translate(145.642578 0)"/>
      <use xlink:href="#DejaVuSans-6e" transform="translate(206.921875 0)"/>
      <use xlink:href="#DejaVuSans-64" transform="translate(270.300781 0)"/>
     </g>
    </g>
   </g>
  </g>
 </g>
 <defs>
  <clipPath id="pd8b317753c">
   <rect x="50.87" y="26.88" width="789.73" height="435.16"/>
  </clipPath>
 </defs>
</svg>
